<?xml version="1.0" standalone="no"?>
<!DOCTYPE svg PUBLIC "-//W3C//DTD SVG 20010904//EN"
 "http://www.w3.org/TR/2001/REC-SVG-20010904/DTD/svg10.dtd">
<svg version="1.0" xmlns="http://www.w3.org/2000/svg"
 width="236.000000pt" height="236.000000pt" viewBox="0 0 236.000000 236.000000"
 preserveAspectRatio="xMidYMid meet">
<metadata>
Created by potrace 1.14, written by Peter Selinger 2001-2017
</metadata>
<g transform="translate(0.000000,236.000000) scale(0.100000,-0.100000)"
fill="#000000" stroke="none">
<path d="M602 1767 c-320 -320 -582 -586 -582 -591 0 -10 1154 -1166 1165
-1166 10 0 1165 1156 1165 1166 0 5 -262 271 -583 592 l-582 582 -583 -583z
m417 134 c18 -34 16 -107 -5 -139 -10 -15 -64 -74 -121 -130 -57 -57 -103
-105 -103 -106 0 -1 48 -1 108 0 509 8 503 9 512 -6 11 -17 13 -51 4 -75 -11
-28 -57 -43 -139 -45 -302 -7 -283 -2 -286 -70 -1 -19 -3 -44 -4 -55 -6 -49
-26 -235 -31 -280 -4 -39 -12 -56 -35 -77 -31 -30 -52 -34 -93 -18 -28 10 -27
9 -12 176 7 75 16 172 21 245 l5 66 -92 -3 c-51 -1 -95 -3 -98 -3 -3 -1 -17
-12 -32 -26 -44 -41 -91 -65 -126 -65 -35 0 -97 25 -108 42 -4 6 130 147 296
313 318 318 310 312 339 256z m186 -594 c-2 -12 -6 -49 -9 -82 -8 -78 -18
-166 -21 -185 -8 -46 -19 -190 -17 -220 8 -117 88 -189 208 -190 127 0 181 67
199 245 5 55 10 99 20 180 8 66 18 171 19 193 0 35 40 28 84 -16 40 -40 54
-77 47 -128 -2 -16 -6 -63 -10 -104 -3 -41 -8 -86 -10 -100 -2 -14 -7 -50 -10
-80 -14 -129 -58 -216 -134 -268 -124 -85 -339 -64 -459 43 -71 64 -96 125
-98 245 -2 52 1 118 6 145 4 28 11 85 15 127 11 138 17 153 68 192 52 40 108
41 102 3z"/>
</g>
</svg>
