<?xml version="1.0" standalone="no"?>
<!DOCTYPE svg PUBLIC "-//W3C//DTD SVG 20010904//EN"
 "http://www.w3.org/TR/2001/REC-SVG-20010904/DTD/svg10.dtd">
<svg version="1.0" xmlns="http://www.w3.org/2000/svg"
 width="240.000000pt" height="240.000000pt" viewBox="0 0 240.000000 240.000000"
 preserveAspectRatio="xMidYMid meet">
<metadata>
Created by potrace 1.14, written by Peter Selinger 2001-2017
</metadata>
<g transform="translate(0.000000,240.000000) scale(0.100000,-0.100000)"
fill="#000000" stroke="none">
<path d="M1123 2156 c-40 -25 -105 -63 -145 -86 -40 -22 -86 -49 -103 -59 -16
-10 -86 -51 -155 -91 -69 -40 -138 -81 -155 -91 -16 -11 -37 -22 -45 -26 -14
-6 -79 -44 -340 -198 -58 -34 -120 -70 -137 -79 -18 -9 -33 -20 -33 -24 0 -7
225 -142 380 -230 19 -10 100 -58 180 -104 80 -47 161 -95 180 -105 19 -11 71
-42 115 -68 44 -26 94 -55 110 -64 17 -9 74 -42 127 -74 l97 -57 98 56 c54 31
190 111 303 177 113 66 230 134 260 152 30 17 118 68 195 113 l140 81 3 -365
2 -364 100 0 100 0 0 430 c0 278 -4 430 -10 430 -5 0 -97 51 -202 113 -106 63
-251 147 -321 188 -70 41 -140 82 -155 91 -15 9 -38 23 -52 31 -64 35 -416
240 -434 253 -11 8 -23 14 -26 14 -3 0 -38 -20 -77 -44z"/>
<path d="M400 822 l0 -229 73 -75 c149 -155 284 -234 496 -288 90 -23 121 -26
235 -24 72 1 142 5 156 8 14 3 40 8 58 11 31 4 129 37 205 69 100 43 251 157
330 249 l47 56 -2 225 -3 225 -335 -196 c-431 -252 -450 -263 -461 -263 -6 0
-76 39 -157 86 -81 48 -160 95 -177 104 -75 43 -403 234 -432 252 l-33 20 0
-230z"/>
</g>
</svg>
