<svg xmlns="http://www.w3.org/2000/svg" width="102" height="202" viewBox="0 0 102 202" fill="none">
<line x1="51.2856" y1="151.006" x2="50.9018" y2="201.005" stroke="#7B82F6" stroke-width="2" stroke-dasharray="10 10"/>
<line x1="51.437" y1="1.00279" x2="51.0532" y2="51.0013" stroke="#7B82F6" stroke-width="2" stroke-dasharray="10 10"/>
<circle cx="50.6694" cy="101" r="50" transform="rotate(0.439809 50.6694 101)" fill="#7B82F6"/>
<path d="M33.7333 123.871L33.776 118.303L51.6972 101.544C53.2013 100.147 54.3201 98.9185 55.0536 97.8575C55.7871 96.7964 56.2639 95.8187 56.4841 94.9244C56.7473 93.9877 56.882 93.114 56.8883 92.3034C56.904 90.2555 56.2121 88.6714 54.8127 87.5513C53.4136 86.3886 51.3487 85.7967 48.6181 85.7757C46.4422 85.759 44.4553 86.1278 42.6574 86.882C40.9023 87.6366 39.3786 88.7982 38.0866 90.367L32.2971 85.8424C34.0644 83.5093 36.4249 81.714 39.3787 80.4566C42.3754 79.1569 45.7084 78.5212 49.3776 78.5493C52.6202 78.5742 55.432 79.1292 57.8131 80.2141C60.2371 81.2568 62.0818 82.743 63.347 84.6728C64.6549 86.6028 65.2987 88.8905 65.2784 91.5358C65.2673 92.9864 65.0641 94.4356 64.669 95.8832C64.2742 97.2882 63.5374 98.776 62.4587 100.346C61.3799 101.917 59.809 103.675 57.746 105.622L42.339 120.033L40.6351 116.883L66.8103 117.084L66.7563 124.124L33.7333 123.871Z" fill="white"/>
</svg>