<svg xmlns="http://www.w3.org/2000/svg" width="102" height="201" viewBox="0 0 102 201" fill="none">
<line x1="54.563" y1="150.992" x2="54.1792" y2="200.991" stroke="#7B82F6" stroke-width="2" stroke-dasharray="10 10"/>
<line x1="54.7143" y1="0.995957" x2="54.3305" y2="50.9945" stroke="#7B82F6" stroke-width="2" stroke-dasharray="10 10"/>
<circle cx="50.9468" cy="100.986" r="50" transform="rotate(0.439809 50.9468 100.986)" fill="#7B82F6"/>
<path d="M48.6613 124.609C45.504 124.585 42.4142 124.113 39.3918 123.194C36.4125 122.232 33.905 120.933 31.8695 119.296L35.5031 112.86C37.1142 114.195 39.0686 115.276 41.3663 116.105C43.664 116.933 46.0715 117.357 48.5888 117.376C51.5754 117.399 53.9052 116.82 55.5783 115.638C57.2518 114.413 58.0965 112.756 58.1126 110.665C58.1283 108.617 57.3728 106.99 55.846 105.784C54.3192 104.577 51.8492 103.961 48.4359 103.935L44.3401 103.903L44.3838 98.2073L57.3003 83.074L58.3642 86.2183L34.3009 86.0335L34.3545 79.0577L64.8816 79.2921L64.8389 84.8599L51.9223 99.9932L47.5901 97.3999L50.086 97.419C55.5898 97.4613 59.6976 98.7302 62.4092 101.226C65.1637 103.679 66.5263 106.826 66.4968 110.665C66.4775 113.183 65.8197 115.503 64.5233 117.626C63.227 119.75 61.2511 121.463 58.5957 122.765C55.9833 124.025 52.6718 124.64 48.6613 124.609Z" fill="white"/>
</svg>