<svg width="109" height="208" viewBox="0 0 109 208" fill="none" xmlns="http://www.w3.org/2000/svg">
<g clip-path="url(#clip0_52_6)" filter="url(#filter0_d_52_6)">
<path d="M54.6694 150V200" stroke="#180D53" stroke-width="2" stroke-dasharray="10 10"/>
<path d="M54.6694 0V50" stroke="#180D53" stroke-width="2" stroke-dasharray="10 10"/>
<path d="M54.6694 150C82.2836 150 104.669 127.614 104.669 100C104.669 72.3858 82.2836 50 54.6694 50C27.0552 50 4.6694 72.3858 4.6694 100C4.6694 127.614 27.0552 150 54.6694 150Z" fill="#737373"/>
<path d="M34.8454 112.824V107.064L56.9254 78.2H65.8214L44.0614 107.064L39.9014 105.784H75.4214V112.824H34.8454ZM59.4214 123V112.824L59.6774 105.784V96.76H67.4854V123H59.4214Z" fill="white"/>
</g>
<defs>
<filter id="filter0_d_52_6" x="0" y="0" width="109" height="208" filterUnits="userSpaceOnUse" color-interpolation-filters="sRGB">
<feFlood flood-opacity="0" result="BackgroundImageFix"/>
<feColorMatrix in="SourceAlpha" type="matrix" values="0 0 0 0 0 0 0 0 0 0 0 0 0 0 0 0 0 0 127 0" result="hardAlpha"/>
<feOffset dy="4"/>
<feGaussianBlur stdDeviation="2"/>
<feComposite in2="hardAlpha" operator="out"/>
<feColorMatrix type="matrix" values="0 0 0 0 0 0 0 0 0 0 0 0 0 0 0 0 0 0 0.25 0"/>
<feBlend mode="normal" in2="BackgroundImageFix" result="effect1_dropShadow_52_6"/>
<feBlend mode="normal" in="SourceGraphic" in2="effect1_dropShadow_52_6" result="shape"/>
</filter>
<clipPath id="clip0_52_6">
<rect width="101" height="200" fill="white" transform="translate(4)"/>
</clipPath>
</defs>
</svg>
