<svg width="109" height="158" viewBox="0 0 109 158" fill="none" xmlns="http://www.w3.org/2000/svg">
<g clip-path="url(#clip0_52_2)" filter="url(#filter0_d_52_2)">
<path d="M54.6694 0V50" stroke="#180D53" stroke-width="2" stroke-dasharray="10 10"/>
<path d="M54.6694 150C82.2836 150 104.669 127.614 104.669 100C104.669 72.3858 82.2836 50 54.6694 50C27.0552 50 4.6694 72.3858 4.6694 100C4.6694 127.614 27.0552 150 54.6694 150Z" fill="#737373"/>
<path d="M53.3334 123.64C50.1761 123.64 47.0828 123.192 44.0534 122.296C41.0668 121.357 38.5494 120.077 36.5014 118.456L40.0214 111.992C41.6428 113.315 43.6054 114.381 45.9094 115.192C48.2561 116.003 50.6881 116.408 53.2054 116.408C56.1494 116.408 58.4534 115.789 60.1174 114.552C61.8241 113.315 62.6774 111.651 62.6774 109.56C62.6774 108.152 62.3148 106.915 61.5894 105.848C60.9068 104.781 59.6694 103.971 57.8774 103.416C56.1281 102.861 53.7174 102.584 50.6454 102.584H39.8294L42.1334 78.2H68.4374V85.176H45.2054L49.5574 81.208L47.8294 99.448L43.4774 95.544H52.5014C56.9388 95.544 60.5014 96.1413 63.1894 97.336C65.9201 98.488 67.9041 100.109 69.1414 102.2C70.4214 104.248 71.0614 106.595 71.0614 109.24C71.0614 111.843 70.4214 114.232 69.1414 116.408C67.8614 118.584 65.8988 120.333 63.2534 121.656C60.6508 122.979 57.3441 123.64 53.3334 123.64Z" fill="white"/>
</g>
<defs>
<filter id="filter0_d_52_2" x="0" y="0" width="109" height="158" filterUnits="userSpaceOnUse" color-interpolation-filters="sRGB">
<feFlood flood-opacity="0" result="BackgroundImageFix"/>
<feColorMatrix in="SourceAlpha" type="matrix" values="0 0 0 0 0 0 0 0 0 0 0 0 0 0 0 0 0 0 127 0" result="hardAlpha"/>
<feOffset dy="4"/>
<feGaussianBlur stdDeviation="2"/>
<feComposite in2="hardAlpha" operator="out"/>
<feColorMatrix type="matrix" values="0 0 0 0 0 0 0 0 0 0 0 0 0 0 0 0 0 0 0.25 0"/>
<feBlend mode="normal" in2="BackgroundImageFix" result="effect1_dropShadow_52_2"/>
<feBlend mode="normal" in="SourceGraphic" in2="effect1_dropShadow_52_2" result="shape"/>
</filter>
<clipPath id="clip0_52_2">
<rect width="101" height="150" fill="white" transform="translate(4)"/>
</clipPath>
</defs>
</svg>
