<svg xmlns="http://www.w3.org/2000/svg" width="101" height="150" viewBox="0 0 101 150" fill="none">
<line x1="50.6694" y1="-4.37114e-08" x2="50.6694" y2="50" stroke="#2E5846" stroke-width="2" stroke-dasharray="10 10"/>
<circle cx="50.6694" cy="100" r="50" fill="#737373"/>
<path d="M49.3334 123.64C46.1761 123.64 43.0828 123.192 40.0534 122.296C37.0668 121.357 34.5494 120.077 32.5014 118.456L36.0214 111.992C37.6428 113.315 39.6054 114.381 41.9094 115.192C44.2561 116.003 46.6881 116.408 49.2054 116.408C52.1494 116.408 54.4534 115.789 56.1174 114.552C57.8241 113.315 58.6774 111.651 58.6774 109.56C58.6774 108.152 58.3148 106.915 57.5894 105.848C56.9068 104.781 55.6694 103.971 53.8774 103.416C52.1281 102.861 49.7174 102.584 46.6454 102.584H35.8294L38.1334 78.2H64.4374V85.176H41.2054L45.5574 81.208L43.8294 99.448L39.4774 95.544H48.5014C52.9388 95.544 56.5014 96.1413 59.1894 97.336C61.9201 98.488 63.9041 100.109 65.1414 102.2C66.4214 104.248 67.0614 106.595 67.0614 109.24C67.0614 111.843 66.4214 114.232 65.1414 116.408C63.8614 118.584 61.8988 120.333 59.2534 121.656C56.6508 122.979 53.3441 123.64 49.3334 123.64Z" fill="white"/>
</svg>