<svg xmlns="http://www.w3.org/2000/svg" width="219" height="263" viewBox="0 0 219 263" fill="none">
<circle cx="50" cy="50" r="50" fill="#7B82F6"/>
<path d="M33.24 73V67.432L51.032 50.536C52.5253 49.128 53.6347 47.8907 54.36 46.824C55.0853 45.7573 55.5547 44.776 55.768 43.88C56.024 42.9413 56.152 42.0667 56.152 41.256C56.152 39.208 55.448 37.6293 54.04 36.52C52.632 35.368 50.5627 34.792 47.832 34.792C45.656 34.792 43.672 35.176 41.88 35.944C40.1307 36.712 38.616 37.8853 37.336 39.464L31.512 34.984C33.2613 32.6373 35.608 30.824 38.552 29.544C41.5387 28.2213 44.8667 27.56 48.536 27.56C51.7787 27.56 54.5947 28.0933 56.984 29.16C59.416 30.184 61.272 31.656 62.552 33.576C63.8747 35.496 64.536 37.7787 64.536 40.424C64.536 41.8747 64.344 43.3253 63.96 44.776C63.576 46.184 62.8507 47.6773 61.784 49.256C60.7173 50.8347 59.16 52.6053 57.112 54.568L41.816 69.096L40.088 65.96H66.264V73H33.24Z" fill="white"/>
<path d="M218 52L99.9999 52.9833" stroke="#195946" stroke-width="2" stroke-dasharray="10 10"/>
<line x1="50" y1="101" x2="50" y2="263" stroke="#7B82F6" stroke-width="2" stroke-dasharray="10 10"/>
</svg>