<svg xmlns="http://www.w3.org/2000/svg" width="211" height="263" viewBox="0 0 211 263" fill="none">
<circle cx="161" cy="50" r="50" fill="#7B82F6"/>
<path d="M158.896 73.64C155.739 73.64 152.645 73.192 149.616 72.296C146.629 71.3573 144.112 70.0773 142.064 68.456L145.648 61.992C147.269 63.3147 149.232 64.3813 151.536 65.192C153.84 66.0027 156.251 66.408 158.768 66.408C161.755 66.408 164.08 65.8107 165.744 64.616C167.408 63.3787 168.24 61.7147 168.24 59.624C168.24 57.576 167.472 55.9547 165.936 54.76C164.4 53.5653 161.925 52.968 158.512 52.968H154.416V47.272L167.216 32.04L168.304 35.176H144.24V28.2H174.768V33.768L161.968 49L157.616 46.44H160.112C165.616 46.44 169.733 47.6773 172.464 50.152C175.237 52.584 176.624 55.72 176.624 59.56C176.624 62.0773 175.984 64.4027 174.704 66.536C173.424 68.6693 171.461 70.3973 168.816 71.72C166.213 73 162.907 73.64 158.896 73.64Z" fill="white"/>
<path d="M111 50L-1.66893e-06 50" stroke="#195946" stroke-width="2" stroke-dasharray="10 10"/>
<line x1="164" y1="101" x2="164" y2="263" stroke="#7B82F6" stroke-width="2" stroke-dasharray="10 10"/>
</svg>