<svg xmlns="http://www.w3.org/2000/svg" width="211" height="100" viewBox="0 0 211 100" fill="none">
<circle cx="161" cy="50" r="50" fill="#737373"/>
<path d="M159.664 73.64C156.507 73.64 153.413 73.192 150.384 72.296C147.397 71.3573 144.88 70.0773 142.832 68.456L146.352 61.992C147.973 63.3147 149.936 64.3813 152.24 65.192C154.587 66.0027 157.019 66.408 159.536 66.408C162.48 66.408 164.784 65.7893 166.448 64.552C168.155 63.3147 169.008 61.6507 169.008 59.56C169.008 58.152 168.645 56.9147 167.92 55.848C167.237 54.7813 166 53.9707 164.208 53.416C162.459 52.8613 160.048 52.584 156.976 52.584H146.16L148.464 28.2H174.768V35.176H151.536L155.888 31.208L154.16 49.448L149.808 45.544H158.832C163.269 45.544 166.832 46.1413 169.52 47.336C172.251 48.488 174.235 50.1093 175.472 52.2C176.752 54.248 177.392 56.5947 177.392 59.24C177.392 61.8427 176.752 64.232 175.472 66.408C174.192 68.584 172.229 70.3333 169.584 71.656C166.981 72.9787 163.675 73.64 159.664 73.64Z" fill="white"/>
<path d="M111 50L-1.66893e-06 50" stroke="#195946" stroke-width="2" stroke-dasharray="10 10"/>
</svg>