<svg width="208" height="79" viewBox="0 0 208 79" fill="none" xmlns="http://www.w3.org/2000/svg">
<path d="M9.23716 26.7712L8.95716 20.6112L23.6372 5.37121H29.4772L17.2772 18.3312L14.3972 21.4912L9.23716 26.7712ZM4.59716 33.3712V5.37121H9.79716V33.3712H4.59716ZM24.1172 33.3712L13.3972 20.6112L16.8372 16.8112L30.1972 33.3712H24.1172ZM49.11 33.3712V29.0512L48.83 28.1312V20.5712C48.83 19.1045 48.39 17.9712 47.51 17.1712C46.63 16.3445 45.2966 15.9312 43.51 15.9312C42.31 15.9312 41.1233 16.1179 39.95 16.4912C38.8033 16.8645 37.83 17.3845 37.03 18.0512L35.07 14.4112C36.2166 13.5312 37.5766 12.8779 39.15 12.4512C40.75 11.9979 42.4033 11.7712 44.11 11.7712C47.2033 11.7712 49.59 12.5179 51.27 14.0112C52.9766 15.4779 53.83 17.7579 53.83 20.8512V33.3712H49.11ZM42.39 33.6512C40.79 33.6512 39.39 33.3845 38.19 32.8512C36.99 32.2912 36.0566 31.5312 35.39 30.5712C34.75 29.5845 34.43 28.4779 34.43 27.2512C34.43 26.0512 34.71 24.9712 35.27 24.0112C35.8566 23.0512 36.8033 22.2912 38.11 21.7312C39.4166 21.1712 41.15 20.8912 43.31 20.8912H49.51V24.2112H43.67C41.9633 24.2112 40.8166 24.4912 40.23 25.0512C39.6433 25.5845 39.35 26.2512 39.35 27.0512C39.35 27.9579 39.71 28.6779 40.43 29.2112C41.15 29.7445 42.15 30.0112 43.43 30.0112C44.6566 30.0112 45.75 29.7312 46.71 29.1712C47.6966 28.6112 48.4033 27.7845 48.83 26.6912L49.67 29.6912C49.19 30.9445 48.3233 31.9179 47.07 32.6112C45.8433 33.3045 44.2833 33.6512 42.39 33.6512ZM63.4468 33.3712V12.0112H68.2068V17.8912L67.6468 16.1712C68.2868 14.7312 69.2868 13.6379 70.6468 12.8912C72.0335 12.1445 73.7535 11.7712 75.8068 11.7712V16.5312C75.5935 16.4779 75.3935 16.4512 75.2068 16.4512C75.0202 16.4245 74.8335 16.4112 74.6468 16.4112C72.7535 16.4112 71.2468 16.9712 70.1268 18.0912C69.0068 19.1845 68.4468 20.8245 68.4468 23.0112V33.3712H63.4468ZM90.0437 33.6512C88.2571 33.6512 86.5371 33.4245 84.8837 32.9712C83.2571 32.4912 81.9637 31.9179 81.0037 31.2512L82.9237 27.4512C83.8837 28.0645 85.0304 28.5712 86.3637 28.9712C87.6971 29.3712 89.0304 29.5712 90.3637 29.5712C91.9371 29.5712 93.0704 29.3579 93.7637 28.9312C94.4837 28.5045 94.8437 27.9312 94.8437 27.2112C94.8437 26.6245 94.6037 26.1845 94.1237 25.8912C93.6437 25.5712 93.0171 25.3312 92.2437 25.1712C91.4704 25.0112 90.6037 24.8645 89.6437 24.7312C88.7104 24.5979 87.7637 24.4245 86.8037 24.2112C85.8704 23.9712 85.0171 23.6379 84.2437 23.2112C83.4704 22.7579 82.8437 22.1579 82.3637 21.4112C81.8837 20.6645 81.6437 19.6779 81.6437 18.4512C81.6437 17.0912 82.0304 15.9179 82.8037 14.9312C83.5771 13.9179 84.6571 13.1445 86.0437 12.6112C87.4571 12.0512 89.1237 11.7712 91.0437 11.7712C92.4837 11.7712 93.9371 11.9312 95.4037 12.2512C96.8704 12.5712 98.0837 13.0245 99.0437 13.6112L97.1237 17.4112C96.1104 16.7979 95.0837 16.3845 94.0437 16.1712C93.0304 15.9312 92.0171 15.8112 91.0037 15.8112C89.4837 15.8112 88.3504 16.0379 87.6037 16.4912C86.8837 16.9445 86.5237 17.5179 86.5237 18.2112C86.5237 18.8512 86.7637 19.3312 87.2437 19.6512C87.7237 19.9712 88.3504 20.2245 89.1237 20.4112C89.8971 20.5979 90.7504 20.7579 91.6837 20.8912C92.6437 20.9979 93.5904 21.1712 94.5237 21.4112C95.4571 21.6512 96.3104 21.9845 97.0837 22.4112C97.8837 22.8112 98.5237 23.3845 99.0037 24.1312C99.4837 24.8779 99.7237 25.8512 99.7237 27.0512C99.7237 28.3845 99.3237 29.5445 98.5237 30.5312C97.7504 31.5179 96.6437 32.2912 95.2037 32.8512C93.7637 33.3845 92.0437 33.6512 90.0437 33.6512ZM107.23 33.3712V12.0112H112.23V33.3712H107.23ZM109.75 8.49121C108.816 8.49121 108.043 8.19788 107.43 7.61121C106.843 7.02455 106.55 6.31788 106.55 5.49121C106.55 4.63788 106.843 3.93121 107.43 3.37121C108.043 2.78455 108.816 2.49122 109.75 2.49122C110.683 2.49122 111.443 2.77121 112.03 3.33121C112.643 3.86455 112.95 4.54455 112.95 5.37121C112.95 6.25121 112.656 6.99788 112.07 7.61121C111.483 8.19788 110.71 8.49121 109.75 8.49121ZM132.032 33.6512C129.659 33.6512 127.579 33.1845 125.792 32.2512C124.032 31.2912 122.659 29.9845 121.672 28.3312C120.712 26.6779 120.232 24.7979 120.232 22.6912C120.232 20.5579 120.699 18.6779 121.632 17.0512C122.592 15.3979 123.899 14.1045 125.552 13.1712C127.232 12.2379 129.139 11.7712 131.272 11.7712C133.352 11.7712 135.205 12.2245 136.832 13.1312C138.459 14.0379 139.739 15.3179 140.672 16.9712C141.605 18.6245 142.072 20.5712 142.072 22.8112C142.072 23.0245 142.059 23.2645 142.032 23.5312C142.032 23.7979 142.019 24.0512 141.992 24.2912H124.192V20.9712H139.352L137.392 22.0112C137.419 20.7845 137.165 19.7045 136.632 18.7712C136.099 17.8379 135.365 17.1045 134.432 16.5712C133.525 16.0379 132.472 15.7712 131.272 15.7712C130.045 15.7712 128.965 16.0379 128.032 16.5712C127.125 17.1045 126.405 17.8512 125.872 18.8112C125.365 19.7445 125.112 20.8512 125.112 22.1312V22.9312C125.112 24.2112 125.405 25.3445 125.992 26.3312C126.579 27.3179 127.405 28.0779 128.472 28.6112C129.539 29.1445 130.765 29.4112 132.152 29.4112C133.352 29.4112 134.432 29.2245 135.392 28.8512C136.352 28.4779 137.205 27.8912 137.952 27.0912L140.632 30.1712C139.672 31.2912 138.459 32.1579 136.992 32.7712C135.552 33.3579 133.899 33.6512 132.032 33.6512ZM16.6372 70.7712C12.7972 70.7712 9.78383 69.6912 7.59716 67.5312C5.43716 65.3712 4.35716 62.2512 4.35716 58.1712V42.3712H9.55716V57.9712C9.55716 60.8512 10.1705 62.9445 11.3972 64.2512C12.6505 65.5579 14.4105 66.2112 16.6772 66.2112C18.9438 66.2112 20.6905 65.5579 21.9172 64.2512C23.1438 62.9445 23.7572 60.8512 23.7572 57.9712V42.3712H28.8772V58.1712C28.8772 62.2512 27.7838 65.3712 25.5972 67.5312C23.4372 69.6912 20.4505 70.7712 16.6372 70.7712ZM47.7997 48.7712C49.5063 48.7712 51.0263 49.1045 52.3597 49.7712C53.7197 50.4379 54.7863 51.4645 55.5597 52.8512C56.333 54.2112 56.7197 55.9712 56.7197 58.1312V70.3712H51.7197V58.7712C51.7197 56.8779 51.2663 55.4645 50.3597 54.5312C49.4797 53.5979 48.2397 53.1312 46.6397 53.1312C45.4663 53.1312 44.4263 53.3712 43.5197 53.8512C42.613 54.3312 41.9063 55.0512 41.3997 56.0112C40.9197 56.9445 40.6797 58.1312 40.6797 59.5712V70.3712H35.6797V49.0112H40.4397V54.7712L39.5997 53.0112C40.3463 51.6512 41.4263 50.6112 42.8397 49.8912C44.2797 49.1445 45.933 48.7712 47.7997 48.7712ZM63.0625 70.3712V49.0112H68.0625V70.3712H63.0625ZM65.5825 45.4912C64.6491 45.4912 63.8758 45.1979 63.2625 44.6112C62.6758 44.0245 62.3825 43.3179 62.3825 42.4912C62.3825 41.6379 62.6758 40.9312 63.2625 40.3712C63.8758 39.7845 64.6491 39.4912 65.5825 39.4912C66.5158 39.4912 67.2758 39.7712 67.8625 40.3312C68.4758 40.8645 68.7825 41.5445 68.7825 42.3712C68.7825 43.2512 68.4891 43.9979 67.9025 44.6112C67.3158 45.1979 66.5425 45.4912 65.5825 45.4912ZM80.305 70.3712L71.145 49.0112H76.345L84.225 67.8512H81.665L89.825 49.0112H94.625L85.465 70.3712H80.305ZM107.204 70.6512C104.831 70.6512 102.751 70.1845 100.964 69.2512C99.204 68.2912 97.8307 66.9845 96.844 65.3312C95.884 63.6779 95.404 61.7979 95.404 59.6912C95.404 57.5579 95.8707 55.6779 96.804 54.0512C97.764 52.3979 99.0707 51.1045 100.724 50.1712C102.404 49.2379 104.311 48.7712 106.444 48.7712C108.524 48.7712 110.377 49.2245 112.004 50.1312C113.631 51.0379 114.911 52.3179 115.844 53.9712C116.777 55.6245 117.244 57.5712 117.244 59.8112C117.244 60.0245 117.231 60.2645 117.204 60.5312C117.204 60.7979 117.191 61.0512 117.164 61.2912H99.364V57.9712H114.524L112.564 59.0112C112.591 57.7845 112.337 56.7045 111.804 55.7712C111.271 54.8379 110.537 54.1045 109.604 53.5712C108.697 53.0379 107.644 52.7712 106.444 52.7712C105.217 52.7712 104.137 53.0379 103.204 53.5712C102.297 54.1045 101.577 54.8512 101.044 55.8112C100.537 56.7445 100.284 57.8512 100.284 59.1312V59.9312C100.284 61.2112 100.577 62.3445 101.164 63.3312C101.751 64.3179 102.577 65.0779 103.644 65.6112C104.711 66.1445 105.937 66.4112 107.324 66.4112C108.524 66.4112 109.604 66.2245 110.564 65.8512C111.524 65.4779 112.377 64.8912 113.124 64.0912L115.804 67.1712C114.844 68.2912 113.631 69.1579 112.164 69.7712C110.724 70.3579 109.071 70.6512 107.204 70.6512ZM122.047 70.3712V49.0112H126.807V54.8912L126.247 53.1712C126.887 51.7312 127.887 50.6379 129.247 49.8912C130.634 49.1445 132.354 48.7712 134.407 48.7712V53.5312C134.194 53.4779 133.994 53.4512 133.807 53.4512C133.62 53.4245 133.434 53.4112 133.247 53.4112C131.354 53.4112 129.847 53.9712 128.727 55.0912C127.607 56.1845 127.047 57.8245 127.047 60.0112V70.3712H122.047ZM145.444 70.6512C143.657 70.6512 141.937 70.4245 140.284 69.9712C138.657 69.4912 137.364 68.9179 136.404 68.2512L138.324 64.4512C139.284 65.0645 140.43 65.5712 141.764 65.9712C143.097 66.3712 144.43 66.5712 145.764 66.5712C147.337 66.5712 148.47 66.3579 149.164 65.9312C149.884 65.5045 150.244 64.9312 150.244 64.2112C150.244 63.6245 150.004 63.1845 149.524 62.8912C149.044 62.5712 148.417 62.3312 147.644 62.1712C146.87 62.0112 146.004 61.8645 145.044 61.7312C144.11 61.5979 143.164 61.4245 142.204 61.2112C141.27 60.9712 140.417 60.6379 139.644 60.2112C138.87 59.7579 138.244 59.1579 137.764 58.4112C137.284 57.6645 137.044 56.6779 137.044 55.4512C137.044 54.0912 137.43 52.9179 138.204 51.9312C138.977 50.9179 140.057 50.1445 141.444 49.6112C142.857 49.0512 144.524 48.7712 146.444 48.7712C147.884 48.7712 149.337 48.9312 150.804 49.2512C152.27 49.5712 153.484 50.0245 154.444 50.6112L152.524 54.4112C151.51 53.7979 150.484 53.3845 149.444 53.1712C148.43 52.9312 147.417 52.8112 146.404 52.8112C144.884 52.8112 143.75 53.0379 143.004 53.4912C142.284 53.9445 141.924 54.5179 141.924 55.2112C141.924 55.8512 142.164 56.3312 142.644 56.6512C143.124 56.9712 143.75 57.2245 144.524 57.4112C145.297 57.5979 146.15 57.7579 147.084 57.8912C148.044 57.9979 148.99 58.1712 149.924 58.4112C150.857 58.6512 151.71 58.9845 152.484 59.4112C153.284 59.8112 153.924 60.3845 154.404 61.1312C154.884 61.8779 155.124 62.8512 155.124 64.0512C155.124 65.3845 154.724 66.5445 153.924 67.5312C153.15 68.5179 152.044 69.2912 150.604 69.8512C149.164 70.3845 147.444 70.6512 145.444 70.6512ZM159.43 70.3712V49.0112H164.43V70.3712H159.43ZM161.95 45.4912C161.016 45.4912 160.243 45.1979 159.63 44.6112C159.043 44.0245 158.75 43.3179 158.75 42.4912C158.75 41.6379 159.043 40.9312 159.63 40.3712C160.243 39.7845 161.016 39.4912 161.95 39.4912C162.883 39.4912 163.643 39.7712 164.23 40.3312C164.843 40.8645 165.15 41.5445 165.15 42.3712C165.15 43.2512 164.856 43.9979 164.27 44.6112C163.683 45.1979 162.91 45.4912 161.95 45.4912ZM179.032 70.6512C176.685 70.6512 174.872 70.0512 173.592 68.8512C172.312 67.6245 171.672 65.8245 171.672 63.4512V44.2912H176.672V63.3312C176.672 64.3445 176.925 65.1312 177.432 65.6912C177.965 66.2512 178.699 66.5312 179.632 66.5312C180.752 66.5312 181.685 66.2379 182.432 65.6512L183.832 69.2112C183.245 69.6912 182.525 70.0512 181.672 70.2912C180.819 70.5312 179.939 70.6512 179.032 70.6512ZM168.152 53.1712V49.1712H182.392V53.1712H168.152ZM189.315 78.4112C188.275 78.4112 187.235 78.2379 186.195 77.8912C185.155 77.5445 184.288 77.0645 183.595 76.4512L185.595 72.7712C186.101 73.2245 186.675 73.5845 187.315 73.8512C187.955 74.1179 188.608 74.2512 189.275 74.2512C190.181 74.2512 190.915 74.0245 191.475 73.5712C192.035 73.1179 192.555 72.3579 193.035 71.2912L194.275 68.4912L194.675 67.8912L202.755 49.0112H207.555L197.555 72.0912C196.888 73.6912 196.141 74.9579 195.315 75.8912C194.515 76.8245 193.608 77.4779 192.595 77.8512C191.608 78.2245 190.515 78.4112 189.315 78.4112ZM193.715 71.1312L184.075 49.0112H189.275L197.115 67.4512L193.715 71.1312Z" fill="black"/>
<path d="M179.565 4.76868L173.287 33.3712" stroke="#7B82F6" stroke-width="5" stroke-linejoin="round"/>
<path d="M167.008 10.4893L160.73 18.498L167.008 26.5067" stroke="#7B82F6" stroke-width="5" stroke-linejoin="round"/>
<path d="M186.741 10.4893L193.019 18.498L186.741 26.5067" stroke="#7B82F6" stroke-width="5" stroke-linejoin="round"/>
</svg>
