<svg width="314" height="124" viewBox="0 0 314 124" fill="none" xmlns="http://www.w3.org/2000/svg">
<path d="M13.44 41.44L12.992 31.584L36.48 7.2H45.824L26.304 27.936L21.696 32.992L13.44 41.44ZM6.016 52V7.2H14.336V52H6.016ZM37.248 52L20.096 31.584L25.6 25.504L46.976 52H37.248ZM70.259 52V45.088L69.811 43.616V31.52C69.811 29.1733 69.107 27.36 67.699 26.08C66.291 24.7573 64.1577 24.096 61.299 24.096C59.379 24.096 57.4803 24.3947 55.603 24.992C53.7683 25.5893 52.211 26.4213 50.931 27.488L47.795 21.664C49.6297 20.256 51.8057 19.2107 54.323 18.528C56.883 17.8027 59.5283 17.44 62.259 17.44C67.2083 17.44 71.027 18.6347 73.715 21.024C76.4457 23.3707 77.811 27.0187 77.811 31.968V52H70.259ZM59.507 52.448C56.947 52.448 54.707 52.0213 52.787 51.168C50.867 50.272 49.3737 49.056 48.307 47.52C47.283 45.9413 46.771 44.1707 46.771 42.208C46.771 40.288 47.219 38.56 48.115 37.024C49.0537 35.488 50.5683 34.272 52.659 33.376C54.7497 32.48 57.523 32.032 60.979 32.032H70.899V37.344H61.555C58.8243 37.344 56.9897 37.792 56.051 38.688C55.1123 39.5413 54.643 40.608 54.643 41.888C54.643 43.3387 55.219 44.4907 56.371 45.344C57.523 46.1973 59.123 46.624 61.171 46.624C63.1337 46.624 64.883 46.176 66.419 45.28C67.9977 44.384 69.1283 43.0613 69.811 41.312L71.155 46.112C70.387 48.1173 69.0003 49.6747 66.995 50.784C65.0323 51.8933 62.5363 52.448 59.507 52.448ZM86.158 52V17.824H93.774V27.232L92.878 24.48C93.902 22.176 95.502 20.4267 97.678 19.232C99.8967 18.0373 102.649 17.44 105.934 17.44V25.056C105.593 24.9707 105.273 24.928 104.974 24.928C104.675 24.8853 104.377 24.864 104.078 24.864C101.049 24.864 98.638 25.76 96.846 27.552C95.054 29.3013 94.158 31.9253 94.158 35.424V52H86.158ZM121.673 52.448C118.814 52.448 116.062 52.0853 113.417 51.36C110.814 50.592 108.745 49.6747 107.209 48.608L110.281 42.528C111.817 43.5093 113.652 44.32 115.785 44.96C117.918 45.6 120.052 45.92 122.185 45.92C124.702 45.92 126.516 45.5787 127.625 44.896C128.777 44.2133 129.353 43.296 129.353 42.144C129.353 41.2053 128.969 40.5013 128.201 40.032C127.433 39.52 126.43 39.136 125.193 38.88C123.956 38.624 122.569 38.3893 121.033 38.176C119.54 37.9627 118.025 37.6853 116.489 37.344C114.996 36.96 113.63 36.4267 112.393 35.744C111.156 35.0187 110.153 34.0587 109.385 32.864C108.617 31.6693 108.233 30.0907 108.233 28.128C108.233 25.952 108.852 24.0747 110.089 22.496C111.326 20.8747 113.054 19.6373 115.273 18.784C117.534 17.888 120.201 17.44 123.273 17.44C125.577 17.44 127.902 17.696 130.249 18.208C132.596 18.72 134.537 19.4453 136.073 20.384L133.001 26.464C131.38 25.4827 129.737 24.8213 128.073 24.48C126.452 24.096 124.83 23.904 123.209 23.904C120.777 23.904 118.964 24.2667 117.769 24.992C116.617 25.7173 116.041 26.6347 116.041 27.744C116.041 28.768 116.425 29.536 117.193 30.048C117.961 30.56 118.964 30.9653 120.201 31.264C121.438 31.5627 122.804 31.8187 124.297 32.032C125.833 32.2027 127.348 32.48 128.841 32.864C130.334 33.248 131.7 33.7813 132.937 34.464C134.217 35.104 135.241 36.0213 136.009 37.216C136.777 38.4107 137.161 39.968 137.161 41.888C137.161 44.0213 136.521 45.8773 135.241 47.456C134.004 49.0347 132.233 50.272 129.929 51.168C127.625 52.0213 124.873 52.448 121.673 52.448ZM142.131 52V17.824H150.131V52H142.131ZM146.163 12.192C144.669 12.192 143.432 11.7227 142.451 10.784C141.512 9.84533 141.043 8.71467 141.043 7.392C141.043 6.02666 141.512 4.896 142.451 4C143.432 3.06133 144.669 2.592 146.163 2.592C147.656 2.592 148.872 3.04 149.811 3.936C150.792 4.78933 151.283 5.87733 151.283 7.2C151.283 8.608 150.813 9.80266 149.875 10.784C148.936 11.7227 147.699 12.192 146.163 12.192ZM174.774 52.448C170.977 52.448 167.649 51.7013 164.79 50.208C161.974 48.672 159.777 46.5813 158.198 43.936C156.662 41.2907 155.894 38.2827 155.894 34.912C155.894 31.4987 156.641 28.4907 158.134 25.888C159.67 23.2427 161.761 21.1733 164.406 19.68C167.094 18.1867 170.145 17.44 173.558 17.44C176.886 17.44 179.852 18.1653 182.454 19.616C185.057 21.0667 187.105 23.1147 188.598 25.76C190.092 28.4053 190.838 31.52 190.838 35.104C190.838 35.4453 190.817 35.8293 190.774 36.256C190.774 36.6827 190.753 37.088 190.71 37.472H162.23V32.16H186.486L183.35 33.824C183.393 31.8613 182.988 30.1333 182.134 28.64C181.281 27.1467 180.108 25.9733 178.614 25.12C177.164 24.2667 175.478 23.84 173.558 23.84C171.596 23.84 169.868 24.2667 168.374 25.12C166.924 25.9733 165.772 27.168 164.918 28.704C164.108 30.1973 163.702 31.968 163.702 34.016V35.296C163.702 37.344 164.172 39.1573 165.11 40.736C166.049 42.3147 167.372 43.5307 169.078 44.384C170.785 45.2373 172.748 45.664 174.966 45.664C176.886 45.664 178.614 45.3653 180.15 44.768C181.686 44.1707 183.052 43.232 184.246 41.952L188.534 46.88C186.998 48.672 185.057 50.0587 182.71 51.04C180.406 51.9787 177.761 52.448 174.774 52.448ZM25.28 111.64C19.136 111.64 14.3147 109.912 10.816 106.456C7.36 103 5.632 98.008 5.632 91.48V66.2H13.952V91.16C13.952 95.768 14.9333 99.1173 16.896 101.208C18.9013 103.299 21.7173 104.344 25.344 104.344C28.9707 104.344 31.7653 103.299 33.728 101.208C35.6907 99.1173 36.672 95.768 36.672 91.16V66.2H44.864V91.48C44.864 98.008 43.1147 103 39.616 106.456C36.16 109.912 31.3813 111.64 25.28 111.64ZM73.22 76.44C75.9507 76.44 78.3827 76.9733 80.516 78.04C82.692 79.1067 84.3987 80.7493 85.636 82.968C86.8733 85.144 87.492 87.96 87.492 91.416V111H79.492V92.44C79.492 89.4107 78.7667 87.1493 77.316 85.656C75.908 84.1627 73.924 83.416 71.364 83.416C69.4867 83.416 67.8227 83.8 66.372 84.568C64.9213 85.336 63.7907 86.488 62.98 88.024C62.212 89.5173 61.828 91.416 61.828 93.72V111H53.828V76.824H61.444V86.04L60.1 83.224C61.2947 81.048 63.0227 79.384 65.284 78.232C67.588 77.0373 70.2333 76.44 73.22 76.44ZM95.7205 111V76.824H103.721V111H95.7205ZM99.7525 71.192C98.2592 71.192 97.0218 70.7227 96.0405 69.784C95.1018 68.8453 94.6325 67.7147 94.6325 66.392C94.6325 65.0267 95.1018 63.896 96.0405 63C97.0218 62.0613 98.2592 61.592 99.7525 61.592C101.246 61.592 102.462 62.04 103.401 62.936C104.382 63.7893 104.873 64.8773 104.873 66.2C104.873 67.608 104.403 68.8027 103.465 69.784C102.526 70.7227 101.289 71.192 99.7525 71.192ZM121.388 111L106.732 76.824H115.052L127.66 106.968H123.564L136.62 76.824H144.3L129.644 111H121.388ZM162.507 111.448C158.71 111.448 155.382 110.701 152.523 109.208C149.707 107.672 147.51 105.581 145.931 102.936C144.395 100.291 143.627 97.2827 143.627 93.912C143.627 90.4987 144.374 87.4907 145.867 84.888C147.403 82.2427 149.494 80.1733 152.139 78.68C154.827 77.1867 157.878 76.44 161.291 76.44C164.619 76.44 167.584 77.1653 170.187 78.616C172.79 80.0667 174.838 82.1147 176.331 84.76C177.824 87.4053 178.571 90.52 178.571 94.104C178.571 94.4453 178.55 94.8293 178.507 95.256C178.507 95.6827 178.486 96.088 178.443 96.472H149.963V91.16H174.219L171.083 92.824C171.126 90.8613 170.72 89.1333 169.867 87.64C169.014 86.1467 167.84 84.9733 166.347 84.12C164.896 83.2667 163.211 82.84 161.291 82.84C159.328 82.84 157.6 83.2667 156.107 84.12C154.656 84.9733 153.504 86.168 152.651 87.704C151.84 89.1973 151.435 90.968 151.435 93.016V94.296C151.435 96.344 151.904 98.1573 152.843 99.736C153.782 101.315 155.104 102.531 156.811 103.384C158.518 104.237 160.48 104.664 162.699 104.664C164.619 104.664 166.347 104.365 167.883 103.768C169.419 103.171 170.784 102.232 171.979 100.952L176.267 105.88C174.731 107.672 172.79 109.059 170.443 110.04C168.139 110.979 165.494 111.448 162.507 111.448ZM184.335 111V76.824H191.951V86.232L191.055 83.48C192.079 81.176 193.679 79.4267 195.855 78.232C198.074 77.0373 200.826 76.44 204.111 76.44V84.056C203.77 83.9707 203.45 83.928 203.151 83.928C202.853 83.8853 202.554 83.864 202.255 83.864C199.226 83.864 196.815 84.76 195.023 86.552C193.231 88.3013 192.335 90.9253 192.335 94.424V111H184.335ZM219.85 111.448C216.992 111.448 214.24 111.085 211.594 110.36C208.992 109.592 206.922 108.675 205.386 107.608L208.458 101.528C209.994 102.509 211.829 103.32 213.962 103.96C216.096 104.6 218.229 104.92 220.362 104.92C222.88 104.92 224.693 104.579 225.802 103.896C226.954 103.213 227.53 102.296 227.53 101.144C227.53 100.205 227.146 99.5013 226.378 99.032C225.61 98.52 224.608 98.136 223.37 97.88C222.133 97.624 220.746 97.3893 219.21 97.176C217.717 96.9627 216.202 96.6853 214.666 96.344C213.173 95.96 211.808 95.4267 210.57 94.744C209.333 94.0187 208.33 93.0587 207.562 91.864C206.794 90.6693 206.41 89.0907 206.41 87.128C206.41 84.952 207.029 83.0747 208.266 81.496C209.504 79.8747 211.232 78.6373 213.45 77.784C215.712 76.888 218.378 76.44 221.45 76.44C223.754 76.44 226.08 76.696 228.426 77.208C230.773 77.72 232.714 78.4453 234.25 79.384L231.178 85.464C229.557 84.4827 227.914 83.8213 226.25 83.48C224.629 83.096 223.008 82.904 221.386 82.904C218.954 82.904 217.141 83.2667 215.946 83.992C214.794 84.7173 214.218 85.6347 214.218 86.744C214.218 87.768 214.602 88.536 215.37 89.048C216.138 89.56 217.141 89.9653 218.378 90.264C219.616 90.5627 220.981 90.8187 222.474 91.032C224.01 91.2027 225.525 91.48 227.018 91.864C228.512 92.248 229.877 92.7813 231.114 93.464C232.394 94.104 233.418 95.0213 234.186 96.216C234.954 97.4107 235.338 98.968 235.338 100.888C235.338 103.021 234.698 104.877 233.418 106.456C232.181 108.035 230.41 109.272 228.106 110.168C225.802 111.021 223.05 111.448 219.85 111.448ZM240.308 111V76.824H248.308V111H240.308ZM244.34 71.192C242.847 71.192 241.609 70.7227 240.628 69.784C239.689 68.8453 239.22 67.7147 239.22 66.392C239.22 65.0267 239.689 63.896 240.628 63C241.609 62.0613 242.847 61.592 244.34 61.592C245.833 61.592 247.049 62.04 247.988 62.936C248.969 63.7893 249.46 64.8773 249.46 66.2C249.46 67.608 248.991 68.8027 248.052 69.784C247.113 70.7227 245.876 71.192 244.34 71.192ZM269.752 111.448C265.997 111.448 263.096 110.488 261.048 108.568C259 106.605 257.976 103.725 257.976 99.928V69.272H265.976V99.736C265.976 101.357 266.381 102.616 267.192 103.512C268.045 104.408 269.219 104.856 270.712 104.856C272.504 104.856 273.997 104.387 275.192 103.448L277.432 109.144C276.493 109.912 275.341 110.488 273.976 110.872C272.611 111.256 271.203 111.448 269.752 111.448ZM252.344 83.48V77.08H275.128V83.48H252.344ZM284.284 123.864C282.62 123.864 280.956 123.587 279.292 123.032C277.628 122.477 276.241 121.709 275.132 120.728L278.332 114.84C279.143 115.565 280.06 116.141 281.084 116.568C282.108 116.995 283.153 117.208 284.22 117.208C285.671 117.208 286.844 116.845 287.74 116.12C288.636 115.395 289.468 114.179 290.236 112.472L292.22 107.992L292.86 107.032L305.788 76.824H313.468L297.468 113.752C296.401 116.312 295.207 118.339 293.884 119.832C292.604 121.325 291.153 122.371 289.532 122.968C287.953 123.565 286.204 123.864 284.284 123.864ZM291.324 112.216L275.9 76.824H284.22L296.764 106.328L291.324 112.216Z" fill="white"/>
<path d="M243.749 6.42513L198.918 23.1103L244.15 38.6759L281.51 24.7717L281.72 41.6649L289.225 41.5716L288.981 21.9908L243.749 6.42513ZM214.054 33.2682L214.183 43.6566C221.099 49.1668 232.044 52.6505 244.321 52.4979C256.598 52.3453 267.454 48.5906 274.231 42.9102L274.1 32.5236L244.213 43.6469L214.054 33.2682Z" fill="white"/>
</svg>
