<svg width="208" height="79" viewBox="0 0 208 79" fill="none" xmlns="http://www.w3.org/2000/svg">
<path d="M9.23716 26.5759L8.95716 20.4159L23.6372 5.1759H29.4772L17.2772 18.1359L14.3972 21.2959L9.23716 26.5759ZM4.59716 33.1759V5.1759H9.79716V33.1759H4.59716ZM24.1172 33.1759L13.3972 20.4159L16.8372 16.6159L30.1972 33.1759H24.1172ZM49.11 33.1759V28.8559L48.83 27.9359V20.3759C48.83 18.9092 48.39 17.7759 47.51 16.9759C46.63 16.1492 45.2966 15.7359 43.51 15.7359C42.31 15.7359 41.1233 15.9226 39.95 16.2959C38.8033 16.6692 37.83 17.1892 37.03 17.8559L35.07 14.2159C36.2166 13.3359 37.5766 12.6826 39.15 12.2559C40.75 11.8026 42.4033 11.5759 44.11 11.5759C47.2033 11.5759 49.59 12.3226 51.27 13.8159C52.9766 15.2826 53.83 17.5626 53.83 20.6559V33.1759H49.11ZM42.39 33.4559C40.79 33.4559 39.39 33.1892 38.19 32.6559C36.99 32.0959 36.0566 31.3359 35.39 30.3759C34.75 29.3892 34.43 28.2826 34.43 27.0559C34.43 25.8559 34.71 24.7759 35.27 23.8159C35.8566 22.8559 36.8033 22.0959 38.11 21.5359C39.4166 20.9759 41.15 20.6959 43.31 20.6959H49.51V24.0159H43.67C41.9633 24.0159 40.8166 24.2959 40.23 24.8559C39.6433 25.3892 39.35 26.0559 39.35 26.8559C39.35 27.7626 39.71 28.4826 40.43 29.0159C41.15 29.5492 42.15 29.8159 43.43 29.8159C44.6566 29.8159 45.75 29.5359 46.71 28.9759C47.6966 28.4159 48.4033 27.5892 48.83 26.4959L49.67 29.4959C49.19 30.7492 48.3233 31.7226 47.07 32.4159C45.8433 33.1092 44.2833 33.4559 42.39 33.4559ZM63.4468 33.1759V11.8159H68.2068V17.6959L67.6468 15.9759C68.2868 14.5359 69.2868 13.4426 70.6468 12.6959C72.0335 11.9492 73.7535 11.5759 75.8068 11.5759V16.3359C75.5935 16.2826 75.3935 16.2559 75.2068 16.2559C75.0202 16.2292 74.8335 16.2159 74.6468 16.2159C72.7535 16.2159 71.2468 16.7759 70.1268 17.8959C69.0068 18.9892 68.4468 20.6292 68.4468 22.8159V33.1759H63.4468ZM90.0437 33.4559C88.2571 33.4559 86.5371 33.2292 84.8837 32.7759C83.2571 32.2959 81.9637 31.7226 81.0037 31.0559L82.9237 27.2559C83.8837 27.8692 85.0304 28.3759 86.3637 28.7759C87.6971 29.1759 89.0304 29.3759 90.3637 29.3759C91.9371 29.3759 93.0704 29.1626 93.7637 28.7359C94.4837 28.3092 94.8437 27.7359 94.8437 27.0159C94.8437 26.4292 94.6037 25.9892 94.1237 25.6959C93.6437 25.3759 93.0171 25.1359 92.2437 24.9759C91.4704 24.8159 90.6037 24.6692 89.6437 24.5359C88.7104 24.4026 87.7637 24.2292 86.8037 24.0159C85.8704 23.7759 85.0171 23.4426 84.2437 23.0159C83.4704 22.5626 82.8437 21.9626 82.3637 21.2159C81.8837 20.4692 81.6437 19.4826 81.6437 18.2559C81.6437 16.8959 82.0304 15.7226 82.8037 14.7359C83.5771 13.7226 84.6571 12.9492 86.0437 12.4159C87.4571 11.8559 89.1237 11.5759 91.0437 11.5759C92.4837 11.5759 93.9371 11.7359 95.4037 12.0559C96.8704 12.3759 98.0837 12.8292 99.0437 13.4159L97.1237 17.2159C96.1104 16.6026 95.0837 16.1892 94.0437 15.9759C93.0304 15.7359 92.0171 15.6159 91.0037 15.6159C89.4837 15.6159 88.3504 15.8426 87.6037 16.2959C86.8837 16.7492 86.5237 17.3226 86.5237 18.0159C86.5237 18.6559 86.7637 19.1359 87.2437 19.4559C87.7237 19.7759 88.3504 20.0292 89.1237 20.2159C89.8971 20.4026 90.7504 20.5626 91.6837 20.6959C92.6437 20.8026 93.5904 20.9759 94.5237 21.2159C95.4571 21.4559 96.3104 21.7892 97.0837 22.2159C97.8837 22.6159 98.5237 23.1892 99.0037 23.9359C99.4837 24.6826 99.7237 25.6559 99.7237 26.8559C99.7237 28.1892 99.3237 29.3492 98.5237 30.3359C97.7504 31.3226 96.6437 32.0959 95.2037 32.6559C93.7637 33.1892 92.0437 33.4559 90.0437 33.4559ZM107.23 33.1759V11.8159H112.23V33.1759H107.23ZM109.75 8.2959C108.816 8.2959 108.043 8.00257 107.43 7.4159C106.843 6.82924 106.55 6.12257 106.55 5.2959C106.55 4.44257 106.843 3.7359 107.43 3.1759C108.043 2.58924 108.816 2.2959 109.75 2.2959C110.683 2.2959 111.443 2.5759 112.03 3.1359C112.643 3.66924 112.95 4.34924 112.95 5.1759C112.95 6.0559 112.656 6.80257 112.07 7.4159C111.483 8.00257 110.71 8.2959 109.75 8.2959ZM132.032 33.4559C129.659 33.4559 127.579 32.9892 125.792 32.0559C124.032 31.0959 122.659 29.7892 121.672 28.1359C120.712 26.4826 120.232 24.6026 120.232 22.4959C120.232 20.3626 120.699 18.4826 121.632 16.8559C122.592 15.2026 123.899 13.9092 125.552 12.9759C127.232 12.0426 129.139 11.5759 131.272 11.5759C133.352 11.5759 135.205 12.0292 136.832 12.9359C138.459 13.8426 139.739 15.1226 140.672 16.7759C141.605 18.4292 142.072 20.3759 142.072 22.6159C142.072 22.8292 142.059 23.0692 142.032 23.3359C142.032 23.6026 142.019 23.8559 141.992 24.0959H124.192V20.7759H139.352L137.392 21.8159C137.419 20.5892 137.165 19.5092 136.632 18.5759C136.099 17.6426 135.365 16.9092 134.432 16.3759C133.525 15.8426 132.472 15.5759 131.272 15.5759C130.045 15.5759 128.965 15.8426 128.032 16.3759C127.125 16.9092 126.405 17.6559 125.872 18.6159C125.365 19.5492 125.112 20.6559 125.112 21.9359V22.7359C125.112 24.0159 125.405 25.1492 125.992 26.1359C126.579 27.1226 127.405 27.8826 128.472 28.4159C129.539 28.9492 130.765 29.2159 132.152 29.2159C133.352 29.2159 134.432 29.0292 135.392 28.6559C136.352 28.2826 137.205 27.6959 137.952 26.8959L140.632 29.9759C139.672 31.0959 138.459 31.9626 136.992 32.5759C135.552 33.1626 133.899 33.4559 132.032 33.4559ZM16.6372 70.5759C12.7972 70.5759 9.78383 69.4959 7.59716 67.3359C5.43716 65.1759 4.35716 62.0559 4.35716 57.9759V42.1759H9.55716V57.7759C9.55716 60.6559 10.1705 62.7492 11.3972 64.0559C12.6505 65.3626 14.4105 66.0159 16.6772 66.0159C18.9438 66.0159 20.6905 65.3626 21.9172 64.0559C23.1438 62.7492 23.7572 60.6559 23.7572 57.7759V42.1759H28.8772V57.9759C28.8772 62.0559 27.7838 65.1759 25.5972 67.3359C23.4372 69.4959 20.4505 70.5759 16.6372 70.5759ZM47.7997 48.5759C49.5063 48.5759 51.0263 48.9092 52.3597 49.5759C53.7197 50.2426 54.7863 51.2692 55.5597 52.6559C56.333 54.0159 56.7197 55.7759 56.7197 57.9359V70.1759H51.7197V58.5759C51.7197 56.6826 51.2663 55.2692 50.3597 54.3359C49.4797 53.4026 48.2397 52.9359 46.6397 52.9359C45.4663 52.9359 44.4263 53.1759 43.5197 53.6559C42.613 54.1359 41.9063 54.8559 41.3997 55.8159C40.9197 56.7492 40.6797 57.9359 40.6797 59.3759V70.1759H35.6797V48.8159H40.4397V54.5759L39.5997 52.8159C40.3463 51.4559 41.4263 50.4159 42.8397 49.6959C44.2797 48.9492 45.933 48.5759 47.7997 48.5759ZM63.0625 70.1759V48.8159H68.0625V70.1759H63.0625ZM65.5825 45.2959C64.6491 45.2959 63.8758 45.0026 63.2625 44.4159C62.6758 43.8292 62.3825 43.1226 62.3825 42.2959C62.3825 41.4426 62.6758 40.7359 63.2625 40.1759C63.8758 39.5892 64.6491 39.2959 65.5825 39.2959C66.5158 39.2959 67.2758 39.5759 67.8625 40.1359C68.4758 40.6692 68.7825 41.3492 68.7825 42.1759C68.7825 43.0559 68.4891 43.8026 67.9025 44.4159C67.3158 45.0026 66.5425 45.2959 65.5825 45.2959ZM80.305 70.1759L71.145 48.8159H76.345L84.225 67.6559H81.665L89.825 48.8159H94.625L85.465 70.1759H80.305ZM107.204 70.4559C104.831 70.4559 102.751 69.9892 100.964 69.0559C99.204 68.0959 97.8307 66.7892 96.844 65.1359C95.884 63.4826 95.404 61.6026 95.404 59.4959C95.404 57.3626 95.8707 55.4826 96.804 53.8559C97.764 52.2026 99.0707 50.9092 100.724 49.9759C102.404 49.0426 104.311 48.5759 106.444 48.5759C108.524 48.5759 110.377 49.0292 112.004 49.9359C113.631 50.8426 114.911 52.1226 115.844 53.7759C116.777 55.4292 117.244 57.3759 117.244 59.6159C117.244 59.8292 117.231 60.0692 117.204 60.3359C117.204 60.6026 117.191 60.8559 117.164 61.0959H99.364V57.7759H114.524L112.564 58.8159C112.591 57.5892 112.337 56.5092 111.804 55.5759C111.271 54.6426 110.537 53.9092 109.604 53.3759C108.697 52.8426 107.644 52.5759 106.444 52.5759C105.217 52.5759 104.137 52.8426 103.204 53.3759C102.297 53.9092 101.577 54.6559 101.044 55.6159C100.537 56.5492 100.284 57.6559 100.284 58.9359V59.7359C100.284 61.0159 100.577 62.1492 101.164 63.1359C101.751 64.1226 102.577 64.8826 103.644 65.4159C104.711 65.9492 105.937 66.2159 107.324 66.2159C108.524 66.2159 109.604 66.0292 110.564 65.6559C111.524 65.2826 112.377 64.6959 113.124 63.8959L115.804 66.9759C114.844 68.0959 113.631 68.9626 112.164 69.5759C110.724 70.1626 109.071 70.4559 107.204 70.4559ZM122.047 70.1759V48.8159H126.807V54.6959L126.247 52.9759C126.887 51.5359 127.887 50.4426 129.247 49.6959C130.634 48.9492 132.354 48.5759 134.407 48.5759V53.3359C134.194 53.2826 133.994 53.2559 133.807 53.2559C133.62 53.2292 133.434 53.2159 133.247 53.2159C131.354 53.2159 129.847 53.7759 128.727 54.8959C127.607 55.9892 127.047 57.6292 127.047 59.8159V70.1759H122.047ZM145.444 70.4559C143.657 70.4559 141.937 70.2292 140.284 69.7759C138.657 69.2959 137.364 68.7226 136.404 68.0559L138.324 64.2559C139.284 64.8692 140.43 65.3759 141.764 65.7759C143.097 66.1759 144.43 66.3759 145.764 66.3759C147.337 66.3759 148.47 66.1626 149.164 65.7359C149.884 65.3092 150.244 64.7359 150.244 64.0159C150.244 63.4292 150.004 62.9892 149.524 62.6959C149.044 62.3759 148.417 62.1359 147.644 61.9759C146.87 61.8159 146.004 61.6692 145.044 61.5359C144.11 61.4026 143.164 61.2292 142.204 61.0159C141.27 60.7759 140.417 60.4426 139.644 60.0159C138.87 59.5626 138.244 58.9626 137.764 58.2159C137.284 57.4692 137.044 56.4826 137.044 55.2559C137.044 53.8959 137.43 52.7226 138.204 51.7359C138.977 50.7226 140.057 49.9492 141.444 49.4159C142.857 48.8559 144.524 48.5759 146.444 48.5759C147.884 48.5759 149.337 48.7359 150.804 49.0559C152.27 49.3759 153.484 49.8292 154.444 50.4159L152.524 54.2159C151.51 53.6026 150.484 53.1892 149.444 52.9759C148.43 52.7359 147.417 52.6159 146.404 52.6159C144.884 52.6159 143.75 52.8426 143.004 53.2959C142.284 53.7492 141.924 54.3226 141.924 55.0159C141.924 55.6559 142.164 56.1359 142.644 56.4559C143.124 56.7759 143.75 57.0292 144.524 57.2159C145.297 57.4026 146.15 57.5626 147.084 57.6959C148.044 57.8026 148.99 57.9759 149.924 58.2159C150.857 58.4559 151.71 58.7892 152.484 59.2159C153.284 59.6159 153.924 60.1892 154.404 60.9359C154.884 61.6826 155.124 62.6559 155.124 63.8559C155.124 65.1892 154.724 66.3492 153.924 67.3359C153.15 68.3226 152.044 69.0959 150.604 69.6559C149.164 70.1892 147.444 70.4559 145.444 70.4559ZM159.43 70.1759V48.8159H164.43V70.1759H159.43ZM161.95 45.2959C161.016 45.2959 160.243 45.0026 159.63 44.4159C159.043 43.8292 158.75 43.1226 158.75 42.2959C158.75 41.4426 159.043 40.7359 159.63 40.1759C160.243 39.5892 161.016 39.2959 161.95 39.2959C162.883 39.2959 163.643 39.5759 164.23 40.1359C164.843 40.6692 165.15 41.3492 165.15 42.1759C165.15 43.0559 164.856 43.8026 164.27 44.4159C163.683 45.0026 162.91 45.2959 161.95 45.2959ZM179.032 70.4559C176.685 70.4559 174.872 69.8559 173.592 68.6559C172.312 67.4292 171.672 65.6292 171.672 63.2559V44.0959H176.672V63.1359C176.672 64.1492 176.925 64.9359 177.432 65.4959C177.965 66.0559 178.699 66.3359 179.632 66.3359C180.752 66.3359 181.685 66.0426 182.432 65.4559L183.832 69.0159C183.245 69.4959 182.525 69.8559 181.672 70.0959C180.819 70.3359 179.939 70.4559 179.032 70.4559ZM168.152 52.9759V48.9759H182.392V52.9759H168.152ZM189.315 78.2159C188.275 78.2159 187.235 78.0426 186.195 77.6959C185.155 77.3492 184.288 76.8692 183.595 76.2559L185.595 72.5759C186.101 73.0292 186.675 73.3892 187.315 73.6559C187.955 73.9226 188.608 74.0559 189.275 74.0559C190.181 74.0559 190.915 73.8292 191.475 73.3759C192.035 72.9226 192.555 72.1626 193.035 71.0959L194.275 68.2959L194.675 67.6959L202.755 48.8159H207.555L197.555 71.8959C196.888 73.4959 196.141 74.7626 195.315 75.6959C194.515 76.6292 193.608 77.2826 192.595 77.6559C191.608 78.0292 190.515 78.2159 189.315 78.2159ZM193.715 70.9359L184.075 48.8159H189.275L197.115 67.2559L193.715 70.9359Z" fill="white"/>
<path d="M179.565 4.57336L173.287 33.1759" stroke="#7B82F6" stroke-width="5" stroke-linejoin="round"/>
<path d="M167.008 10.2939L160.73 18.3026L167.008 26.3114" stroke="#7B82F6" stroke-width="5" stroke-linejoin="round"/>
<path d="M186.741 10.2939L193.019 18.3026L186.741 26.3114" stroke="#7B82F6" stroke-width="5" stroke-linejoin="round"/>
</svg>
