<svg width="208" height="79" viewBox="0 0 208 79" fill="none" xmlns="http://www.w3.org/2000/svg">
<path d="M9.36045 26.6452L9.08045 20.4852L23.7605 5.24518H29.6005L17.4004 18.2052L14.5204 21.3652L9.36045 26.6452ZM4.72045 33.2452V5.24518H9.92045V33.2452H4.72045ZM24.2404 33.2452L13.5204 20.4852L16.9604 16.6852L30.3205 33.2452H24.2404ZM46.0333 33.2452V28.9252L45.7533 28.0052V20.4452C45.7533 18.9785 45.3133 17.8452 44.4333 17.0452C43.5533 16.2185 42.2199 15.8052 40.4333 15.8052C39.2333 15.8052 38.0466 15.9918 36.8733 16.3652C35.7266 16.7385 34.7533 17.2585 33.9533 17.9252L31.9933 14.2852C33.1399 13.4052 34.4999 12.7518 36.0733 12.3252C37.6733 11.8718 39.3266 11.6452 41.0333 11.6452C44.1266 11.6452 46.5133 12.3918 48.1933 13.8852C49.8999 15.3518 50.7533 17.6318 50.7533 20.7252V33.2452H46.0333ZM39.3133 33.5252C37.7133 33.5252 36.3133 33.2585 35.1133 32.7252C33.9133 32.1652 32.9799 31.4052 32.3133 30.4452C31.6733 29.4585 31.3533 28.3518 31.3533 27.1252C31.3533 25.9252 31.6333 24.8452 32.1933 23.8852C32.7799 22.9252 33.7266 22.1652 35.0333 21.6052C36.3399 21.0452 38.0733 20.7652 40.2333 20.7652H46.4333V24.0852H40.5933C38.8866 24.0852 37.7399 24.3652 37.1533 24.9252C36.5666 25.4585 36.2733 26.1252 36.2733 26.9252C36.2733 27.8318 36.6333 28.5518 37.3533 29.0852C38.0733 29.6185 39.0733 29.8852 40.3533 29.8852C41.5799 29.8852 42.6733 29.6052 43.6333 29.0452C44.6199 28.4852 45.3266 27.6585 45.7533 26.5652L46.5933 29.5652C46.1133 30.8185 45.2466 31.7918 43.9933 32.4852C42.7666 33.1785 41.2066 33.5252 39.3133 33.5252ZM57.1701 33.2452V11.8852H61.9301V17.7652L61.3701 16.0452C62.0101 14.6052 63.0101 13.5118 64.3701 12.7652C65.7568 12.0185 67.4768 11.6452 69.5301 11.6452V16.4052C69.3168 16.3518 69.1168 16.3252 68.9301 16.3252C68.7435 16.2985 68.5568 16.2852 68.3701 16.2852C66.4768 16.2852 64.9701 16.8452 63.8501 17.9652C62.7301 19.0585 62.1701 20.6985 62.1701 22.8852V33.2452H57.1701ZM80.567 33.5252C78.7803 33.5252 77.0603 33.2985 75.407 32.8452C73.7803 32.3652 72.487 31.7918 71.527 31.1252L73.447 27.3252C74.407 27.9385 75.5537 28.4452 76.887 28.8452C78.2203 29.2452 79.5537 29.4452 80.887 29.4452C82.4603 29.4452 83.5937 29.2318 84.287 28.8052C85.007 28.3785 85.367 27.8052 85.367 27.0852C85.367 26.4985 85.127 26.0585 84.647 25.7652C84.167 25.4452 83.5403 25.2052 82.767 25.0452C81.9937 24.8852 81.127 24.7385 80.167 24.6052C79.2337 24.4718 78.287 24.2985 77.327 24.0852C76.3937 23.8452 75.5403 23.5118 74.767 23.0852C73.9937 22.6318 73.367 22.0318 72.887 21.2852C72.407 20.5385 72.167 19.5518 72.167 18.3252C72.167 16.9652 72.5537 15.7918 73.327 14.8052C74.1003 13.7918 75.1803 13.0185 76.567 12.4852C77.9803 11.9252 79.647 11.6452 81.567 11.6452C83.007 11.6452 84.4603 11.8052 85.927 12.1252C87.3937 12.4452 88.607 12.8985 89.567 13.4852L87.647 17.2852C86.6337 16.6718 85.607 16.2585 84.567 16.0452C83.5537 15.8052 82.5403 15.6852 81.527 15.6852C80.007 15.6852 78.8737 15.9118 78.127 16.3652C77.407 16.8185 77.047 17.3918 77.047 18.0852C77.047 18.7252 77.287 19.2052 77.767 19.5252C78.247 19.8452 78.8737 20.0985 79.647 20.2852C80.4203 20.4718 81.2737 20.6318 82.207 20.7652C83.167 20.8718 84.1137 21.0452 85.047 21.2852C85.9803 21.5252 86.8337 21.8585 87.607 22.2852C88.407 22.6852 89.047 23.2585 89.527 24.0052C90.007 24.7518 90.247 25.7252 90.247 26.9252C90.247 28.2585 89.847 29.4185 89.047 30.4052C88.2737 31.3918 87.167 32.1652 85.727 32.7252C84.287 33.2585 82.567 33.5252 80.567 33.5252ZM94.5529 33.2452V11.8852H99.5529V33.2452H94.5529ZM97.0729 8.36518C96.1396 8.36518 95.3663 8.07184 94.7529 7.48518C94.1663 6.89851 93.8729 6.19184 93.8729 5.36518C93.8729 4.51184 94.1663 3.80518 94.7529 3.24518C95.3663 2.65851 96.1396 2.36518 97.0729 2.36518C98.0063 2.36518 98.7663 2.64518 99.3529 3.20518C99.9663 3.73851 100.273 4.41851 100.273 5.24518C100.273 6.12518 99.9796 6.87184 99.3929 7.48518C98.8063 8.07184 98.0329 8.36518 97.0729 8.36518ZM116.155 33.5252C113.782 33.5252 111.702 33.0585 109.915 32.1252C108.155 31.1652 106.782 29.8585 105.795 28.2052C104.835 26.5518 104.355 24.6718 104.355 22.5652C104.355 20.4318 104.822 18.5518 105.755 16.9252C106.715 15.2718 108.022 13.9785 109.675 13.0452C111.355 12.1118 113.262 11.6452 115.395 11.6452C117.475 11.6452 119.329 12.0985 120.955 13.0052C122.582 13.9118 123.862 15.1918 124.795 16.8452C125.729 18.4985 126.195 20.4452 126.195 22.6852C126.195 22.8985 126.182 23.1385 126.155 23.4052C126.155 23.6718 126.142 23.9252 126.115 24.1652H108.315V20.8452H123.475L121.515 21.8852C121.542 20.6585 121.289 19.5785 120.755 18.6452C120.222 17.7118 119.489 16.9785 118.555 16.4452C117.649 15.9118 116.595 15.6452 115.395 15.6452C114.169 15.6452 113.089 15.9118 112.155 16.4452C111.249 16.9785 110.529 17.7252 109.995 18.6852C109.489 19.6185 109.235 20.7252 109.235 22.0052V22.8052C109.235 24.0852 109.529 25.2185 110.115 26.2052C110.702 27.1918 111.529 27.9518 112.595 28.4852C113.662 29.0185 114.889 29.2852 116.275 29.2852C117.475 29.2852 118.555 29.0985 119.515 28.7252C120.475 28.3518 121.329 27.7652 122.075 26.9652L124.755 30.0452C123.795 31.1652 122.582 32.0318 121.115 32.6452C119.675 33.2318 118.022 33.5252 116.155 33.5252ZM16.7604 70.6452C12.9204 70.6452 9.90712 69.5652 7.72045 67.4052C5.56045 65.2452 4.48045 62.1252 4.48045 58.0452V42.2452H9.68045V57.8452C9.68045 60.7252 10.2938 62.8185 11.5204 64.1252C12.7738 65.4318 14.5338 66.0852 16.8005 66.0852C19.0671 66.0852 20.8138 65.4318 22.0404 64.1252C23.2671 62.8185 23.8804 60.7252 23.8804 57.8452V42.2452H29.0005V58.0452C29.0005 62.1252 27.9071 65.2452 25.7204 67.4052C23.5605 69.5652 20.5738 70.6452 16.7604 70.6452ZM47.923 48.6452C49.6296 48.6452 51.1496 48.9785 52.4829 49.6452C53.8429 50.3118 54.9096 51.3385 55.683 52.7252C56.4563 54.0852 56.843 55.8452 56.843 58.0052V70.2452H51.8429V58.6452C51.8429 56.7518 51.3896 55.3385 50.483 54.4052C49.6029 53.4718 48.3629 53.0052 46.7629 53.0052C45.5896 53.0052 44.5496 53.2452 43.643 53.7252C42.7363 54.2052 42.0296 54.9252 41.5229 55.8852C41.0429 56.8185 40.8029 58.0052 40.8029 59.4452V70.2452H35.8029V48.8852H40.5629V54.6452L39.7229 52.8852C40.4696 51.5252 41.5496 50.4852 42.9629 49.7652C44.403 49.0185 46.0563 48.6452 47.923 48.6452ZM63.1858 70.2452V48.8852H68.1858V70.2452H63.1858ZM65.7058 45.3652C64.7724 45.3652 63.9991 45.0718 63.3858 44.4852C62.7991 43.8985 62.5058 43.1918 62.5058 42.3652C62.5058 41.5118 62.7991 40.8052 63.3858 40.2452C63.9991 39.6585 64.7724 39.3652 65.7058 39.3652C66.6391 39.3652 67.3991 39.6452 67.9858 40.2052C68.5991 40.7385 68.9058 41.4185 68.9058 42.2452C68.9058 43.1252 68.6124 43.8718 68.0258 44.4852C67.4391 45.0718 66.6658 45.3652 65.7058 45.3652ZM80.4283 70.2452L71.2683 48.8852H76.4683L84.3483 67.7252H81.7883L89.9483 48.8852H94.7483L85.5883 70.2452H80.4283ZM107.327 70.5252C104.954 70.5252 102.874 70.0585 101.087 69.1252C99.3273 68.1652 97.954 66.8585 96.9673 65.2052C96.0073 63.5518 95.5273 61.6718 95.5273 59.5652C95.5273 57.4318 95.994 55.5518 96.9273 53.9252C97.8873 52.2718 99.194 50.9785 100.847 50.0452C102.527 49.1118 104.434 48.6452 106.567 48.6452C108.647 48.6452 110.501 49.0985 112.127 50.0052C113.754 50.9118 115.034 52.1918 115.967 53.8452C116.901 55.4985 117.367 57.4452 117.367 59.6852C117.367 59.8985 117.354 60.1385 117.327 60.4052C117.327 60.6718 117.314 60.9252 117.287 61.1652H99.4873V57.8452H114.647L112.687 58.8852C112.714 57.6585 112.461 56.5785 111.927 55.6452C111.394 54.7118 110.661 53.9785 109.727 53.4452C108.821 52.9118 107.767 52.6452 106.567 52.6452C105.341 52.6452 104.261 52.9118 103.327 53.4452C102.421 53.9785 101.701 54.7252 101.167 55.6852C100.661 56.6185 100.407 57.7252 100.407 59.0052V59.8052C100.407 61.0852 100.701 62.2185 101.287 63.2052C101.874 64.1918 102.701 64.9518 103.767 65.4852C104.834 66.0185 106.061 66.2852 107.447 66.2852C108.647 66.2852 109.727 66.0985 110.687 65.7252C111.647 65.3518 112.501 64.7652 113.247 63.9652L115.927 67.0452C114.967 68.1652 113.754 69.0318 112.287 69.6452C110.847 70.2318 109.194 70.5252 107.327 70.5252ZM122.17 70.2452V48.8852H126.93V54.7652L126.37 53.0452C127.01 51.6052 128.01 50.5118 129.37 49.7652C130.757 49.0185 132.477 48.6452 134.53 48.6452V53.4052C134.317 53.3518 134.117 53.3252 133.93 53.3252C133.743 53.2985 133.557 53.2852 133.37 53.2852C131.477 53.2852 129.97 53.8452 128.85 54.9652C127.73 56.0585 127.17 57.6985 127.17 59.8852V70.2452H122.17ZM145.567 70.5252C143.78 70.5252 142.06 70.2985 140.407 69.8452C138.78 69.3652 137.487 68.7918 136.527 68.1252L138.447 64.3252C139.407 64.9385 140.554 65.4452 141.887 65.8452C143.22 66.2452 144.554 66.4452 145.887 66.4452C147.46 66.4452 148.594 66.2318 149.287 65.8052C150.007 65.3785 150.367 64.8052 150.367 64.0852C150.367 63.4985 150.127 63.0585 149.647 62.7652C149.167 62.4452 148.54 62.2052 147.767 62.0452C146.994 61.8852 146.127 61.7385 145.167 61.6052C144.234 61.4718 143.287 61.2985 142.327 61.0852C141.394 60.8452 140.54 60.5118 139.767 60.0852C138.994 59.6318 138.367 59.0318 137.887 58.2852C137.407 57.5385 137.167 56.5518 137.167 55.3252C137.167 53.9652 137.554 52.7918 138.327 51.8052C139.1 50.7918 140.18 50.0185 141.567 49.4852C142.98 48.9252 144.647 48.6452 146.567 48.6452C148.007 48.6452 149.46 48.8052 150.927 49.1252C152.394 49.4452 153.607 49.8985 154.567 50.4852L152.647 54.2852C151.634 53.6718 150.607 53.2585 149.567 53.0452C148.554 52.8052 147.54 52.6852 146.527 52.6852C145.007 52.6852 143.874 52.9118 143.127 53.3652C142.407 53.8185 142.047 54.3918 142.047 55.0852C142.047 55.7252 142.287 56.2052 142.767 56.5252C143.247 56.8452 143.874 57.0985 144.647 57.2852C145.42 57.4718 146.274 57.6318 147.207 57.7652C148.167 57.8718 149.114 58.0452 150.047 58.2852C150.98 58.5252 151.834 58.8585 152.607 59.2852C153.407 59.6852 154.047 60.2585 154.527 61.0052C155.007 61.7518 155.247 62.7252 155.247 63.9252C155.247 65.2585 154.847 66.4185 154.047 67.4052C153.274 68.3918 152.167 69.1652 150.727 69.7252C149.287 70.2585 147.567 70.5252 145.567 70.5252ZM159.553 70.2452V48.8852H164.553V70.2452H159.553ZM162.073 45.3652C161.14 45.3652 160.366 45.0718 159.753 44.4852C159.166 43.8985 158.873 43.1918 158.873 42.3652C158.873 41.5118 159.166 40.8052 159.753 40.2452C160.366 39.6585 161.14 39.3652 162.073 39.3652C163.006 39.3652 163.766 39.6452 164.353 40.2052C164.966 40.7385 165.273 41.4185 165.273 42.2452C165.273 43.1252 164.98 43.8718 164.393 44.4852C163.806 45.0718 163.033 45.3652 162.073 45.3652ZM179.155 70.5252C176.809 70.5252 174.995 69.9252 173.715 68.7252C172.435 67.4985 171.795 65.6985 171.795 63.3252V44.1652H176.795V63.2052C176.795 64.2185 177.049 65.0052 177.555 65.5652C178.089 66.1252 178.822 66.4052 179.755 66.4052C180.875 66.4052 181.809 66.1118 182.555 65.5252L183.955 69.0852C183.369 69.5652 182.649 69.9252 181.795 70.1652C180.942 70.4052 180.062 70.5252 179.155 70.5252ZM168.275 53.0452V49.0452H182.515V53.0452H168.275ZM189.438 78.2852C188.398 78.2852 187.358 78.1118 186.318 77.7652C185.278 77.4185 184.411 76.9385 183.718 76.3252L185.718 72.6452C186.225 73.0985 186.798 73.4585 187.438 73.7252C188.078 73.9918 188.731 74.1252 189.398 74.1252C190.305 74.1252 191.038 73.8985 191.598 73.4452C192.158 72.9918 192.678 72.2318 193.158 71.1652L194.398 68.3652L194.798 67.7652L202.878 48.8852H207.678L197.678 71.9652C197.011 73.5652 196.265 74.8318 195.438 75.7652C194.638 76.6985 193.731 77.3518 192.718 77.7252C191.731 78.0985 190.638 78.2852 189.438 78.2852ZM193.838 71.0052L184.198 48.8852H189.398L197.238 67.3252L193.838 71.0052Z" fill="white"/>
<path d="M156.817 4.64264L150.538 33.2452" stroke="#7B82F6" stroke-width="5" stroke-linejoin="round"/>
<path d="M144.259 10.3632L137.981 18.3719L144.259 26.3806" stroke="#7B82F6" stroke-width="5" stroke-linejoin="round"/>
<path d="M163.992 10.3632L170.271 18.3719L163.992 26.3806" stroke="#7B82F6" stroke-width="5" stroke-linejoin="round"/>
</svg>
