<svg width="208" height="79" viewBox="0 0 208 79" fill="none" xmlns="http://www.w3.org/2000/svg">
<path d="M9.36045 26.8405L9.08045 20.6805L23.7605 5.44049H29.6005L17.4004 18.4005L14.5204 21.5605L9.36045 26.8405ZM4.72045 33.4405V5.44049H9.92045V33.4405H4.72045ZM24.2404 33.4405L13.5204 20.6805L16.9604 16.8805L30.3205 33.4405H24.2404ZM46.0333 33.4405V29.1205L45.7533 28.2005V20.6405C45.7533 19.1738 45.3133 18.0405 44.4333 17.2405C43.5533 16.4138 42.2199 16.0005 40.4333 16.0005C39.2333 16.0005 38.0466 16.1872 36.8733 16.5605C35.7266 16.9338 34.7533 17.4538 33.9533 18.1205L31.9933 14.4805C33.1399 13.6005 34.4999 12.9472 36.0733 12.5205C37.6733 12.0672 39.3266 11.8405 41.0333 11.8405C44.1266 11.8405 46.5133 12.5872 48.1933 14.0805C49.8999 15.5472 50.7533 17.8272 50.7533 20.9205V33.4405H46.0333ZM39.3133 33.7205C37.7133 33.7205 36.3133 33.4538 35.1133 32.9205C33.9133 32.3605 32.9799 31.6005 32.3133 30.6405C31.6733 29.6538 31.3533 28.5472 31.3533 27.3205C31.3533 26.1205 31.6333 25.0405 32.1933 24.0805C32.7799 23.1205 33.7266 22.3605 35.0333 21.8005C36.3399 21.2405 38.0733 20.9605 40.2333 20.9605H46.4333V24.2805H40.5933C38.8866 24.2805 37.7399 24.5605 37.1533 25.1205C36.5666 25.6538 36.2733 26.3205 36.2733 27.1205C36.2733 28.0272 36.6333 28.7472 37.3533 29.2805C38.0733 29.8138 39.0733 30.0805 40.3533 30.0805C41.5799 30.0805 42.6733 29.8005 43.6333 29.2405C44.6199 28.6805 45.3266 27.8538 45.7533 26.7605L46.5933 29.7605C46.1133 31.0138 45.2466 31.9872 43.9933 32.6805C42.7666 33.3738 41.2066 33.7205 39.3133 33.7205ZM57.1701 33.4405V12.0805H61.9301V17.9605L61.3701 16.2405C62.0101 14.8005 63.0101 13.7072 64.3701 12.9605C65.7568 12.2138 67.4768 11.8405 69.5301 11.8405V16.6005C69.3168 16.5472 69.1168 16.5205 68.9301 16.5205C68.7435 16.4938 68.5568 16.4805 68.3701 16.4805C66.4768 16.4805 64.9701 17.0405 63.8501 18.1605C62.7301 19.2538 62.1701 20.8938 62.1701 23.0805V33.4405H57.1701ZM80.567 33.7205C78.7803 33.7205 77.0603 33.4938 75.407 33.0405C73.7803 32.5605 72.487 31.9872 71.527 31.3205L73.447 27.5205C74.407 28.1338 75.5537 28.6405 76.887 29.0405C78.2203 29.4405 79.5537 29.6405 80.887 29.6405C82.4603 29.6405 83.5937 29.4272 84.287 29.0005C85.007 28.5738 85.367 28.0005 85.367 27.2805C85.367 26.6938 85.127 26.2538 84.647 25.9605C84.167 25.6405 83.5403 25.4005 82.767 25.2405C81.9937 25.0805 81.127 24.9338 80.167 24.8005C79.2337 24.6672 78.287 24.4938 77.327 24.2805C76.3937 24.0405 75.5403 23.7072 74.767 23.2805C73.9937 22.8272 73.367 22.2272 72.887 21.4805C72.407 20.7338 72.167 19.7472 72.167 18.5205C72.167 17.1605 72.5537 15.9872 73.327 15.0005C74.1003 13.9872 75.1803 13.2138 76.567 12.6805C77.9803 12.1205 79.647 11.8405 81.567 11.8405C83.007 11.8405 84.4603 12.0005 85.927 12.3205C87.3937 12.6405 88.607 13.0938 89.567 13.6805L87.647 17.4805C86.6337 16.8672 85.607 16.4538 84.567 16.2405C83.5537 16.0005 82.5403 15.8805 81.527 15.8805C80.007 15.8805 78.8737 16.1072 78.127 16.5605C77.407 17.0138 77.047 17.5872 77.047 18.2805C77.047 18.9205 77.287 19.4005 77.767 19.7205C78.247 20.0405 78.8737 20.2938 79.647 20.4805C80.4203 20.6672 81.2737 20.8272 82.207 20.9605C83.167 21.0672 84.1137 21.2405 85.047 21.4805C85.9803 21.7205 86.8337 22.0538 87.607 22.4805C88.407 22.8805 89.047 23.4538 89.527 24.2005C90.007 24.9472 90.247 25.9205 90.247 27.1205C90.247 28.4538 89.847 29.6138 89.047 30.6005C88.2737 31.5872 87.167 32.3605 85.727 32.9205C84.287 33.4538 82.567 33.7205 80.567 33.7205ZM94.5529 33.4405V12.0805H99.5529V33.4405H94.5529ZM97.0729 8.56049C96.1396 8.56049 95.3663 8.26716 94.7529 7.68049C94.1663 7.09382 93.8729 6.38716 93.8729 5.56049C93.8729 4.70716 94.1663 4.00049 94.7529 3.44049C95.3663 2.85382 96.1396 2.56049 97.0729 2.56049C98.0063 2.56049 98.7663 2.84049 99.3529 3.40049C99.9663 3.93382 100.273 4.61382 100.273 5.44049C100.273 6.32049 99.9796 7.06716 99.3929 7.68049C98.8063 8.26716 98.0329 8.56049 97.0729 8.56049ZM116.155 33.7205C113.782 33.7205 111.702 33.2538 109.915 32.3205C108.155 31.3605 106.782 30.0538 105.795 28.4005C104.835 26.7472 104.355 24.8672 104.355 22.7605C104.355 20.6272 104.822 18.7472 105.755 17.1205C106.715 15.4672 108.022 14.1738 109.675 13.2405C111.355 12.3072 113.262 11.8405 115.395 11.8405C117.475 11.8405 119.329 12.2938 120.955 13.2005C122.582 14.1072 123.862 15.3872 124.795 17.0405C125.729 18.6938 126.195 20.6405 126.195 22.8805C126.195 23.0938 126.182 23.3338 126.155 23.6005C126.155 23.8672 126.142 24.1205 126.115 24.3605H108.315V21.0405H123.475L121.515 22.0805C121.542 20.8538 121.289 19.7738 120.755 18.8405C120.222 17.9072 119.489 17.1738 118.555 16.6405C117.649 16.1072 116.595 15.8405 115.395 15.8405C114.169 15.8405 113.089 16.1072 112.155 16.6405C111.249 17.1738 110.529 17.9205 109.995 18.8805C109.489 19.8138 109.235 20.9205 109.235 22.2005V23.0005C109.235 24.2805 109.529 25.4138 110.115 26.4005C110.702 27.3872 111.529 28.1472 112.595 28.6805C113.662 29.2138 114.889 29.4805 116.275 29.4805C117.475 29.4805 118.555 29.2938 119.515 28.9205C120.475 28.5472 121.329 27.9605 122.075 27.1605L124.755 30.2405C123.795 31.3605 122.582 32.2272 121.115 32.8405C119.675 33.4272 118.022 33.7205 116.155 33.7205ZM16.7604 70.8405C12.9204 70.8405 9.90712 69.7605 7.72045 67.6005C5.56045 65.4405 4.48045 62.3205 4.48045 58.2405V42.4405H9.68045V58.0405C9.68045 60.9205 10.2938 63.0138 11.5204 64.3205C12.7738 65.6272 14.5338 66.2805 16.8005 66.2805C19.0671 66.2805 20.8138 65.6272 22.0404 64.3205C23.2671 63.0138 23.8804 60.9205 23.8804 58.0405V42.4405H29.0005V58.2405C29.0005 62.3205 27.9071 65.4405 25.7204 67.6005C23.5605 69.7605 20.5738 70.8405 16.7604 70.8405ZM47.923 48.8405C49.6296 48.8405 51.1496 49.1738 52.4829 49.8405C53.8429 50.5072 54.9096 51.5338 55.683 52.9205C56.4563 54.2805 56.843 56.0405 56.843 58.2005V70.4405H51.8429V58.8405C51.8429 56.9472 51.3896 55.5338 50.483 54.6005C49.6029 53.6672 48.3629 53.2005 46.7629 53.2005C45.5896 53.2005 44.5496 53.4405 43.643 53.9205C42.7363 54.4005 42.0296 55.1205 41.5229 56.0805C41.0429 57.0138 40.8029 58.2005 40.8029 59.6405V70.4405H35.8029V49.0805H40.5629V54.8405L39.7229 53.0805C40.4696 51.7205 41.5496 50.6805 42.9629 49.9605C44.403 49.2138 46.0563 48.8405 47.923 48.8405ZM63.1858 70.4405V49.0805H68.1858V70.4405H63.1858ZM65.7058 45.5605C64.7724 45.5605 63.9991 45.2672 63.3858 44.6805C62.7991 44.0938 62.5058 43.3872 62.5058 42.5605C62.5058 41.7072 62.7991 41.0005 63.3858 40.4405C63.9991 39.8538 64.7724 39.5605 65.7058 39.5605C66.6391 39.5605 67.3991 39.8405 67.9858 40.4005C68.5991 40.9338 68.9058 41.6138 68.9058 42.4405C68.9058 43.3205 68.6124 44.0672 68.0258 44.6805C67.4391 45.2672 66.6658 45.5605 65.7058 45.5605ZM80.4283 70.4405L71.2683 49.0805H76.4683L84.3483 67.9205H81.7883L89.9483 49.0805H94.7483L85.5883 70.4405H80.4283ZM107.327 70.7205C104.954 70.7205 102.874 70.2538 101.087 69.3205C99.3273 68.3605 97.954 67.0538 96.9673 65.4005C96.0073 63.7472 95.5273 61.8672 95.5273 59.7605C95.5273 57.6272 95.994 55.7472 96.9273 54.1205C97.8873 52.4672 99.194 51.1738 100.847 50.2405C102.527 49.3072 104.434 48.8405 106.567 48.8405C108.647 48.8405 110.501 49.2938 112.127 50.2005C113.754 51.1072 115.034 52.3872 115.967 54.0405C116.901 55.6938 117.367 57.6405 117.367 59.8805C117.367 60.0938 117.354 60.3338 117.327 60.6005C117.327 60.8672 117.314 61.1205 117.287 61.3605H99.4873V58.0405H114.647L112.687 59.0805C112.714 57.8538 112.461 56.7738 111.927 55.8405C111.394 54.9072 110.661 54.1738 109.727 53.6405C108.821 53.1072 107.767 52.8405 106.567 52.8405C105.341 52.8405 104.261 53.1072 103.327 53.6405C102.421 54.1738 101.701 54.9205 101.167 55.8805C100.661 56.8138 100.407 57.9205 100.407 59.2005V60.0005C100.407 61.2805 100.701 62.4138 101.287 63.4005C101.874 64.3872 102.701 65.1472 103.767 65.6805C104.834 66.2138 106.061 66.4805 107.447 66.4805C108.647 66.4805 109.727 66.2938 110.687 65.9205C111.647 65.5472 112.501 64.9605 113.247 64.1605L115.927 67.2405C114.967 68.3605 113.754 69.2272 112.287 69.8405C110.847 70.4272 109.194 70.7205 107.327 70.7205ZM122.17 70.4405V49.0805H126.93V54.9605L126.37 53.2405C127.01 51.8005 128.01 50.7072 129.37 49.9605C130.757 49.2138 132.477 48.8405 134.53 48.8405V53.6005C134.317 53.5472 134.117 53.5205 133.93 53.5205C133.743 53.4938 133.557 53.4805 133.37 53.4805C131.477 53.4805 129.97 54.0405 128.85 55.1605C127.73 56.2538 127.17 57.8938 127.17 60.0805V70.4405H122.17ZM145.567 70.7205C143.78 70.7205 142.06 70.4938 140.407 70.0405C138.78 69.5605 137.487 68.9872 136.527 68.3205L138.447 64.5205C139.407 65.1338 140.554 65.6405 141.887 66.0405C143.22 66.4405 144.554 66.6405 145.887 66.6405C147.46 66.6405 148.594 66.4272 149.287 66.0005C150.007 65.5738 150.367 65.0005 150.367 64.2805C150.367 63.6938 150.127 63.2538 149.647 62.9605C149.167 62.6405 148.54 62.4005 147.767 62.2405C146.994 62.0805 146.127 61.9338 145.167 61.8005C144.234 61.6672 143.287 61.4938 142.327 61.2805C141.394 61.0405 140.54 60.7072 139.767 60.2805C138.994 59.8272 138.367 59.2272 137.887 58.4805C137.407 57.7338 137.167 56.7472 137.167 55.5205C137.167 54.1605 137.554 52.9872 138.327 52.0005C139.1 50.9872 140.18 50.2138 141.567 49.6805C142.98 49.1205 144.647 48.8405 146.567 48.8405C148.007 48.8405 149.46 49.0005 150.927 49.3205C152.394 49.6405 153.607 50.0938 154.567 50.6805L152.647 54.4805C151.634 53.8672 150.607 53.4538 149.567 53.2405C148.554 53.0005 147.54 52.8805 146.527 52.8805C145.007 52.8805 143.874 53.1072 143.127 53.5605C142.407 54.0138 142.047 54.5872 142.047 55.2805C142.047 55.9205 142.287 56.4005 142.767 56.7205C143.247 57.0405 143.874 57.2938 144.647 57.4805C145.42 57.6672 146.274 57.8272 147.207 57.9605C148.167 58.0672 149.114 58.2405 150.047 58.4805C150.98 58.7205 151.834 59.0538 152.607 59.4805C153.407 59.8805 154.047 60.4538 154.527 61.2005C155.007 61.9472 155.247 62.9205 155.247 64.1205C155.247 65.4538 154.847 66.6138 154.047 67.6005C153.274 68.5872 152.167 69.3605 150.727 69.9205C149.287 70.4538 147.567 70.7205 145.567 70.7205ZM159.553 70.4405V49.0805H164.553V70.4405H159.553ZM162.073 45.5605C161.14 45.5605 160.366 45.2672 159.753 44.6805C159.166 44.0938 158.873 43.3872 158.873 42.5605C158.873 41.7072 159.166 41.0005 159.753 40.4405C160.366 39.8538 161.14 39.5605 162.073 39.5605C163.006 39.5605 163.766 39.8405 164.353 40.4005C164.966 40.9338 165.273 41.6138 165.273 42.4405C165.273 43.3205 164.98 44.0672 164.393 44.6805C163.806 45.2672 163.033 45.5605 162.073 45.5605ZM179.155 70.7205C176.809 70.7205 174.995 70.1205 173.715 68.9205C172.435 67.6938 171.795 65.8938 171.795 63.5205V44.3605H176.795V63.4005C176.795 64.4138 177.049 65.2005 177.555 65.7605C178.089 66.3205 178.822 66.6005 179.755 66.6005C180.875 66.6005 181.809 66.3072 182.555 65.7205L183.955 69.2805C183.369 69.7605 182.649 70.1205 181.795 70.3605C180.942 70.6005 180.062 70.7205 179.155 70.7205ZM168.275 53.2405V49.2405H182.515V53.2405H168.275ZM189.438 78.4805C188.398 78.4805 187.358 78.3072 186.318 77.9605C185.278 77.6138 184.411 77.1338 183.718 76.5205L185.718 72.8405C186.225 73.2938 186.798 73.6538 187.438 73.9205C188.078 74.1872 188.731 74.3205 189.398 74.3205C190.305 74.3205 191.038 74.0938 191.598 73.6405C192.158 73.1872 192.678 72.4272 193.158 71.3605L194.398 68.5605L194.798 67.9605L202.878 49.0805H207.678L197.678 72.1605C197.011 73.7605 196.265 75.0272 195.438 75.9605C194.638 76.8938 193.731 77.5472 192.718 77.9205C191.731 78.2938 190.638 78.4805 189.438 78.4805ZM193.838 71.2005L184.198 49.0805H189.398L197.238 67.5205L193.838 71.2005Z" fill="black"/>
<path d="M156.817 4.83795L150.538 33.4405" stroke="#7B82F6" stroke-width="5" stroke-linejoin="round"/>
<path d="M144.259 10.5585L137.981 18.5672L144.259 26.5759" stroke="#7B82F6" stroke-width="5" stroke-linejoin="round"/>
<path d="M163.992 10.5585L170.271 18.5672L163.992 26.5759" stroke="#7B82F6" stroke-width="5" stroke-linejoin="round"/>
</svg>
