<?xml version="1.0" encoding="utf-8"?>
<!-- Generator: Adobe Illustrator 27.5.0, SVG Export Plug-In . SVG Version: 6.00 Build 0)  -->
<svg version="1.1" xmlns="http://www.w3.org/2000/svg" xmlns:xlink="http://www.w3.org/1999/xlink" x="0px" y="0px"
	 viewBox="0 0 500 500" style="enable-background:new 0 0 500 500;" xml:space="preserve">
<g id="BACKGROUND">
	<rect style="fill:#FFFFFF;" width="500" height="500"/>
</g>
<g id="OBJECTS">
	<g>
		<g>
			<path style="fill:#B69ACC;" d="M60.229,265.908c0,0-12.599-4.8-13.199-28.798c-0.6-23.999,16.799-38.398,32.998-37.198
				c16.199,1.2,33.598-4.2,30.598-22.799c-3-18.599-32.398-37.798-7.2-64.196c25.199-26.399,38.198-8.2,55.197-4.8
				c16.999,3.4,33.598-8.399,34.198-25.199c0.6-16.799-7.799-43.197,14.399-41.397s23.999,41.397,39.598,45.597
				c15.599,4.2,25.799-32.398,49.197-20.399s8.199,26.598,28.998,8.799c20.799-17.799,31.598-26.198,50.197-9.399
				c18.599,16.799-1.8,30.598,0.6,46.197c2.4,15.599,10.199,13.799,18.599,9c8.4-4.8,27.598-23.399,44.997,6.6
				c17.399,29.998-8.933,35.265-15.266,49.73c-6.333,14.466,19.466,4.267,26.065,35.465c6.6,31.198-31.198,22.799-31.198,46.797
				c0,23.999,10.799,19.199,23.399,40.198c12.599,20.999,11.399,48.597-14.999,79.795c-26.398,31.198-50.997-10.799-59.396,6.6
				c-8.4,17.399-13.199,40.798-35.998,46.797c-22.799,6-59.396,3.6-104.394-26.998c-44.997-30.598-71.996,17.399-121.793,13.799
				s-46.797-41.397-26.398-64.196c20.399-22.799-4.2-16.799-8.999-35.398c-4.8-18.599,15.799-21.599,29.798-34.798
				S79.428,283.306,60.229,265.908z"/>
			<ellipse style="fill:#B69ACC;" cx="68.028" cy="94.618" rx="27.598" ry="27.298"/>
			<ellipse style="fill:#B69ACC;" cx="82.128" cy="51.72" rx="7.5" ry="7.8"/>
			<ellipse style="fill:#B69ACC;" cx="450.206" cy="407.499" rx="15.599" ry="14.399"/>
			<ellipse style="fill:#B69ACC;" cx="180.987" cy="433.559" rx="28.784" ry="26.435"/>
			
				<ellipse transform="matrix(0.2281 -0.9736 0.9736 0.2281 73.5467 659.3765)" style="fill:#B69ACC;" cx="452.606" cy="283.306" rx="17.399" ry="17.399"/>
			<ellipse style="fill:#B69ACC;" cx="135.071" cy="437.947" rx="10.554" ry="10.41"/>
			<ellipse style="fill:#B69ACC;" cx="441.302" cy="368.224" rx="8.942" ry="8.819"/>
		</g>
		<g>
			<g>
				<g>
					<g>
						<g>
							<g>
								<g>
									<polygon style="fill:#FFFFFE;stroke:#1E0041;stroke-miterlimit:10;" points="435.89,301.85 413.083,309.78 
										409.542,297.662 432.603,292.397 									"/>
								</g>
								<g>
									<polyline style="fill:none;stroke:#1E0041;stroke-miterlimit:10;" points="412.543,307.471 435.195,300.047 
										434.253,297.516 411.428,303.968 									"/>
									<line style="fill:none;stroke:#1E0041;stroke-miterlimit:10;" x1="410.522" y1="300.566" x2="433.549" y2="294.785"/>
								</g>
							</g>
							<g>
								<g>
									<path style="fill:#FFFFFE;stroke:#1E0041;stroke-miterlimit:10;" d="M465.192,313.424l-20.474-29.995
										c0,0-0.546-0.335-2.472,0.446c-1.926,0.782-14.788,6.728-14.788,6.728l8.878,16.238l6.129-0.545
										c0,0,14.109,4.778,16.887,5.885C462.13,313.288,465.745,314.932,465.192,313.424z"/>
									<path style="fill:#1E0041;" d="M441.834,284.12c-0.784,0.318-3.383,1.493-6.187,2.775c1.14,2.076,3.605,5.263,7.193,5.909
										c2.863,0.515,5.599-0.725,6.979-1.616l-5.27-7.783C444.549,283.404,443.76,283.338,441.834,284.12z"/>
								</g>
								<g>
									<g>
										<g>
											<path style="fill:#1E0041;" d="M446.715,309.047c0.576-1.964,1.151-3.928,1.727-5.893c0.347-1.185-1.5-1.69-1.846-0.509
												c-0.576,1.964-1.151,3.929-1.727,5.893C444.522,309.723,446.369,310.229,446.715,309.047L446.715,309.047z"/>
										</g>
									</g>
									<g>
										<g>
											<path style="fill:#1E0041;" d="M451.348,310.014c0.536-1.742,1.073-3.483,1.609-5.225
												c0.363-1.18-1.484-1.685-1.846-0.509c-0.536,1.742-1.073,3.483-1.609,5.225
												C449.139,310.686,450.986,311.19,451.348,310.014L451.348,310.014z"/>
										</g>
									</g>
								</g>
							</g>
							<g>
								<g>
									<path style="fill:#FFFFFE;" d="M358.567,256.708c0,0-16.199,21.199-19.599,36.798c-3.4,15.599,2.8,27.598,25.999,29.398
										c23.199,1.8,50.597-11.199,50.597-11.199l-5.25-16.449c0,0-30.148,9.249-41.148,3.45
										c-10.999-5.8,23.999-43.597,23.999-43.597L358.567,256.708z"/>
									<path style="fill:#FFA0FF;" d="M395.365,302.405c2.6,3,3.2-2.1,6.8,0.9c3.6,3,4.8,2.6,6-0.4
										c0.737-1.842,0.492-4.813-0.037-7.019c-2.393,0.666-6.537,1.75-11.341,2.714
										C396.127,300.254,394.271,301.144,395.365,302.405z"/>
									<path style="fill:none;stroke:#1E0041;stroke-miterlimit:10;" d="M358.567,256.708c0,0-16.199,21.199-19.599,36.798
										c-3.4,15.599,2.8,27.598,25.999,29.398c23.199,1.8,50.597-11.199,50.597-11.199l-5.25-16.449c0,0-30.148,9.249-41.148,3.45
										c-10.999-5.8,23.999-43.597,23.999-43.597L358.567,256.708z"/>
								</g>
								<g>
									<path style="fill:#FFFFFE;" d="M410.314,295.256c0,0-2.897,0.888-7.218,1.941l5.157,17.562
										c4.53-1.737,7.311-3.054,7.311-3.054L410.314,295.256z"/>
									<path style="fill:#FFA0FF;" d="M408.126,295.887c-1.252,0.348-2.978,0.81-5.031,1.31l2.384,8.118
										c1.24,0.246,1.964-0.609,2.684-2.41C408.901,301.063,408.656,298.093,408.126,295.887z"/>
									<path style="fill:none;stroke:#1E0041;stroke-miterlimit:10;" d="M410.314,295.256c0,0-2.897,0.888-7.218,1.941
										l5.157,17.562c4.53-1.737,7.311-3.054,7.311-3.054L410.314,295.256z"/>
								</g>
							</g>
						</g>
						<g>
							<g>
								<g>
									<polygon style="fill:#FFFFFE;stroke:#1E0041;stroke-miterlimit:10;" points="435.456,349.979 412.082,343.923 
										415.859,331.877 437.966,340.291 									"/>
								</g>
								<g>
									<polyline style="fill:none;stroke:#1E0041;stroke-miterlimit:10;" points="412.913,341.703 435.879,348.094 436.5,345.465 
										413.93,338.17 									"/>
									<line style="fill:none;stroke:#1E0041;stroke-miterlimit:10;" x1="415.063" y1="334.837" x2="437.429" y2="342.803"/>
								</g>
							</g>
							<g>
								<g>
									<path style="fill:#FFFFFE;" d="M453.415,375.866l-0.393-36.314c0,0-0.268-0.582-2.304-1
										c-2.036-0.418-16.037-2.607-16.037-2.607l-1.622,18.435l5.402,2.947c0,0,9.088,11.803,10.785,14.265
										C450.943,374.053,453.038,377.427,453.415,375.866z"/>
									<path style="fill:#FFA0FF;" d="M449.246,371.592c1.697,2.462,3.792,5.835,4.169,4.274l-0.191-17.665
										c-0.855-1.817-1.85-2.384-3.562-2.098c-3,0.5-2-1.8-3.6-6.2c-1.6-4.4-4.1-3.2-6.7-0.1
										c-2.197,2.619-4.036-0.186-6.062,1.835l-0.241,2.742l5.402,2.947C438.461,357.327,447.549,369.13,449.246,371.592z"/>
									<path style="fill:none;stroke:#1E0041;stroke-miterlimit:10;" d="M453.415,375.866l-0.393-36.314c0,0-0.268-0.582-2.304-1
										c-2.036-0.418-16.037-2.607-16.037-2.607l-1.622,18.435l5.402,2.947c0,0,9.088,11.803,10.785,14.265
										C450.943,374.053,453.038,377.427,453.415,375.866z"/>
									<path style="fill:#1E0041;" d="M450.239,338.525c-0.829-0.17-3.643-0.634-6.687-1.125c-0.203,2.36,0.079,6.379,2.707,8.907
										c2.096,2.017,5.061,2.503,6.703,2.528l-0.067-9.4C452.895,339.436,452.275,338.944,450.239,338.525z"/>
								</g>
								<g>
									<g>
										<g>
											<path style="fill:#1E0041;" d="M440.52,361.926c1.569-1.315,3.137-2.63,4.706-3.945c0.945-0.792-0.415-2.14-1.354-1.353
												c-1.569,1.315-3.137,2.63-4.706,3.945C438.221,361.365,439.582,362.713,440.52,361.926L440.52,361.926z"/>
										</g>
									</g>
									<g>
										<g>
											<path style="fill:#1E0041;" d="M443.838,365.301c1.413-1.151,2.825-2.303,4.238-3.454
												c0.955-0.779-0.406-2.126-1.354-1.354c-1.413,1.151-2.825,2.303-4.238,3.454
												C441.529,364.726,442.89,366.073,443.838,365.301L443.838,365.301z"/>
										</g>
									</g>
								</g>
							</g>
							<g>
								<g>
									<path style="fill:#FFFFFE;" d="M370.366,255.308c0,0-17.999,30.198-21.399,45.797c-3.4,15.599,0.8,28.398,15.199,34.198
										c14.399,5.8,48.197,10.999,48.197,10.999l5.8-15.999c0,0-27.398-8.799-35.398-15.799c-8-7-4.6-13.799,0.8-20.599
										c5.4-6.8,22.799-21.399,21.399-38.198S370.366,255.308,370.366,255.308z"/>
									<g>
										<path style="fill:#FFA0FF;" d="M376.366,322.104c0,0-2.8,5.6-6.4,3.4c-3.6-2.2-5.8-8.4-1.2-11.799
											C373.366,310.305,378.766,315.704,376.366,322.104z"/>
										<path style="fill:#FFA0FF;" d="M365.166,330.304c0,0-2.2,0.4-1.6-2c0.6-2.4,1.8-2.6,2.8-1.6
											C367.366,327.704,366.766,330.104,365.166,330.304z"/>
										<path style="fill:#FFA0FF;" d="M353.296,327.595c0.735-1.476,1.3-2.78,3.471-1.891c4.4,1.8,8.4-4.8,5.4-8.399
											c-3-3.6-3.6-4,0.2-8.6c3.8-4.6,0.8-7.199-2.2-10.799c-3-3.6,3.2-4-1-10.199c-1.447-2.136-2.99-2.729-4.504-2.424
											c-2.579,5.768-4.728,11.386-5.695,15.823C346.67,311.647,347.849,320.907,353.296,327.595z"/>
									</g>
									<path style="fill:none;stroke:#1E0041;stroke-miterlimit:10;" d="M370.366,255.308c0,0-17.999,30.198-21.399,45.797
										c-3.4,15.599,0.8,28.398,15.199,34.198c14.399,5.8,48.197,10.999,48.197,10.999l5.8-15.999c0,0-27.398-8.799-35.398-15.799
										c-8-7-4.6-13.799,0.8-20.599c5.4-6.8,22.799-21.399,21.399-38.198S370.366,255.308,370.366,255.308z"/>
								</g>
								<path style="fill:none;stroke:#1E0041;stroke-miterlimit:10;" d="M394.565,247.709c0,0-6,11.399-16.799,32.198
									c-10.799,20.799-14.199,30.198-6.8,39.398c7.4,9.2,40.798,18.399,40.798,18.399"/>
								<path style="fill:#FFFFFE;stroke:#1E0041;stroke-miterlimit:10;" d="M418.163,330.304c0,0-3.173-1.02-7.671-2.639
									l-5.523,17.409c4.474,0.779,7.395,1.229,7.395,1.229L418.163,330.304z"/>
							</g>
						</g>
					</g>
					<g>
						<path style="fill:#FFFFFE;" d="M373.01,199.938c0,0-13.64,3.507-28.448-7.599c-14.809-11.106-12.276-33.125-9.937-39.749
							c2.338-6.625,6.43-9.742,10.717-14.419c4.287-4.676,2.143-4.871-4.092-0.585c0,0,7.794-10.912,9.353-13.834
							c1.559-2.923-2.338-2.923-9.353,7.794c0,0,8.379-12.081,6.235-12.276c-2.143-0.195-8.768,10.327-8.768,10.327
							s8.963-12.86,6.04-12.47c-2.923,0.39-8.768,11.301-8.768,11.301s7.794-12.276,4.482-11.691
							c-3.313,0.584-16.173,17.926-21.628,37.216c-5.456,19.29,6.625,43.841,17.731,51.635
							c11.106,7.794,26.694,10.522,26.694,10.522L373.01,199.938z"/>
						<path style="fill:#FFA0FF;" d="M320.68,170.58c2.4-7.2,3.333-7.6,5.333-4.666c1.521,2.231,4.659-0.246,6.955-4.256
							c0.281-3.894,0.975-7.137,1.657-9.068c2.338-6.625,6.43-9.743,10.717-14.419c4.287-4.676,2.143-4.871-4.092-0.585
							c0,0,7.794-10.912,9.353-13.834c1.473-2.763-1.929-2.908-8.23,6.133c2.206-3.317,6.757-10.465,5.112-10.614
							c-1.325-0.12-4.361,3.853-6.488,6.906c2.433-3.78,5.691-9.307,3.76-9.049c-1.621,0.216-4.139,3.666-6.062,6.698
							c1.87-3.416,3.702-7.428,1.775-7.088c-3.313,0.585-16.173,17.926-21.628,37.217c-1.781,6.298-1.685,13.156-0.372,19.809
							C319.338,173.244,320.119,172.264,320.68,170.58z"/>
						<path style="fill:none;stroke:#1E0041;stroke-miterlimit:10;" d="M373.01,199.938c0,0-13.64,3.507-28.448-7.599
							c-14.809-11.106-12.276-33.125-9.937-39.749c2.338-6.625,6.43-9.742,10.717-14.419c4.287-4.676,2.143-4.871-4.092-0.585
							c0,0,7.794-10.912,9.353-13.834c1.559-2.923-2.338-2.923-9.353,7.794c0,0,8.379-12.081,6.235-12.276
							c-2.143-0.195-8.768,10.327-8.768,10.327s8.963-12.86,6.04-12.47c-2.923,0.39-8.768,11.301-8.768,11.301
							s7.794-12.276,4.482-11.691c-3.313,0.584-16.173,17.926-21.628,37.216c-5.456,19.29,6.625,43.841,17.731,51.635
							c11.106,7.794,26.694,10.522,26.694,10.522L373.01,199.938z"/>
						<path style="fill:none;stroke:#1C191B;stroke-miterlimit:10;" d="M344.562,192.339c-2.675-2.006-4.776-4.371-6.423-6.934
							c-3.575,3.92-6.723,9.27-8.709,13.011c2.302,3.023,4.745,5.49,7.143,7.173c11.106,7.794,26.694,10.522,26.694,10.522
							l9.743-16.173C373.01,199.938,359.371,203.445,344.562,192.339z"/>
						<path style="fill:#1E0041;stroke:#1E0041;stroke-miterlimit:10;" d="M344.562,192.339c-2.675-2.006-4.776-4.371-6.423-6.934
							c-3.575,3.92-6.723,9.27-8.709,13.011c2.302,3.023,4.745,5.49,7.143,7.173c11.106,7.794,26.694,10.522,26.694,10.522
							l9.743-16.173C373.01,199.938,359.371,203.445,344.562,192.339z"/>
						<path style="fill:#FFFFFE;stroke:#1E0041;stroke-miterlimit:10;" d="M343.308,191.33c-2.087-1.774-3.79-3.779-5.169-5.925
							c-3.575,3.92-6.723,9.27-8.709,13.011c1.939,2.546,3.977,4.69,6.004,6.311C337.44,200.709,340.438,195.116,343.308,191.33z"/>
					</g>
				</g>
				<g>
					<g>
						<path style="fill:#FFFFFF;" d="M380.343,195.378c-15.758,0-28.532,21.881-28.532,48.872c0,5.305,0.5,10.407,1.413,15.19
							c6.298,2.455,16.644,4.932,31.186,4.105c10.225-0.582,17.748-2.438,23.126-4.476c0.868-4.675,1.339-9.652,1.339-14.819
							C408.875,217.259,396.101,195.378,380.343,195.378z"/>
						<g>
							<path style="fill:#FFA0FF;" d="M398.809,226.577c0,1.252-1.015,2.266-2.266,2.266s-2.267-1.015-2.267-2.266
								c0-1.252,1.015-2.267,2.267-2.267S398.809,225.325,398.809,226.577z"/>
							<path style="fill:#FFA0FF;" d="M376.797,263.685c2.396,0.051,4.932,0.013,7.612-0.14c10.225-0.582,17.748-2.438,23.126-4.476
								c0.868-4.675,1.339-9.652,1.339-14.819c0-1.427-0.043-2.836-0.113-4.232c-2.024,0.228-4.083,2.293-4.553,4.291
								c-0.8,3.4-1,7.199-6-1c-5-8.2-19.199-0.4-16.599,5.2c2.6,5.6,1.2,8.8-4,14.199
								C377.311,263.018,377.045,263.347,376.797,263.685z"/>
							<path style="fill:#FFA0FF;" d="M406.828,226.074c-3.23,0.308-5.752,2.892-5.752,6.035c0,3.35,2.865,6.066,6.4,6.066
								c0.398,0,0.787-0.039,1.165-0.105C408.331,233.883,407.715,229.862,406.828,226.074z"/>
							<path style="fill:#FFA0FF;" d="M371.077,255.775c-2.651,0-4.8,2.179-4.8,4.866c0,0.814,0.216,1.569,0.564,2.244
								c2.452,0.351,5.118,0.608,8.007,0.733c0.635-0.825,1.028-1.85,1.028-2.977C375.877,257.953,373.728,255.775,371.077,255.775z
								"/>
						</g>
						<path style="fill:none;stroke:#1E0041;stroke-miterlimit:10;" d="M380.343,195.378c-15.758,0-28.532,21.881-28.532,48.872
							c0,5.305,0.5,10.407,1.413,15.19c6.298,2.455,16.644,4.932,31.186,4.105c10.225-0.582,17.748-2.438,23.126-4.476
							c0.868-4.675,1.339-9.652,1.339-14.819C408.875,217.259,396.101,195.378,380.343,195.378z"/>
					</g>
					<path style="fill:#1E0041;" d="M368.211,226.308c0,0-5.248-5.63-5.903-12.399c-0.655-6.769,5.35-7.496,7.205-1.358
						c0,0,4.025-8.501,8.274-4.839C382.037,211.375,368.211,226.308,368.211,226.308z"/>
				</g>
				<g>
					<path style="fill:#1E0041;stroke:#1E0041;stroke-miterlimit:10;" d="M370.567,197.036c0.104,2.612,3.822,4.584,8.304,4.406
						c4.482-0.178,8.031-2.44,7.927-5.052c-0.104-2.612-3.822-4.584-8.304-4.406C374.012,192.162,370.463,194.424,370.567,197.036z"
						/>
					<g>
						<path style="fill:#FFFFFE;stroke:#1E0041;stroke-miterlimit:10;" d="M367.106,157.004l7.135-0.284
							c4.743-0.189,8.8,4.075,9.015,9.475l0.44,11.06c0.013,0.312,0.009,0.62-0.004,0.925c0.09,0.323,0.148,0.659,0.162,1.008
							l0.268,6.733l0.015,0.375l0.268,6.732c0.097,2.443-1.822,4.521-4.265,4.619l-2.83,0.113c-2.443,0.097-4.521-1.822-4.619-4.265
							l-0.237-5.958l-4.125,0.164c-4.743,0.189-8.8-4.075-9.015-9.475l-0.44-11.06C358.657,161.766,362.362,157.193,367.106,157.004
							z"/>
						<path style="fill:none;stroke:#1E0041;stroke-width:2;stroke-miterlimit:10;" d="M392.55,173.5
							c-0.105-3.111-2.544-5.523-5.448-5.388c-1.24,0.058-2.362,0.573-3.234,1.383l0.518,8.966c0.885,0.623,1.953,0.969,3.096,0.916
							C390.385,179.242,392.655,176.611,392.55,173.5z"/>
					</g>
					<path style="fill:#1E0041;" d="M383.653,148.917c-8.393-4.966-18.807-0.21-18.807-0.21s-3.833-6.271-8.437-3.967
						c-4.603,2.304-0.162,8.4-0.162,8.4s-6.661-5.692-10.912-2.272s-5.46,10.574,0.045,15.215
						c4.003,3.375,10.405,2.561,16.003,0.664c0.46-0.098,0.974-0.218,1.567-0.369c2.374-0.605,4.382-1.798,5.96-3.037
						c1.992-1.249,3.198-2.513,3.913-3.546c0.038,0.444,0.206,1.215,0.713,2.461c0.713,4.287,4.365,6.391,6.677,7.305
						c0.697,0.361,1.353,0.653,1.928,0.889c0.022,1.144,0.538,5.348,1.141,7.977c0.317,1.379,0.37,2.461,1.008,2.145
						c2.046-1.013,6.991-6.604,8.118-11.861C393.536,163.455,392.047,153.883,383.653,148.917z"/>
					<g>
						<path style="fill:#FFFFFF;" d="M392.548,173.5c0.124,3.112-2.319,5.735-5.456,5.86c-3.137,0.125-5.78-2.296-5.905-5.408
							c-0.124-3.111,2.319-5.735,5.456-5.86C389.781,167.967,392.424,170.388,392.548,173.5z"/>
						<g>
							<g>
								<path style="fill:#1E0041;" d="M384.514,174.593c-0.052-0.526,0.009-1.02,0.195-1.505c0.438-1.143,1.531-1.414,2.661-1.355
									c0.885,0.046,0.883-1.331,0-1.376c-1.552-0.08-3.095,0.446-3.804,1.921c-0.335,0.696-0.505,1.542-0.428,2.316
									C383.224,175.466,384.602,175.475,384.514,174.593L384.514,174.593z"/>
							</g>
						</g>
						<path style="fill:#FFA0FF;" d="M386.644,168.092c-0.014,0.001-0.027,0.003-0.04,0.004c0.553,1.184,2.426,2.482,3.672,3.417
							c2.133,1.6-1.867,1.6,0,5.333c0.191,0.382,0.403,0.653,0.627,0.841c1.07-1.073,1.71-2.561,1.645-4.187
							C392.424,170.388,389.781,167.967,386.644,168.092z"/>
					</g>
					<g>
						<g>
							<path style="fill:#1E0041;" d="M373.294,170.211c0.035,0.888-0.656,1.637-1.544,1.672c-0.888,0.035-1.637-0.656-1.672-1.544
								c-0.035-0.888,0.656-1.637,1.544-1.672S373.258,169.323,373.294,170.211z"/>
							<path style="fill:#1E0041;" d="M362.755,170.395c0.03,0.758-0.56,1.397-1.318,1.427c-0.758,0.03-1.397-0.56-1.427-1.318
								c-0.03-0.758,0.56-1.397,1.318-1.427C362.086,169.046,362.725,169.637,362.755,170.395z"/>
						</g>
						<g>
							<path style="fill:#FFFDFD;" d="M364.553,176.914c0,0,0.902,2.323,2.617,2.417c1.715,0.094,2.979-1.853,3.012-3.335
								L364.553,176.914z"/>
							<g>
								<path style="fill:#1E0041;" d="M364.015,177.062c0.514,1.282,1.548,2.68,3.03,2.811c2.125,0.189,3.569-1.979,3.696-3.878
									c0.027-0.396-0.376-0.592-0.707-0.538c-1.876,0.306-3.753,0.612-5.629,0.918c-0.707,0.115-0.407,1.191,0.297,1.077
									c1.877-0.306,3.753-0.612,5.63-0.918c-0.236-0.179-0.471-0.359-0.707-0.538c-0.092,1.363-1.348,3.333-2.95,2.636
									c-0.732-0.319-1.305-1.172-1.583-1.866C364.827,176.107,363.747,176.394,364.015,177.062z"/>
							</g>
						</g>
						<g>
							<path style="fill:#FF999A;" d="M379.119,175.902c0.088,2.208-1.63,4.069-3.838,4.157c-2.208,0.088-4.069-1.631-4.157-3.838
								c-0.088-2.208,1.631-4.069,3.838-4.157C377.17,171.976,379.031,173.694,379.119,175.902z"/>
							<path style="fill:#FF999A;" d="M360.216,173.942c-0.243,0.01-0.478,0.051-0.702,0.114l0.165,4.146
								c0.025,0.619,0.072,1.218,0.221,1.796c0.168,0.022,0.384,0.036,0.559,0.029c1.68-0.067,2.988-1.483,2.921-3.164
								C363.313,175.183,361.896,173.875,360.216,173.942z"/>
						</g>
						<polygon style="fill:#FF6766;" points="366.043,168.889 366.59,174.352 363.912,172.863 						"/>
					</g>
					<g>
						<path style="fill:#FFFFFE;stroke:#1E0041;stroke-miterlimit:10;" d="M384.476,138.248c0,2.982-2.418,5.4-5.4,5.4
							c-2.982,0-5.4-2.418-5.4-5.4c0-2.982,2.417-5.4,5.4-5.4C382.059,132.849,384.476,135.266,384.476,138.248z"/>
						<g>
							<path style="fill:#FFA0FF;" d="M341.612,83.318c-7.199,4.2-16.999,6.6-16.599-7.799c0.297-10.694-5.806-11.678-13.799-9.265
								c-0.875,1.136-1.637,2.358-2.266,3.665c-6.666,13.866,1.333,30.398,12.799,30.665c11.466,0.267,28.265-12.266,32.531-1.333
								c0.755,1.934,1.259,3.876,1.622,5.788c1.876-0.693,3.772-2.549,5.911-6.521C368.811,85.518,348.812,79.118,341.612,83.318z"
								/>
							<g>
								<path style="fill:none;stroke:#1E0041;stroke-miterlimit:10;" d="M380.943,125.116c6.4-7.733,8.533-17.332,1.867-21.599
									c-6.666-4.266-15.199-3.733-15.199-14.399c0-10.666-2.667-23.999-16.532-30.665c-13.866-6.666-35.464-2.4-42.131,11.466
									c-6.666,13.866,1.333,30.398,12.799,30.665c11.466,0.267,28.265-12.266,32.531-1.333c4.266,10.933,0.8,22.132,6.133,26.665
									C365.744,130.449,374.544,132.849,380.943,125.116z"/>
							</g>
							<path style="fill:#FFA0FF;" d="M336.813,66.653c0,2.688-2.089,4.866-4.666,4.866s-4.666-2.179-4.666-4.866
								c0-2.688,2.089-4.866,4.666-4.866S336.813,63.965,336.813,66.653z"/>
							<path style="fill:#FFA0FF;" d="M316.107,61.554c1.796,0.459,3.704,0.765,5.64,0.765c7.078,0,11.212-2.839,11.839-6.835
								C327.22,55.976,320.962,58.027,316.107,61.554z"/>
						</g>
					</g>
				</g>
				<g>
					<path style="fill:#FFFFFE;" d="M431.129,86.161c-1.402,0.455-0.985,14.12-0.985,14.12s-0.912-14.206-3.012-13.61
						c-2.1,0.596-1.345,14.449-1.345,14.449s-0.873-15.068-3.153-14.307c-2.28,0.76-0.71,15.687-0.71,15.687
						s-2.604-14.973-4.406-13.328c-1.802,1.646,1.61,17.865,1.61,17.865s-5.87-7.693-6.34-4.951
						c-0.47,2.743,6.725,11.705,6.725,11.705s3.089,11.886-1.944,39.124c-5.033,27.238-10.369,30.624-19.801,40.561
						c-1.576,1.661-3.327,2.969-5.146,4.008l12.295,10.133c18.968-13.054,26.27-35.228,28.026-54.698
						C435.024,129.868,432.531,85.706,431.129,86.161z"/>
					<g>
						<path style="fill:#FFA0FF;" d="M431.129,86.161c-1.402,0.455-0.985,14.12-0.985,14.12s-0.912-14.206-3.012-13.61
							c-2.1,0.596-1.345,14.449-1.345,14.449s-0.873-15.068-3.153-14.307c-2.28,0.76-0.71,15.687-0.71,15.687
							s-2.604-14.973-4.406-13.328c-1.802,1.646,1.61,17.865,1.61,17.865s-5.87-7.693-6.34-4.951
							c-0.334,1.951,3.21,7.049,5.284,9.83c1.153-1.507,2.198-2.072,3.135-0.199c1.8,3.6,0.6,11.599,5,8.2c4.4-3.4,4-0.6,4,1.2
							c0,1.8-2.8,11.599,0.8,12.599c0.832,0.231,1.772,0.001,2.724-0.47C433.873,110.984,432.189,85.817,431.129,86.161z"/>
					</g>
					<path style="fill:none;stroke:#1E0041;stroke-miterlimit:10;" d="M431.129,86.161c-1.402,0.455-0.985,14.12-0.985,14.12
						s-0.912-14.206-3.012-13.61c-2.1,0.596-1.345,14.449-1.345,14.449s-0.873-15.068-3.153-14.307
						c-2.28,0.76-0.71,15.687-0.71,15.687s-2.604-14.973-4.406-13.328c-1.802,1.646,1.61,17.865,1.61,17.865s-5.87-7.693-6.34-4.951
						c-0.47,2.743,6.725,11.705,6.725,11.705s3.089,11.886-1.944,39.124c-5.033,27.238-10.369,30.624-19.801,40.561
						c-1.576,1.661-3.327,2.969-5.146,4.008l12.295,10.133c18.968-13.054,26.27-35.228,28.026-54.698
						C435.024,129.868,432.531,85.706,431.129,86.161z"/>
					<g>
						<path style="fill:#1E0041;" d="M428.456,174.891c-5.096-2.148-10.836-4.385-14.682-5.856
							c-4.087,13.155-24.521,30.042-26.498,31.676c-2.5,2.067-3.633,6.2-0.867,10.399c2.853,4.331,9.462,3.725,11.533,3.133
							c4.666-1.333,11.199-7.266,11.199-7.266C419.808,197.978,424.686,186.138,428.456,174.891z"/>
						<path style="fill:#FFA0FF;" d="M397.769,193.477c0.94,3.335,6.973,4.502,9.639,1.835c2.667-2.667-1-5.8,0.6-9
							c1.6-3.2,2.8-1.667,5.2-3c1.723-0.957,0.9-5.4-3.202-6.651c-3.336,5.162-8.032,10.349-12.304,14.589
							C397.811,191.709,397.478,192.446,397.769,193.477z"/>
						<path style="fill:none;stroke:#1E0041;stroke-miterlimit:10;" d="M428.456,174.891c-5.096-2.148-10.836-4.385-14.682-5.856
							c-4.087,13.155-24.521,30.042-26.498,31.676c-2.5,2.067-3.633,6.2-0.867,10.399c2.853,4.331,9.462,3.725,11.533,3.133
							c4.666-1.333,11.199-7.266,11.199-7.266C419.808,197.978,424.686,186.138,428.456,174.891z"/>
						<g>
							<path style="fill:#FFFFFE;" d="M410.708,175.513l14.609,7.296c1.197-2.591,2.24-5.239,3.139-7.919
								c-5.096-2.148-10.836-4.385-14.682-5.856C413.008,171.501,411.534,173.62,410.708,175.513z"/>
							<path style="fill:#FFA0FF;" d="M420.183,171.527c0.405,2.461,2.178,4.044,3.957,6.119c0.821,0.958,1.766,1.419,2.716,1.583
								c0.021-0.053,0.044-0.105,0.065-0.158c0.372-0.936,0.724-1.878,1.06-2.824c0.069-0.193,0.136-0.387,0.203-0.58
								c0.09-0.26,0.169-0.522,0.257-0.783C425.74,173.746,422.867,172.587,420.183,171.527z"/>
							<path style="fill:none;stroke:#1E0041;stroke-miterlimit:10;" d="M410.708,175.513l14.609,7.296
								c1.197-2.591,2.24-5.239,3.139-7.919c-5.096-2.148-10.836-4.385-14.682-5.856
								C413.008,171.501,411.534,173.62,410.708,175.513z"/>
						</g>
					</g>
				</g>
			</g>
			<g>
				<g>
					<g>
						<g>
							<g>
								<path style="fill:#FFFFFE;" d="M306.04,225.507c-12.825-6.166-27.542-8.778-31.624-9.196
									c-1.722-0.177-3.395-0.337-4.965-0.481l7.551,20.946c7.714-0.306,19.309,0.349,26.879,5.933
									c12.199,8.999,14.832,26.698,11.833,35.498c-3,8.799-6.6,10.999-7.4,13.399c-0.8,2.4,5.2-3.8,5.2-3.8
									c-3,7.4-6.2,12.999-4.8,13.999c1.297,0.926,4.434-5.436,5.15-6.949c-0.719,1.532-3.818,8.164-2.15,8.349
									c0.91,0.101,3.313-4.042,4.85-7.049c-1.215,2.843-2.833,6.858-2.05,7.25c1.6,0.8,5-6.35,5-6.35s-1.825,4.198-2.4,5.95
									c-1.1,3.35,2.049,0.132,2.5-0.55c6.198-9.362,9.445-21.97,10.69-31.15C332.867,252.401,323.234,233.773,306.04,225.507z"/>
								<g>
									<path style="fill:#FFD939;" d="M306.04,225.507c-6.921-3.327-14.389-5.618-20.443-7.089
										c0.08,1.789,0.649,3.989,2.552,5.892c4,4,7.466,1.867,7.2,5.333c-0.267,3.467,1.6,8.799,6.133,4.533
										c1.536-1.446,2.731-2.667,3.749-3.518l2.253-4.405C307.005,225.999,306.531,225.742,306.04,225.507z"/>
									<path style="fill:#FFD939;" d="M330.665,267.152c-3.43,2.669-3.935,1.554-3.319-3.378c0.8-6.4-0.533-8.533-5.866-6.666
										c-5.333,1.867-1.6-5.333-5.6-9.333c-2.296-2.296-3.361,0.506-3.852,4.267c5.09,8.972,5.836,19.855,3.686,26.164
										c-3,8.799-6.6,10.999-7.4,13.399c-0.8,2.4,5.2-3.8,5.2-3.8c-3,7.4-6.2,12.999-4.8,13.999
										c1.297,0.926,4.434-5.436,5.15-6.95c-0.719,1.532-3.818,8.164-2.15,8.349c0.91,0.101,3.313-4.042,4.85-7.049
										c-1.215,2.843-2.833,6.858-2.05,7.25c1.6,0.8,5-6.35,5-6.35s-1.825,4.198-2.4,5.95c-1.1,3.35,2.049,0.132,2.5-0.55
										c6.198-9.362,9.445-21.97,10.69-31.15C330.492,269.918,330.606,268.533,330.665,267.152z"/>
								</g>
								<path style="fill:none;stroke:#1E0041;stroke-miterlimit:10;" d="M306.04,225.507c-12.825-6.166-27.542-8.778-31.624-9.196
									c-1.722-0.177-3.395-0.337-4.965-0.481l7.551,20.946c7.714-0.306,19.309,0.349,26.879,5.933
									c12.199,8.999,14.832,26.698,11.833,35.498c-3,8.799-6.6,10.999-7.4,13.399c-0.8,2.4,5.2-3.8,5.2-3.8
									c-3,7.4-6.2,12.999-4.8,13.999c1.297,0.926,4.434-5.436,5.15-6.949c-0.719,1.532-3.818,8.164-2.15,8.349
									c0.91,0.101,3.313-4.042,4.85-7.049c-1.215,2.843-2.833,6.858-2.05,7.25c1.6,0.8,5-6.35,5-6.35s-1.825,4.198-2.4,5.95
									c-1.1,3.35,2.049,0.132,2.5-0.55c6.198-9.362,9.445-21.97,10.69-31.15C332.867,252.401,323.234,233.773,306.04,225.507z"/>
							</g>
							<g>
								<g>
									<path style="fill:#1E0041;" d="M294.339,243.581c-0.953-0.55-1.282-1.779-0.732-2.732l10.22-17.702
										c0.55-0.953,1.779-1.282,2.732-0.732l2.564,1.48c0.953,0.55,1.282,1.779,0.732,2.732l-10.22,17.702
										c-0.55,0.953-1.779,1.282-2.732,0.732L294.339,243.581z"/>
								</g>
								<path style="fill:#FFD939;" d="M309.258,223.973l-2.834-1.636c-0.878-0.507-2.012-0.203-2.519,0.675l-6.993,12.113
									c1.009,0.944,2.514,0.986,4.57-0.948c3.269-3.077,5.013-5.169,6.731-4.703l1.721-2.981
									C310.44,225.613,310.137,224.48,309.258,223.973z"/>
								<g>
									<path style="fill:none;stroke:#1E0041;stroke-miterlimit:10;" d="M294.339,243.581c-0.953-0.55-1.282-1.779-0.732-2.732
										l10.22-17.702c0.55-0.953,1.779-1.282,2.732-0.732l2.564,1.48c0.953,0.55,1.282,1.779,0.732,2.732l-10.22,17.702
										c-0.55,0.953-1.779,1.282-2.732,0.732L294.339,243.581z"/>
								</g>
							</g>
						</g>
						<g>
							<g>
								<path style="fill:#FFFFFE;" d="M264.715,217.211c-13.276-4.227-21.65-8.618-33.097-21.7
									c-13.999-15.999-15.199-36.798-14.999-44.597c0.2-7.799,3.4-13.199,2-13.599c-1.4-0.4-3.6,5.6-3.6,5.6
									s0.6-18.399-1.4-18.399c-2,0-2.6,10.799-2.6,10.799s0.4-10.799-1.4-10.799c-1.8,0-1.8,10.799-1.8,10.799
									s-0.2-10.799-1.6-10.599c-1.4,0.2-1.6,11.399-1.6,11.399s0.2-10.599-1.2-10.399c-1.4,0.2-2.4,2.2-2.4,13.599
									s1.8,22.399,1.8,22.399c3.6,26.998,13.199,47.197,27.198,59.197c7.686,6.588,18.199,11.122,26.124,13.876L264.715,217.211z"
									/>
								<g>
									<path style="fill:#FFD939;" d="M216.62,150.914c0.2-7.799,3.4-13.199,2-13.599c-1.4-0.4-3.6,5.6-3.6,5.6
										s0.6-18.399-1.4-18.399c-2,0-2.6,10.799-2.6,10.799s0.4-10.799-1.4-10.799c-1.8,0-1.8,10.799-1.8,10.799
										s-0.2-10.799-1.6-10.599c-1.4,0.2-1.6,11.399-1.6,11.399s0.2-10.599-1.2-10.399c-1.4,0.2-2.4,2.2-2.4,13.599
										s1.8,22.399,1.8,22.399c0.195,1.46,0.415,2.891,0.644,4.311c3.583-4.79,1.727-0.003,5.155,0.089
										c2.467,0.067,1.261-2.808,4.266-3.267c3.933-0.6,2.445,4.235,5.6,4.866C216.953,158.98,216.515,154.978,216.62,150.914z"/>
									<path style="fill:#FFD939;" d="M214.22,182.712c1-4-2.6-2.6-2.6-5.8c0-3.2-0.4-4.4-3.8-4.6
										c-1.166-0.069-2.091,0.716-2.811,1.768c1.455,6.591,3.308,12.693,5.545,18.265
										C212.983,191.538,213.401,185.987,214.22,182.712z"/>
								</g>
								<path style="fill:none;stroke:#1E0041;stroke-miterlimit:10;" d="M264.715,217.211c-13.276-4.227-21.65-8.618-33.097-21.7
									c-13.999-15.999-15.199-36.798-14.999-44.597c0.2-7.799,3.4-13.199,2-13.599c-1.4-0.4-3.6,5.6-3.6,5.6
									s0.6-18.399-1.4-18.399c-2,0-2.6,10.799-2.6,10.799s0.4-10.799-1.4-10.799c-1.8,0-1.8,10.799-1.8,10.799
									s-0.2-10.799-1.6-10.599c-1.4,0.2-1.6,11.399-1.6,11.399s0.2-10.599-1.2-10.399c-1.4,0.2-2.4,2.2-2.4,13.599
									s1.8,22.399,1.8,22.399c3.6,26.998,13.199,47.197,27.198,59.197c7.686,6.588,18.199,11.122,26.124,13.876L264.715,217.211z"
									/>
							</g>
							<g>
								<path style="fill:#1E0041;" d="M218.348,213.934c-0.778-0.778-0.778-2.051,0-2.828l14.454-14.454
									c0.778-0.778,2.051-0.778,2.828,0l2.094,2.094c0.778,0.778,0.778,2.051,0,2.829l-14.454,14.454
									c-0.778,0.778-2.051,0.778-2.828,0L218.348,213.934z"/>
								<path style="fill:none;stroke:#1E0041;stroke-miterlimit:10;" d="M218.348,213.934c-0.778-0.778-0.778-2.051,0-2.828
									l14.454-14.454c0.778-0.778,2.051-0.778,2.828,0l2.094,2.094c0.778,0.778,0.778,2.051,0,2.829l-14.454,14.454
									c-0.778,0.778-2.051,0.778-2.828,0L218.348,213.934z"/>
							</g>
						</g>
					</g>
					<g>
						<g>
							<g>
								<path style="fill:#FFFFFE;stroke:#1E0041;stroke-miterlimit:10;" d="M246.867,397.238
									c0.069-0.275-7.214-10.255-7.214-10.255L232,392.696l7.158,10.393L246.867,397.238z"/>
								<g>
									<g>
										<path style="fill:#FFFFFE;" d="M240.218,385.167c0,0-10.541-18.418-9.345-33.078c1.196-14.66,8.884-27.048,16.086-34.688
											c7.203-7.639,21.511-30.09,18.486-35.796c-3.025-5.706-30.389-5.396-30.389-5.396s-28.437,31.495-27.437,66.293
											c0.411,14.314,12.41,38.695,21.865,49.33L240.218,385.167z"/>
										<g>
											<path style="fill:#FFD939;" d="M217.22,350.902c0,0-5.2-2.4-4.4-7.4c0.8-5,3.4-8,5.8-7.2c2.4,0.8,5.6,5.8,4.8,8.799
												C222.619,348.103,220.819,353.102,217.22,350.902z"/>
											<path style="fill:#FFD939;" d="M221.692,295.061c-6.4,10.92-12.898,25.583-13.944,41.302
												c0.788,0.066,1.791-0.186,3.073-1.06c4.4-3,3.8-6.6,7.999-4.4c4.2,2.2,12.399-1.2,9.199-10.599
												c-3.2-9.399-1-10.399,1.2-15.199C230.749,301.767,226.379,296.114,221.692,295.061z"/>
											<path style="fill:#FFD939;" d="M216.22,359.102c-1.612-2.638-4.186-3.335-5.685-2.264
												c2.909,8.912,7.627,18.592,12.485,26.223c0.773-2.059,1.703-5.53,0.799-8.76
												C222.419,369.301,218.419,362.702,216.22,359.102z"/>
										</g>
										<path style="fill:none;stroke:#1E0041;stroke-miterlimit:10;" d="M240.218,385.167c0,0-10.541-18.418-9.345-33.078
											c1.196-14.66,8.884-27.048,16.086-34.688c7.203-7.639,21.511-30.09,18.486-35.796c-3.025-5.706-30.389-5.396-30.389-5.396
											s-28.437,31.495-27.437,66.293c0.411,14.314,12.41,38.695,21.865,49.33L240.218,385.167z"/>
									</g>
									<g>
										<path style="fill:#FFFFFE;" d="M226.798,393.34c-0.602-0.921-0.342-2.166,0.579-2.769l11.745-7.683
											c0.921-0.602,2.166-0.342,2.769,0.579l1.425,2.179c0.602,0.921,0.342,2.166-0.579,2.768l-11.745,7.683
											c-0.921,0.602-2.166,0.342-2.769-0.579L226.798,393.34z"/>
										<path style="fill:none;stroke:#1E0041;stroke-miterlimit:10;" d="M226.798,393.34c-0.602-0.921-0.342-2.166,0.579-2.769
											l11.745-7.683c0.921-0.602,2.166-0.342,2.769,0.579l1.425,2.179c0.602,0.921,0.342,2.166-0.579,2.768l-11.745,7.683
											c-0.921,0.602-2.166,0.342-2.769-0.579L226.798,393.34z"/>
									</g>
								</g>
								<g>
									<g>
										<polygon style="fill:#FFFFFE;" points="234.077,403.832 249.228,393.28 261.454,406.839 239.229,433.808 239.301,413.379 
																					"/>
										<path style="fill:#FFD939;" d="M252.237,418.024c-0.452-3.405-2.06-5.47-4.219-4.525c-3.2,1.4-4.018,3.951-4-1.4
											c0.014-3.974-2.53-1.934-4.905,0.936l0.189,0.345l-0.072,20.429L252.237,418.024z"/>
										<polygon style="fill:none;stroke:#1E0041;stroke-miterlimit:10;" points="234.077,403.832 249.228,393.28 
											261.454,406.839 239.229,433.808 239.301,413.379 										"/>
									</g>
									<path style="fill:#1E0041;stroke:#1E0041;stroke-miterlimit:10;" d="M250.226,409.182
										c-2.223,0.617-4.526-0.684-5.143-2.907c-0.617-2.223,0.684-4.526,2.907-5.143c2.223-0.617,4.526,0.684,5.143,2.907
										C253.75,406.262,252.449,408.565,250.226,409.182z"/>
									<g>
										<line style="fill:none;stroke:#1E0041;stroke-miterlimit:10;" x1="239.652" y1="417.917" x2="243.999" y2="417.45"/>
										<line style="fill:none;stroke:#1E0041;stroke-miterlimit:10;" x1="239.327" y1="420.933" x2="244.408" y2="420.191"/>
									</g>
								</g>
							</g>
							<g>
								<polygon style="fill:#FFFFFE;stroke:#1E0041;stroke-miterlimit:10;" points="296.314,355.274 305.096,349.036 
									300.705,341.397 290.849,348.335 								"/>
								<g>
									<g>
										<path style="fill:#FFFFFE;" d="M236.248,291.86l7.598,3.965c-4.121,37.475-1.041,72.989,17.408,78.357
											c18.449,5.368,33.376-18.298,33.376-18.298l-5.368-7.098c0,0-13.543,7.227-19.986,5.162
											c-6.443-2.065-3.468-20.441,0-36.959c3.468-16.518,8.452-39.39,8.452-39.39l-36.581-5.15"/>
										<g>
											<path style="fill:#FFD939;" d="M258.017,338.503c-0.621-0.366-5.2-2.6-5.8-7c-0.6-4.4,2-12.399,6.6-11.599
												c4.6,0.8,5.4,5.4,5.2,9.999C263.817,334.503,261.417,340.503,258.017,338.503z"/>
											<path style="fill:#FFD939;" d="M267.217,369.101c-7.599,1.8-4.8-4-2.6-10.4c2.2-6.4-7-12.599-12.399-9.999
												c-5.4,2.6-1.4-7-4.2-11.199c-1.799-2.699-3.597-2.158-5.025,1.639c1.879,18.285,7.409,31.881,18.262,35.039
												c9.63,2.802,18.295-2.308,24.384-7.833C281.194,363.095,272.317,367.893,267.217,369.101z"/>
										</g>
										<path style="fill:none;stroke:#1E0041;stroke-miterlimit:10;" d="M236.248,291.86l7.598,3.965
											c-4.121,37.475-1.041,72.989,17.408,78.357c18.449,5.368,33.376-18.298,33.376-18.298l-5.368-7.098
											c0,0-13.543,7.227-19.986,5.162c-6.443-2.065-3.468-20.441,0-36.959c3.468-16.518,8.452-39.39,8.452-39.39l-36.581-5.15"
											/>
									</g>
									<g>
										<path style="fill:#FFFFFE;" d="M296.803,361.056c-0.921,0.602-2.166,0.342-2.769-0.579l-7.683-11.745
											c-0.602-0.921-0.342-2.166,0.579-2.769l2.179-1.425c0.921-0.602,2.166-0.342,2.768,0.579l7.683,11.745
											c0.602,0.921,0.342,2.166-0.579,2.769L296.803,361.056z"/>
										<path style="fill:none;stroke:#1E0041;stroke-miterlimit:10;" d="M296.803,361.056c-0.921,0.602-2.166,0.342-2.769-0.579
											l-7.683-11.745c-0.602-0.921-0.342-2.166,0.579-2.769l2.179-1.425c0.921-0.602,2.166-0.342,2.768,0.579l7.683,11.745
											c0.602,0.921,0.342,2.166-0.579,2.769L296.803,361.056z"/>
									</g>
									<line style="fill:none;stroke:#1E0041;stroke-miterlimit:10;" x1="263.083" y1="289.639" x2="269.083" y2="299.505"/>
								</g>
								<g>
									<polygon style="fill:#FFFFFE;" points="306.512,355.389 297.935,339.038 312.915,328.602 336.896,354.022 316.636,351.398 
																			"/>
									<path style="fill:#FFD939;" d="M312.915,328.602l-10.336,7.2c1.254,2.812,3.154,5.137,5.835,3.7c5.6-3,8-1.8,9.399,1.8
										c1.4,3.6,2.4,8.599,8,8.799c2.708,0.097,3.685,1.414,4.629,3.083l6.454,0.836L312.915,328.602z"/>
									<polygon style="fill:none;stroke:#1E0041;stroke-miterlimit:10;" points="306.512,355.389 297.935,339.038 
										312.915,328.602 336.896,354.022 316.636,351.398 									"/>
									<path style="fill:#1E0041;stroke:#1E0041;stroke-miterlimit:10;" d="M313.837,340.035c0.335,2.283-1.244,4.405-3.527,4.74
										c-2.283,0.335-4.405-1.244-4.74-3.527c-0.335-2.283,1.244-4.405,3.527-4.74
										C311.38,336.173,313.502,337.752,313.837,340.035z"/>
									<g>
										<line style="fill:none;stroke:#1E0041;stroke-miterlimit:10;" x1="321.182" y1="351.617" x2="321.262" y2="347.246"/>
										<line style="fill:none;stroke:#1E0041;stroke-miterlimit:10;" x1="324.134" y1="352.316" x2="324.033" y2="347.182"/>
									</g>
								</g>
							</g>
						</g>
					</g>
				</g>
				<g>
					<g>
						<path style="fill:#FFFFFF;" d="M266.789,212.566c-15.5-2.837-32.227,17.607-37.362,45.661
							c-1.009,5.514-1.488,10.907-1.5,16.043c5.728,3.685,15.434,8.123,29.895,9.881c10.168,1.236,17.922,0.66,23.6-0.49
							c1.743-4.703,3.153-9.791,4.136-15.162C290.693,240.444,282.289,215.402,266.789,212.566z"/>
						<g>
							<path style="fill:#FFD939;" d="M262.284,264.841c6.666-4.8,10.399-11.999,3.466-18.399c-6.933-6.4-11.199,3.2-17.066,0.267
								c-5.866-2.933,3.2-15.466-7.733-13.333c-1.342,0.262-2.569,0.69-3.694,1.235c-3.483,6.807-6.224,14.839-7.83,23.616
								c-1.009,5.514-1.488,10.907-1.5,16.043c3.939,2.534,9.759,5.424,17.714,7.554c0.712-0.312,1.295-0.642,1.71-0.984
								c4.533-3.733,9.866,0.533,14.666-4.533C266.817,271.241,255.617,269.641,262.284,264.841z"/>
							<path style="fill:#FFD939;" d="M250.818,225.91c0,0-1.6,4.533,2.666,6.133c4.266,1.6,9.598-1.103,10.399-6.133
								C264.684,220.88,255.617,217.11,250.818,225.91z"/>
							<path style="fill:#FFD939;" d="M269.483,240.309c0,0-3.2,1.333-2.4-2.133c0.8-3.466,2.933-4.533,4.8-3.733
								C273.75,235.243,272.95,238.442,269.483,240.309z"/>
						</g>
					</g>
					<path style="fill:none;stroke:#1E0041;stroke-miterlimit:10;" d="M266.789,212.566c-15.5-2.837-32.227,17.607-37.362,45.661
						c-1.009,5.514-1.488,10.907-1.5,16.043c5.728,3.685,15.434,8.123,29.895,9.881c10.168,1.236,17.922,0.66,23.6-0.49
						c1.743-4.703,3.153-9.791,4.136-15.162C290.693,240.444,282.289,215.402,266.789,212.566z"/>
				</g>
				<g>
					<g>
						<path style="fill:#1E0041;stroke:#1E0041;stroke-miterlimit:10;" d="M256.413,214.326c-0.417,2.905,3.287,5.839,8.272,6.554
							c4.985,0.715,9.364-1.06,9.78-3.965c0.417-2.905-3.287-5.839-8.272-6.554C261.208,209.646,256.829,211.421,256.413,214.326z"
							/>
					</g>
					<g>
						<path style="fill:#FFFFFE;stroke:#1E0041;stroke-miterlimit:10;" d="M271.4,212.586c-0.306,2.315-2.656,4.002-5.224,3.749
							l-1.988-0.196c-2.567-0.253-4.417-2.355-4.111-4.67l1.144-8.662c0.306-2.315,2.657-4.003,5.224-3.749l1.988,0.196
							c2.567,0.253,4.417,2.355,4.111,4.67L271.4,212.586z"/>
						<path style="fill:#1E0041;" d="M285.477,180.272c0.137-0.823,0.19-1.544,0.104-2.068c-0.422-2.551-8.37-4.876-18.344-6.619
							c-9.974-1.743-14.601,6.482-15.535,8.992c-0.934,2.509,1.024,6.895,2.029,9.706c1.006,2.811,1.874,3.882,1.874,3.882
							c1.368,3.73,18.652,2.532,23.658,1.314c-0.006,0.05-0.011,0.084-0.011,0.084s0.392-0.062,0.982-0.388
							c0.163-0.07,0.287-0.139,0.341-0.206l0,0c0.819-0.537,1.895-1.548,2.865-3.446c1.889-3.699,3.974-8.853,3.974-10.355
							C287.414,180.566,286.549,180.297,285.477,180.272z"/>
						<g>
							<g>
								<path style="fill:#FFFFFE;stroke:#1E0041;stroke-miterlimit:10;" d="M288.801,190.867c-0.332,2.228-2.422,3.762-4.668,3.427
									c-2.246-0.335-3.797-2.412-3.465-4.639c0.332-2.228,2.422-3.762,4.668-3.427
									C287.581,186.562,289.133,188.64,288.801,190.867z"/>
								<g>
									<g>
										<path style="fill:#1E0041;" d="M282.934,190.466c0.008-0.089-0.021,0.112-0.003,0.014
											c0.017-0.088,0.032-0.176,0.053-0.264c0.06-0.242,0.144-0.477,0.274-0.691c0.46-0.757,1.262-0.835,2.067-0.641
											c0.598,0.144,0.853-0.778,0.254-0.922c-1.12-0.269-2.28-0.12-2.998,0.86c-0.346,0.472-0.552,1.061-0.604,1.643
											C281.922,191.078,282.879,191.074,282.934,190.466L282.934,190.466z"/>
									</g>
								</g>
							</g>
							<g>
								<path style="fill:#FFFFFE;stroke:#1E0041;stroke-miterlimit:10;" d="M248.486,187.926c-0.332,2.228,1.219,4.305,3.465,4.639
									c2.246,0.335,4.336-1.199,4.668-3.427c0.332-2.228-1.219-4.305-3.465-4.64C250.907,184.165,248.818,185.699,248.486,187.926
									z"/>
								<g>
									<g>
										<path style="fill:#1E0041;" d="M255.133,189.52c0.119-0.566,0.091-1.197-0.103-1.743c-0.408-1.149-1.476-1.623-2.629-1.69
											c-0.615-0.036-0.612,0.92,0,0.956c0.826,0.048,1.564,0.37,1.779,1.224c0.059,0.234,0.072,0.474,0.061,0.715
											c-0.002,0.049-0.03,0.322-0.013,0.188c-0.004,0.032-0.01,0.065-0.017,0.097
											C254.085,189.867,255.006,190.123,255.133,189.52L255.133,189.52z"/>
									</g>
								</g>
							</g>
						</g>
						<g>
							<path style="fill:#FFFFFE;" d="M280.29,196.881c-0.691,4.636-5.05,7.864-9.686,7.173l-8.548-1.275
								c-4.636-0.691-7.864-5.05-7.173-9.686l2.234-14.987c0.691-4.636,5.05-7.864,9.686-7.173l8.548,1.275
								c4.636,0.691,7.864,5.05,7.173,9.686L280.29,196.881z"/>
							<path style="fill:#FFD939;" d="M278.016,192.312c-2,4-2.4,5-4.6,4c-2.2-1-2.4-0.6-4.4,2c-2,2.6-4.6-1-6.8,1.6
								c-0.751,0.887-0.674,1.891-0.103,2.876l8.491,1.266c4.636,0.691,8.995-2.536,9.686-7.173l0.969-6.5
								C280.38,189.465,279.136,190.072,278.016,192.312z"/>
							<path style="fill:none;stroke:#1E0041;stroke-miterlimit:10;" d="M280.29,196.881c-0.691,4.636-5.05,7.864-9.686,7.173
								l-8.548-1.275c-4.636-0.691-7.864-5.05-7.173-9.686l2.234-14.987c0.691-4.636,5.05-7.864,9.686-7.173l8.548,1.275
								c4.636,0.691,7.864,5.05,7.173,9.686L280.29,196.881z"/>
						</g>
						<g>
							<polygon style="fill:#FF6766;" points="269.388,182.59 267.219,188.313 270.316,188.648 							"/>
							<g>
								<path style="fill:#1E0041;" d="M262.526,182.991c-0.132,0.82-0.905,1.379-1.725,1.246s-1.379-0.905-1.246-1.725
									c0.132-0.82,0.904-1.378,1.725-1.246C262.1,181.398,262.658,182.171,262.526,182.991z"/>
								<path style="fill:#1E0041;" d="M278.245,185.312c-0.132,0.82-0.904,1.379-1.725,1.246c-0.82-0.132-1.379-0.905-1.246-1.725
									c0.132-0.82,0.904-1.378,1.725-1.246C277.82,183.719,278.378,184.492,278.245,185.312z"/>
							</g>
							<g>
								<path style="fill:#FF999A;" d="M263.093,190.508c-0.365,1.77-2.096,2.91-3.867,2.544c-1.77-0.365-2.91-2.096-2.544-3.867
									s2.096-2.91,3.867-2.544C262.319,187.006,263.458,188.737,263.093,190.508z"/>
								<path style="fill:#FF999A;" d="M279.675,192.251c-0.365,1.771-2.096,2.91-3.867,2.545c-1.77-0.365-2.91-2.096-2.544-3.867
									c0.365-1.77,2.096-2.91,3.867-2.544C278.9,188.75,280.04,190.481,279.675,192.251z"/>
							</g>
							<g>
								<g>
									<path style="fill:#1E0041;" d="M266.205,193.589c0.813,2.358,5.035,2.685,5.917,0.222c0.227-0.634-0.782-0.907-1.007-0.278
										c-0.567,1.584-3.499,0.948-3.903-0.222C266.994,192.68,265.985,192.951,266.205,193.589L266.205,193.589z"/>
								</g>
							</g>
						</g>
						<g>
							<path style="fill:#1E0041;" d="M287.78,165.816c-0.726-2.274-2.989-11.893-15.428-11.382
								c-12.439,0.51-19.45,7.245-21.555,18.112c-1.096,5.659,0.065,9.505,1.429,11.894c0.701-0.027,1.987,0.102,3.193,1.173
								c0.537-2.407,1.306-5.783,4.232-9.19c3.868-4.503,8.495-1.707,14.314,4.59c5.819,6.297,13.852,1.913,13.852,1.913
								c5.587,1.187,11.144-1.104,10.571-8.511C297.815,167.008,287.78,165.816,287.78,165.816z"/>
						</g>
					</g>
				</g>
			</g>
			<g>
				<g>
					<g>
						<g>
							<path style="fill:#FFFFFE;" d="M166.339,126.092c0,0,4.01-20.265,5.137-28.532c1.128-8.266,0.752-17.466,1.879-17.066
								c1.128,0.4,1.378,7.6,1.378,7.6s1.754-10.133,3.133-10.933c1.378-0.8-0.376,9.733-0.376,9.733s2.506-10.266,4.01-10.399
								c1.503-0.133-1.002,10.799-1.002,10.799s3.007-10.133,4.636-9.599c1.629,0.533-1.128,10.533-1.128,10.533
								s2.882-10.266,3.258-7.333c0.376,2.933-5.889,39.064-9.523,49.73S164.96,131.692,166.339,126.092z"/>
							<path style="fill:#8964FF;" d="M187.264,80.895c-0.376-2.933-3.258,7.333-3.258,7.333s2.757-9.999,1.128-10.533
								c-1.629-0.533-4.636,9.599-4.636,9.599s2.506-10.933,1.002-10.799c-1.504,0.133-4.01,10.399-4.01,10.399
								s1.754-10.533,0.376-9.733c-1.378,0.8-3.133,10.933-3.133,10.933s-0.251-7.2-1.378-7.6c-1.128-0.4-0.752,8.799-1.88,17.066
								c-0.548,4.02-1.778,10.874-2.897,16.859c0.502,0.054,1.104-0.022,1.843-0.303c4.2-1.6,4-4.6,5.2-2.6c1.2,2,4.2,3,5-2
								c0.421-2.631,1.786-4.98,3.42-6.854C185.997,92.009,187.45,82.353,187.264,80.895z"/>
							<path style="fill:none;stroke:#1E0041;stroke-miterlimit:10;" d="M166.339,126.092c0,0,4.01-20.265,5.137-28.532
								c1.128-8.266,0.752-17.466,1.879-17.066c1.128,0.4,1.378,7.6,1.378,7.6s1.754-10.133,3.133-10.933
								c1.378-0.8-0.376,9.733-0.376,9.733s2.506-10.266,4.01-10.399c1.503-0.133-1.002,10.799-1.002,10.799
								s3.007-10.133,4.636-9.599c1.629,0.533-1.128,10.533-1.128,10.533s2.882-10.266,3.258-7.333
								c0.376,2.933-5.889,39.064-9.523,49.73S164.96,131.692,166.339,126.092z"/>
						</g>
						
							<ellipse transform="matrix(0.2401 -0.9708 0.9708 0.2401 5.5825 264.7827)" style="fill:#1E0041;stroke:#1E0041;stroke-miterlimit:10;" cx="171.914" cy="128.826" rx="8.866" ry="8.866"/>
						<g>
							<path style="fill:#FFFFFE;" d="M137.549,169.957c0,0,5.6-3.467,14.399-21.332c8.799-17.866,10.399-24.265,19.999-23.199
								c9.599,1.067,11.466,12.533,8,31.998c-3.467,19.465-13.599,33.331-20.266,42.131
								C153.015,208.354,137.549,169.957,137.549,169.957z"/>
							<path style="fill:#8964FF;" d="M181.475,139.118c-3.411-0.342-7.28,3.594-8.253,8.596c-1.4,7.2,1,5.9-2.8,12.499
								c-3.8,6.6-7.266,4.366-5.4,15.099c0.548,3.151,2.6,6.5,5.555,7.952c3.973-7.16,7.57-15.74,9.369-25.841
								C181.239,150.169,181.789,144.027,181.475,139.118z"/>
							<path style="fill:none;stroke:#1E0041;stroke-miterlimit:10;" d="M137.549,169.957c0,0,5.6-3.467,14.399-21.332
								c8.799-17.866,10.399-24.265,19.999-23.199c9.599,1.067,11.466,12.533,8,31.998c-3.467,19.465-13.599,33.331-20.266,42.131
								C153.015,208.354,137.549,169.957,137.549,169.957z"/>
						</g>
						<g>
							<g>
								<g>
									<path style="fill:#1E0041;" d="M160.357,156.265c-0.805,1.306-1.622,2.606-2.427,3.913
										c-0.423,0.687,0.657,1.315,1.079,0.631c0.805-1.306,1.622-2.606,2.427-3.913
										C161.86,156.21,160.779,155.581,160.357,156.265L160.357,156.265z"/>
								</g>
							</g>
							<g>
								<g>
									<path style="fill:#1E0041;" d="M168.414,153.484c-0.71,1.361-1.432,2.715-2.142,4.076
										c-0.372,0.712,0.707,1.345,1.079,0.631c0.71-1.361,1.432-2.715,2.142-4.076
										C169.865,153.402,168.787,152.77,168.414,153.484L168.414,153.484z"/>
								</g>
							</g>
							<g>
								<g>
									<path style="fill:#1E0041;" d="M158.015,146.384c-0.71,1.361-1.432,2.715-2.142,4.076
										c-0.372,0.712,0.707,1.345,1.079,0.631c0.71-1.361,1.432-2.715,2.142-4.076
										C159.466,146.303,158.388,145.67,158.015,146.384L158.015,146.384z"/>
								</g>
							</g>
							<g>
								<g>
									<path style="fill:#1E0041;" d="M167.597,140.876c-0.699,1.367-1.409,2.727-2.107,4.094
										c-0.365,0.715,0.713,1.348,1.079,0.631c0.699-1.367,1.409-2.727,2.107-4.094
										C169.042,140.792,167.964,140.158,167.597,140.876L167.597,140.876z"/>
								</g>
							</g>
							<g>
								<g>
									<path style="fill:#1E0041;" d="M163.75,130.457c-0.6,1.412-1.212,2.82-1.812,4.233c-0.311,0.732,0.765,1.37,1.079,0.631
										c0.6-1.412,1.212-2.82,1.813-4.233C165.14,130.356,164.064,129.718,163.75,130.457L163.75,130.457z"/>
								</g>
							</g>
							<g>
								<g>
									<path style="fill:#1E0041;" d="M176.381,140.65c-0.397,1.483-0.805,2.962-1.202,4.445c-0.208,0.778,0.997,1.11,1.205,0.332
										c0.397-1.483,0.805-2.962,1.202-4.445C177.794,140.204,176.589,139.872,176.381,140.65L176.381,140.65z"/>
								</g>
							</g>
							<g>
								<g>
									<path style="fill:#1E0041;" d="M173.714,132.383c-0.397,1.482-0.805,2.962-1.202,4.444
										c-0.208,0.778,0.997,1.11,1.205,0.332c0.397-1.483,0.805-2.962,1.202-4.445
										C175.128,131.938,173.923,131.606,173.714,132.383L173.714,132.383z"/>
								</g>
							</g>
							<g>
								<g>
									<path style="fill:#1E0041;" d="M176.789,155.721c-0.671,1.38-1.354,2.755-2.025,4.135c-0.35,0.72,0.727,1.355,1.079,0.631
										c0.671-1.38,1.354-2.755,2.025-4.135C178.218,155.631,177.141,154.997,176.789,155.721L176.789,155.721z"/>
								</g>
							</g>
							<g>
								<g>
									<path style="fill:#1E0041;" d="M150.758,161.798c-0.805,1.306-1.622,2.606-2.427,3.913
										c-0.423,0.687,0.658,1.315,1.079,0.631c0.805-1.306,1.622-2.606,2.427-3.913
										C152.261,161.742,151.18,161.114,150.758,161.798L150.758,161.798z"/>
								</g>
							</g>
							<g>
								<g>
									<path style="fill:#1E0041;" d="M159.224,167.665c-0.805,1.306-1.622,2.606-2.427,3.913
										c-0.423,0.687,0.658,1.315,1.079,0.631c0.805-1.306,1.622-2.606,2.427-3.913
										C160.727,167.609,159.646,166.98,159.224,167.665L159.224,167.665z"/>
								</g>
							</g>
							<g>
								<g>
									<path style="fill:#1E0041;" d="M151.358,170.998c-0.805,1.306-1.622,2.606-2.427,3.912
										c-0.423,0.687,0.658,1.315,1.079,0.631c0.805-1.306,1.622-2.606,2.427-3.913
										C152.861,170.942,151.78,170.314,151.358,170.998L151.358,170.998z"/>
								</g>
							</g>
							<g>
								<g>
									<path style="fill:#1E0041;" d="M159.824,177.464c-0.805,1.306-1.622,2.606-2.427,3.913
										c-0.423,0.687,0.657,1.315,1.079,0.631c0.805-1.306,1.622-2.606,2.427-3.913
										C161.327,177.408,160.246,176.78,159.824,177.464L159.824,177.464z"/>
								</g>
							</g>
							<g>
								<g>
									<path style="fill:#1E0041;" d="M168.537,164.778c-0.703,1.364-1.418,2.723-2.121,4.087
										c-0.368,0.714,0.71,1.347,1.079,0.631c0.703-1.364,1.418-2.723,2.121-4.087
										C169.984,164.695,168.906,164.062,168.537,164.778L168.537,164.778z"/>
								</g>
							</g>
							<g>
								<g>
									<path style="fill:#1E0041;" d="M168.07,174.71c-0.703,1.364-1.418,2.723-2.121,4.087c-0.368,0.714,0.71,1.347,1.079,0.631
										c0.703-1.364,1.418-2.723,2.121-4.087C169.518,174.628,168.44,173.994,168.07,174.71L168.07,174.71z"/>
								</g>
							</g>
							<g>
								<g>
									<path style="fill:#1E0041;" d="M162.476,185.079c-0.662,1.385-1.335,2.764-1.997,4.149
										c-0.345,0.722,0.732,1.357,1.079,0.631c0.662-1.385,1.335-2.764,1.997-4.149
										C163.9,184.988,162.823,184.353,162.476,185.079L162.476,185.079z"/>
								</g>
							</g>
						</g>
					</g>
					<g>
						<g>
							<g>
								<polygon style="fill:#FFFFFE;stroke:#1E0041;stroke-miterlimit:10;" points="163.316,312.489 176.371,305.66 
									170.413,297.279 158.63,305.528 								"/>
								<g>
									<polygon style="fill:#FFFFFE;stroke:#1E0041;stroke-miterlimit:10;" points="152.192,320.268 165.085,313.471 
										159.842,303.121 147.412,312.367 									"/>
									<g>
										<line style="fill:none;stroke:#1E0041;stroke-miterlimit:10;" x1="148.532" y1="314.219" x2="158.118" y2="307.258"/>
										<line style="fill:none;stroke:#1E0041;stroke-miterlimit:10;" x1="156.878" y1="305.326" x2="162.22" y2="314.982"/>
										<line style="fill:none;stroke:#1E0041;stroke-miterlimit:10;" x1="149.944" y1="316.144" x2="159.599" y2="309.893"/>
										<line style="fill:none;stroke:#1E0041;stroke-miterlimit:10;" x1="151.035" y1="318.548" x2="160.894" y2="312.831"/>
									</g>
								</g>
							</g>
							<g>
								<g>
									<polygon style="fill:#FFFFFE;" points="157.23,323.059 150.967,305.728 135.428,313.377 149.779,345.854 152.647,329.389 
																			"/>
									<path style="fill:#8964FF;" d="M149.779,345.854l2.869-16.465l4.582-6.331l-0.632-1.75c-1.088,0.26-1.978,0.94-2.308,1.929
										c-1.067,3.2-7.2,5.333-9.066,3.2c-0.996-1.138-2.903-2.111-4.789-1.73L149.779,345.854z"/>
									<polygon style="fill:none;stroke:#1E0041;stroke-miterlimit:10;" points="157.23,323.059 150.967,305.728 135.428,313.377 
										149.779,345.854 152.647,329.389 									"/>
								</g>
								<path style="fill:#1E0041;stroke:#1E0041;stroke-miterlimit:10;" d="M143.112,319.737c0,0,1.305-9.524,4.129-8.677
									c2.824,0.847,0.123,5.989,0.123,5.989s5.149,0.179,4.466,2.9C151.146,322.669,143.112,319.737,143.112,319.737z"/>
								<g>
									<line style="fill:none;stroke:#1E0041;stroke-miterlimit:10;" x1="152.334" y1="330.16" x2="149.34" y2="326.329"/>
									<line style="fill:none;stroke:#1E0041;stroke-miterlimit:10;" x1="154.197" y1="327.494" x2="151.922" y2="323.896"/>
								</g>
							</g>
							<g>
								<g>
									<path style="fill:#FFFFFE;" d="M145.757,249.908c0,0,30.931,19.465,37.331,26.398c6.4,6.933,2.448,10.517-10.399,18.666
										l7.733,11.733c0,0,12.799-3.467,25.065-13.866c12.266-10.399,3.733-26.932-3.733-37.064
										c-7.466-10.133-46.931-43.197-46.931-43.197L145.757,249.908z"/>
									<g>
										<path style="fill:#8964FF;" d="M192.954,270.174c0,0-5.333,0.8-5.866-4c-0.533-4.8,4-7.199,7.2-6.4
											C197.487,260.574,200.954,267.774,192.954,270.174z"/>
										<path style="fill:#8964FF;" d="M181.755,256.308c0,0-3.2,1.867-4.266-0.267c-1.067-2.133,1.867-4.8,3.2-5.866
											C182.022,249.109,184.688,253.375,181.755,256.308z"/>
										<path style="fill:#8964FF;" d="M201.754,255.775c-3.762-5.105-15.644-16.03-26.511-25.615
											c-1.529,0.709-2.806,1.795-3.087,3.483c-0.8,4.8-2.4,9.866,2.667,10.666c5.066,0.8,10.666,0.8,10.933,7.199
											c0.267,6.4,8.266,8,10.399,5.333c1.176-1.47,4.132-0.026,6.595,0.319C202.416,256.688,202.084,256.223,201.754,255.775z"
											/>
									</g>
									<path style="fill:none;stroke:#1E0041;stroke-miterlimit:10;" d="M145.757,249.908c0,0,30.931,19.465,37.331,26.398
										c6.4,6.933,2.448,10.517-10.399,18.666l7.733,11.733c0,0,12.799-3.467,25.065-13.866
										c12.266-10.399,3.733-26.932-3.733-37.064c-7.466-10.133-46.931-43.197-46.931-43.197L145.757,249.908z"/>
								</g>
								<g>
									<g>
										<path style="fill:#FFFFFE;" d="M178.969,311.609c-0.908,0.621-2.159,0.387-2.78-0.521l-9.225-13.48
											c-0.621-0.908-0.387-2.159,0.521-2.78l3.953-2.706c0.908-0.621,2.159-0.387,2.78,0.521l9.225,13.48
											c0.621,0.908,0.387,2.159-0.521,2.78L178.969,311.609z"/>
									</g>
									<path style="fill:#8964FF;" d="M176.371,305.66c-1.501-0.387-2.393,0.317-2.924,1.422l2.83,4.135
										c0.573,0.837,1.727,1.053,2.564,0.48l3.727-2.551C180.856,308.187,178.879,306.307,176.371,305.66z"/>
									<g>
										<path style="fill:none;stroke:#1E0041;stroke-miterlimit:10;" d="M178.969,311.609c-0.908,0.621-2.159,0.387-2.78-0.521
											l-9.225-13.48c-0.621-0.908-0.387-2.159,0.521-2.78l3.953-2.706c0.908-0.621,2.159-0.387,2.78,0.521l9.225,13.48
											c0.621,0.908,0.387,2.159-0.521,2.78L178.969,311.609z"/>
									</g>
								</g>
							</g>
						</g>
						<g>
							<g>
								<polygon style="fill:#FFFFFE;stroke:#1E0041;stroke-miterlimit:10;" points="71.162,260.708 80.494,272.107 87.494,264.574 
									77.028,254.708 								"/>
								<g>
									<polygon style="fill:#FFFFFE;stroke:#1E0041;stroke-miterlimit:10;" points="61.29,251.391 70.558,262.638 79.631,255.407 
										68.057,245.108 									"/>
									<g>
										<line style="fill:none;stroke:#1E0041;stroke-miterlimit:10;" x1="66.471" y1="246.581" x2="75.23" y2="254.557"/>
										<line style="fill:none;stroke:#1E0041;stroke-miterlimit:10;" x1="76.871" y1="252.951" x2="68.498" y2="260.139"/>
										<line style="fill:none;stroke:#1E0041;stroke-miterlimit:10;" x1="64.872" y1="248.354" x2="72.95" y2="256.541"/>
										<line style="fill:none;stroke:#1E0041;stroke-miterlimit:10;" x1="62.739" y1="249.908" x2="70.336" y2="258.405"/>
									</g>
								</g>
							</g>
							<g>
								<g>
									<path style="fill:#FFFFFE;" d="M160.423,246.309l-7.2,0.2c0,0-2.2,21.199-15.999,38.198
										c-13.799,16.999-28.998,15.399-38.198,9.199c-9.199-6.2-18.199-20.999-18.199-20.999l7.6-8c0,0,7.6,9.199,18.599,5.8
										c10.999-3.4,13.199-13.599,14.999-20.799c1.8-7.2,3-24.799,3-24.799l24.199-5.2l10.599-1.8L160.423,246.309z"/>
									<path style="fill:#8964FF;" d="M137.224,272.907c-3.6,2.8-7.599,6.6-9.399-1.4c-1.8-8-15.799-2.8-18.599,3.8
										c-2.8,6.6,0.4,6-9,10.399c-2.987,1.398-4.233,3.443-4.549,5.581c1.103,0.972,2.224,1.86,3.349,2.618
										c9.2,6.2,24.398,7.8,38.198-9.199c3.264-4.021,5.872-8.275,7.962-12.429C142.361,271.202,139.049,271.488,137.224,272.907z
										"/>
									<path style="fill:none;stroke:#1E0041;stroke-miterlimit:10;" d="M160.423,246.309l-7.2,0.2c0,0-2.2,21.199-15.999,38.198
										c-13.799,16.999-28.998,15.399-38.198,9.199c-9.199-6.2-18.199-20.999-18.199-20.999l7.6-8c0,0,7.6,9.199,18.599,5.8
										c10.999-3.4,13.199-13.599,14.999-20.799c1.8-7.2,3-24.799,3-24.799l24.199-5.2l10.599-1.8"/>
									<g>
										<path style="fill:none;stroke:#1E0041;stroke-miterlimit:10;" d="M128.691,246.175c0,0,6.8,0.267,10.133-5.066
											c3.333-5.333,0-13.333,0-13.333"/>
										<path style="fill:none;stroke:#1E0041;stroke-miterlimit:10;" d="M84.561,268.707c0,0,3.066,13.066,22.665,12.266
											c19.599-0.8,25.332-31.465,25.465-35.198"/>
									</g>
								</g>
								<g>
									<path style="fill:#FFFFFE;" d="M75.626,275.597c-0.778-0.778-0.778-2.051,0-2.829l11.55-11.55
										c0.778-0.778,2.051-0.778,2.828,0l3.387,3.387c0.778,0.778,0.778,2.051,0,2.828l-11.55,11.55
										c-0.778,0.778-2.051,0.778-2.828,0L75.626,275.597z"/>
									<path style="fill:none;stroke:#1E0041;stroke-miterlimit:10;" d="M75.626,275.597c-0.778-0.778-0.778-2.051,0-2.829
										l11.55-11.55c0.778-0.778,2.051-0.778,2.828,0l3.387,3.387c0.778,0.778,0.778,2.051,0,2.828l-11.55,11.55
										c-0.778,0.778-2.051,0.778-2.828,0L75.626,275.597z"/>
								</g>
							</g>
							<g>
								<g>
									<polygon style="fill:#FFFFFE;" points="59.578,256.889 75.279,247.244 64.64,233.578 35.745,254.212 52.45,253.685 
																			"/>
									<path style="fill:#8964FF;" d="M64.64,233.578l-28.895,20.634l14.662-0.463c2.179-3.498,3.291-5.949,6.422-4.241
										c4.4,2.4,7.157,4.127,8.4,0.6c1.193-3.387,0.48-8.186,5.2-9.095L64.64,233.578z"/>
									<polygon style="fill:none;stroke:#1E0041;stroke-miterlimit:10;" points="59.578,256.889 75.279,247.244 64.64,233.578 
										35.745,254.212 52.45,253.685 									"/>
								</g>
								<path style="fill:#1E0041;stroke:#1E0041;stroke-miterlimit:10;" d="M59.97,242.391c0,0,9.59-0.652,9.334,2.285
									c-0.257,2.938-5.839,1.334-5.839,1.334s0.869,5.079-1.935,4.961C58.726,250.853,59.97,242.391,59.97,242.391z"/>
								<g>
									<line style="fill:none;stroke:#1E0041;stroke-miterlimit:10;" x1="51.631" y1="253.534" x2="54.776" y2="249.826"/>
									<line style="fill:none;stroke:#1E0041;stroke-miterlimit:10;" x1="54.619" y1="254.818" x2="57.682" y2="251.861"/>
								</g>
							</g>
						</g>
					</g>
				</g>
				<g>
					<g>
						<path style="fill:#FFFFFF;" d="M134.158,163.476c-15.619,2.155-25.384,26.1-21.811,53.482
							c0.702,5.382,1.873,10.49,3.411,15.217c6.567,1.629,17.151,2.728,31.455-0.1c10.058-1.988,17.27-4.901,22.33-7.704
							c0.241-4.861,0.05-9.975-0.634-15.217C165.336,181.772,149.777,161.321,134.158,163.476z"/>
						<g>
							<path style="fill:#8964FF;" d="M135.225,201.445c0,0-7.2-0.8-7.733-7.199c-0.533-6.4,7.999-10.933,13.866-6.933
								C147.224,191.312,142.691,201.178,135.225,201.445z"/>
							<path style="fill:#8964FF;" d="M150.024,198.978c0,0-3.466,0.533-4-2.4c-0.533-2.933,2.933-4.533,4.533-4
								C152.157,193.112,154.023,197.645,150.024,198.978z"/>
							<path style="fill:#8964FF;" d="M167.558,225.417c-1.515-2.13-3.825-3.146-5.269-3.507c-3.2-0.8-7.158,1.562-5.6-8.799
								c1.133-7.533-8.066-11.666-15.399-8.733c-6.19,2.476-5.933,8.466-12.333-0.067c-4.488-5.984-12.686-4.554-17.313,3.543
								c0.074,2.975,0.299,6.015,0.702,9.104c0.702,5.382,1.873,10.49,3.411,15.217c6.567,1.629,17.151,2.728,31.455-0.1
								C156.023,230.333,162.649,227.882,167.558,225.417z"/>
						</g>
						<path style="fill:none;stroke:#1E0041;stroke-miterlimit:10;" d="M134.158,163.476c-15.619,2.155-25.384,26.1-21.811,53.482
							c0.702,5.382,1.873,10.49,3.411,15.217c6.567,1.629,17.151,2.728,31.455-0.1c10.058-1.988,17.27-4.901,22.33-7.704
							c0.241-4.861,0.05-9.975-0.634-15.217C165.336,181.772,149.777,161.321,134.158,163.476z"/>
					</g>
					<path style="fill:#1E0041;" d="M147.351,179.599c1.376,1.864,4.259,1.471,5.089-0.691c0.306-0.796,0.541-1.67,0.621-2.583
						c0.285-3.225-2.202-3.866-3.394-1.604c-0.171,0.325-0.625,0.347-0.818,0.035c-0.744-1.202-2.273-3.112-3.84-1.725
						C143.762,174.136,145.566,177.181,147.351,179.599z"/>
				</g>
				<g>
					<g>
						<path style="fill:#1E0041;" d="M132.449,120.293c0,0-9.504-6.272-24.819,3.577c-22.656,14.571-2.478,24.436-2.478,24.436
							s-2.793,7.464,4.209,11.434c7.002,3.97,14.284-1.257,14.284-1.257s2.188,4.119,7.002,3.97
							c4.814-0.149,10.249,1.236,15.023-5.824C150.94,148.838,143.548,118.67,132.449,120.293z"/>
						<g>
							<path style="fill:#8964FF;" d="M105.152,148.305c0,0-2.793,7.464,4.209,11.434c0.013,0.007,0.025,0.013,0.038,0.02
								c1.596-0.25,3.201-0.862,4.493-2.113c4.133-4-2.533-4.933-3.866-7.733c-1.333-2.8-1.333-7.6,1.066-11.199
								c2.4-3.6-3.2-6.4-5.466-6.933c-2.267-0.533-3.2-3.733,1.467-5.466c3.104-1.153,6.733-3.25,6.74-5.741
								c-1.943,0.815-4.011,1.885-6.203,3.295C84.974,138.44,105.152,148.305,105.152,148.305z"/>
							<ellipse style="fill:#8964FF;" cx="109.759" cy="150.381" rx="3" ry="3.266"/>
						</g>
					</g>
					<g>
						<path style="fill:#1E0041;stroke:#1E0041;stroke-miterlimit:10;" d="M141.798,163.995c0.276,2.52-3.007,4.946-7.331,5.419
							s-8.053-1.186-8.329-3.706c-0.276-2.52,3.006-4.946,7.331-5.419S141.522,161.475,141.798,163.995z"/>
						<path style="fill:#FFFFFE;stroke:#1E0041;stroke-miterlimit:10;" d="M116.996,144.619c0.349,3.187,3.236,5.485,6.449,5.134
							c3.213-0.352,5.535-3.22,5.186-6.407c-0.349-3.187-3.236-5.485-6.449-5.134S116.647,141.432,116.996,144.619z"/>
						<path style="fill:#FFFFFE;stroke:#1E0041;stroke-miterlimit:10;" d="M139.363,125.104l-6.884,0.753
							c-4.576,0.501-7.854,5.173-7.284,10.384l1.167,10.67c0.033,0.301,0.081,0.596,0.137,0.887c-0.04,0.323-0.048,0.654-0.011,0.99
							l0.711,6.495l0.04,0.362l0.711,6.495c0.258,2.357,2.397,4.074,4.754,3.816l2.731-0.299c2.357-0.258,4.074-2.397,3.816-4.754
							l-0.629-5.748l3.98-0.435c4.576-0.501,7.854-5.173,7.284-10.384l-1.167-10.67C148.15,128.457,143.939,124.603,139.363,125.104
							z"/>
						<g>
							<g>
								<path style="fill:#FFFFFE;stroke:#1E0041;stroke-miterlimit:10;" d="M121.462,135.211c0,0,6.592,0.876,8.163-3.703
									c1.571-4.578,2.867-8.21,2.867-8.21s2.464,7.541,8.616,8.163c5.078,0.514,4.796-0.198,5.159-1.407
									c0.333-1.106-0.168-8.492-8.201-12.192c-8.033-3.7-16.081-2.366-21.052,3.88c-4.97,6.246-4.176,18.686,0.387,20.794
									C120.058,143.763,120.464,137.935,121.462,135.211z"/>
							</g>
							<path style="fill:#1E0041;" d="M125.138,141.102c0,0,6.503-2.98,8.074-7.559c1.571-4.578,0.957-5.461,0.957-5.461
								s4.373,4.792,10.526,5.414c5.078,0.514,4.795-0.198,5.159-1.407c0.332-1.106-0.168-8.491-8.201-12.192
								c-8.033-3.7-16.081-2.366-21.052,3.88c-4.97,6.246-3.316,15.05-1.195,17.064C121.529,142.856,124.14,143.825,125.138,141.102
								z"/>
						</g>
						<g>
							<path style="fill:#FFFFFF;" d="M117.333,144.582c0.328,3.002,3.048,5.167,6.075,4.836c3.026-0.331,5.214-3.033,4.885-6.035
								c-0.328-3.002-3.048-5.167-6.075-4.836C119.192,138.878,117.005,141.58,117.333,144.582z"/>
							<g>
								<g>
									<path style="fill:#1E0041;" d="M126.544,144.376c-0.04-0.783-0.297-1.601-0.738-2.248
										c-0.935-1.369-2.504-1.617-4.042-1.309c-0.868,0.174-0.5,1.501,0.366,1.327c1.063-0.213,2.117-0.05,2.667,0.968
										c0.227,0.42,0.357,0.989,0.371,1.262C125.212,145.258,126.589,145.263,126.544,144.376L126.544,144.376z"/>
								</g>
							</g>
						</g>
						<g>
							<g>
								<path style="fill:#1E0041;" d="M135.327,138.66c0.094,0.857,0.864,1.476,1.721,1.382c0.857-0.094,1.476-0.865,1.382-1.721
									c-0.094-0.857-0.864-1.476-1.721-1.382C135.852,137.032,135.233,137.803,135.327,138.66z"/>
								<path style="fill:#1E0041;" d="M145.46,137.321c0.08,0.731,0.738,1.26,1.469,1.18c0.732-0.08,1.26-0.738,1.18-1.469
									c-0.08-0.731-0.738-1.259-1.469-1.179C145.908,135.932,145.38,136.59,145.46,137.321z"/>
							</g>
							<g>
								<path style="fill:#FFFFFE;" d="M144.673,143.832c0,0-0.531,2.357-2.163,2.694c-1.631,0.337-3.123-1.349-3.368-2.765
									L144.673,143.832z"/>
								<g>
									<path style="fill:#1E0041;" d="M144.135,143.683c-0.159,0.671-0.474,1.417-0.993,1.885
										c-1.461,1.315-3.145-0.547-3.462-1.956c-0.179,0.236-0.359,0.471-0.538,0.707c1.844,0.024,3.687,0.048,5.531,0.071
										c0.719,0.009,0.719-1.107,0-1.117c-1.844-0.024-3.687-0.048-5.531-0.071c-0.377-0.005-0.616,0.359-0.538,0.707
										c0.411,1.828,2.265,3.757,4.292,3.09c1.259-0.414,2.027-1.797,2.316-3.019C145.377,143.282,144.3,142.984,144.135,143.683z
										"/>
								</g>
							</g>
							<g>
								<path style="fill:#FF999A;" d="M130.558,144.956c0.233,2.13,2.149,3.668,4.279,3.435c2.13-0.233,3.668-2.149,3.435-4.279
									s-2.149-3.668-4.279-3.435C131.863,140.91,130.325,142.826,130.558,144.956z"/>
								<path style="fill:#FF999A;" d="M148.405,140.358c0.235-0.026,0.465-0.02,0.69,0.008l0.438,4
									c0.065,0.598,0.106,1.178,0.047,1.754c-0.158,0.045-0.363,0.09-0.532,0.108c-1.621,0.177-3.079-0.993-3.257-2.614
									C145.614,141.993,146.784,140.536,148.405,140.358z"/>
							</g>
							<polygon style="fill:#FF6766;" points="142.09,136.35 142.351,141.668 144.706,139.855 							"/>
						</g>
					</g>
				</g>
				<g>
					<g>
						<path style="fill:#FFFFFE;" d="M83.074,135.068c0,0-10.051-18.048-13.668-25.566c-3.617-7.518-6.09-16.387-7.04-15.659
							c-0.95,0.728,1.027,7.655,1.027,7.655s-4.787-9.101-6.345-9.438c-1.558-0.337,3.353,9.145,3.353,9.145
							s-5.544-8.997-7.015-8.661c-1.472,0.336,4.277,9.967,4.277,9.967s-5.979-8.716-7.365-7.707
							c-1.386,1.009,4.314,9.675,4.314,9.675s-5.901-8.881-5.356-5.975C49.8,101.41,66.88,133.86,73.62,142.89
							C80.359,151.921,86.108,139.972,83.074,135.068z"/>
						<g>
							<path style="fill:#8964FF;" d="M69.406,109.502c-3.617-7.518-6.09-16.387-7.04-15.659c-0.95,0.728,1.027,7.655,1.027,7.655
								s-4.787-9.101-6.345-9.438c-1.558-0.337,3.353,9.145,3.353,9.145s-5.544-8.997-7.015-8.661
								c-1.472,0.336,4.277,9.967,4.277,9.967s-5.979-8.716-7.365-7.707c-1.386,1.009,4.314,9.674,4.314,9.674
								s-5.901-8.881-5.356-5.975c0.316,1.685,6.19,13.298,12.383,24.522c1.057-2.039,1.349-4.994,0.99-6.309
								c-0.6-2.2,0.8-4.4,3.4-0.8c1.783,2.469,5.539,3.336,7.338,1.318C71.797,114.27,70.371,111.509,69.406,109.502z"/>
							<path style="fill:#8964FF;" d="M71.261,127.168c-0.525-1.344-1.177-2.588-1.933-3.815c-0.767-1.245-1.706-3.083-3.434-2.908
								c-1.095,0.111-1.849,0.653-2.223,1.693c-0.661,1.838,0.454,3.919,0.735,5.725c0.131,0.842,0.895,1.417,1.716,1.606
								c0.187,0.125,0.386,0.238,0.603,0.322c0.732,0.283,1.533,0.389,2.313,0.295C70.359,129.927,71.866,128.717,71.261,127.168z"
								/>
						</g>
						<path style="fill:none;stroke:#1E0041;stroke-miterlimit:10;" d="M83.074,135.068c0,0-10.051-18.048-13.668-25.566
							c-3.617-7.518-6.09-16.387-7.04-15.659c-0.95,0.728,1.027,7.655,1.027,7.655s-4.787-9.101-6.345-9.438
							c-1.558-0.337,3.353,9.145,3.353,9.145s-5.544-8.997-7.015-8.661c-1.472,0.336,4.277,9.967,4.277,9.967
							s-5.979-8.716-7.365-7.707c-1.386,1.009,4.314,9.675,4.314,9.675s-5.901-8.881-5.356-5.975
							C49.8,101.41,66.88,133.86,73.62,142.89C80.359,151.921,86.108,139.972,83.074,135.068z"/>
					</g>
					<path style="fill:#1E0041;stroke:#1E0041;stroke-miterlimit:10;" d="M70.174,142.113c1.507,4.659,6.505,7.214,11.164,5.707
						c4.659-1.507,7.214-6.505,5.707-11.164c-1.507-4.659-6.505-7.214-11.164-5.707C71.223,132.456,68.667,137.454,70.174,142.113z"
						/>
					<path style="fill:#FFFFFE;" d="M124.43,169.36c0,0-6.86-2.991-20.73-17.282c-13.87-14.291-17.362-19.887-26.167-15.919
						s-7.053,15.453,2.236,32.907c9.288,17.454,23.196,27.529,32.247,33.85C121.066,209.238,124.43,169.36,124.43,169.36z"/>
					<g>
						<path style="fill:#8964FF;" d="M84.563,146.911c4.343,4.423-1.34,11.763-6.671,8.6c-0.567-0.336-1.014-0.79-1.264-1.397
							c-1.4-3.4,1-8.6,3.8-9C81.599,144.947,83.261,145.585,84.563,146.911z"/>
						<path style="fill:#8964FF;" d="M100.826,179.513c0.2-8.4-4.2-13.999-10.999-12.799c-6.799,1.2-4-4.2-7.999-6.6
							c-2.12-1.272-3.904-0.014-5.082,2.908c0.895,1.927,1.902,3.942,3.022,6.045c6.776,12.732,16.004,21.526,24.017,27.812
							c3.981-1.174,6.35-3.558,4.441-6.967C105.426,184.912,100.626,187.912,100.826,179.513z"/>
					</g>
					<g>
						<g>
							<g>
								<path style="fill:#1E0041;" d="M97.192,162.844c1.168,0.995,2.345,1.981,3.513,2.976c0.609,0.519,1.497-0.361,0.884-0.884
									c-1.168-0.995-2.345-1.98-3.513-2.976C97.466,161.442,96.578,162.322,97.192,162.844L97.192,162.844z"/>
							</g>
						</g>
						<g>
							<g>
								<path style="fill:#1E0041;" d="M88.67,162.677c1.094,1.076,2.198,2.143,3.292,3.219c0.574,0.564,1.459-0.319,0.884-0.884
									c-1.094-1.076-2.198-2.143-3.292-3.219C88.98,161.229,88.095,162.112,88.67,162.677L88.67,162.677z"/>
							</g>
						</g>
						<g>
							<g>
								<path style="fill:#1E0041;" d="M96.38,152.722c1.094,1.076,2.198,2.143,3.292,3.219c0.574,0.565,1.459-0.319,0.884-0.884
									c-1.094-1.076-2.198-2.143-3.292-3.219C96.69,151.274,95.805,152.157,96.38,152.722L96.38,152.722z"/>
							</g>
						</g>
						<g>
							<g>
								<path style="fill:#1E0041;" d="M85.567,150.43c1.085,1.085,2.18,2.161,3.265,3.247c0.569,0.57,1.454-0.314,0.884-0.884
									c-1.085-1.085-2.18-2.161-3.265-3.247C85.882,148.976,84.998,149.86,85.567,150.43L85.567,150.43z"/>
							</g>
						</g>
						<g>
							<g>
								<path style="fill:#1E0041;" d="M86.022,139.332c1.006,1.159,2.021,2.31,3.027,3.469c0.528,0.609,1.409-0.279,0.884-0.884
									c-1.006-1.159-2.021-2.31-3.027-3.469C86.377,137.84,85.496,138.727,86.022,139.332L86.022,139.332z"/>
							</g>
						</g>
						<g>
							<g>
								<path style="fill:#1E0041;" d="M76.937,152.668c0.834,1.289,1.678,2.57,2.512,3.859c0.435,0.673,1.518,0.047,1.079-0.631
									c-0.834-1.289-1.678-2.57-2.512-3.859C77.58,151.364,76.498,151.99,76.937,152.668L76.937,152.668z"/>
							</g>
						</g>
						<g>
							<g>
								<path style="fill:#1E0041;" d="M76.93,143.983c0.834,1.289,1.678,2.57,2.512,3.859c0.435,0.673,1.518,0.047,1.079-0.631
									c-0.834-1.289-1.678-2.57-2.512-3.859C77.574,142.679,76.491,143.305,76.93,143.983L76.93,143.983z"/>
							</g>
						</g>
						<g>
							<g>
								<path style="fill:#1E0041;" d="M81.39,167.383c1.063,1.107,2.136,2.205,3.199,3.311c0.558,0.581,1.442-0.303,0.884-0.884
									c-1.063-1.107-2.136-2.204-3.199-3.311C81.716,165.918,80.833,166.802,81.39,167.383L81.39,167.383z"/>
							</g>
						</g>
						<g>
							<g>
								<path style="fill:#1E0041;" d="M108.028,165.155c1.168,0.995,2.345,1.981,3.513,2.976c0.609,0.519,1.497-0.361,0.884-0.884
									c-1.168-0.995-2.345-1.98-3.513-2.976C108.303,163.752,107.414,164.632,108.028,165.155L108.028,165.155z"/>
							</g>
						</g>
						<g>
							<g>
								<path style="fill:#1E0041;" d="M101.778,173.342c1.168,0.995,2.345,1.981,3.513,2.976c0.609,0.519,1.497-0.361,0.884-0.884
									c-1.168-0.995-2.345-1.98-3.513-2.976C102.053,171.939,101.164,172.819,101.778,173.342L101.778,173.342z"/>
							</g>
						</g>
						<g>
							<g>
								<path style="fill:#1E0041;" d="M110.288,174.092c1.168,0.995,2.345,1.98,3.513,2.976c0.609,0.519,1.497-0.361,0.884-0.884
									c-1.168-0.995-2.345-1.981-3.513-2.976C110.563,172.69,109.675,173.57,110.288,174.092L110.288,174.092z"/>
							</g>
						</g>
						<g>
							<g>
								<path style="fill:#1E0041;" d="M104.223,182.85c1.168,0.995,2.345,1.981,3.513,2.976c0.609,0.519,1.497-0.361,0.884-0.884
									c-1.168-0.995-2.345-1.98-3.513-2.976C104.497,181.447,103.609,182.328,104.223,182.85L104.223,182.85z"/>
							</g>
						</g>
						<g>
							<g>
								<path style="fill:#1E0041;" d="M92.028,173.461c1.089,1.082,2.187,2.154,3.276,3.236c0.571,0.568,1.456-0.316,0.884-0.884
									c-1.089-1.082-2.187-2.154-3.275-3.236C92.341,172.009,91.457,172.893,92.028,173.461L92.028,173.461z"/>
							</g>
						</g>
						<g>
							<g>
								<path style="fill:#1E0041;" d="M95.529,182.768c1.089,1.082,2.187,2.154,3.276,3.236c0.571,0.568,1.456-0.316,0.884-0.884
									c-1.089-1.082-2.187-2.154-3.276-3.236C95.842,181.317,94.957,182.2,95.529,182.768L95.529,182.768z"/>
							</g>
						</g>
						<g>
							<g>
								<path style="fill:#1E0041;" d="M104.043,190.912c1.056,1.114,2.121,2.219,3.177,3.333c0.555,0.585,1.437-0.3,0.884-0.884
									c-1.056-1.114-2.121-2.219-3.177-3.333C104.373,189.443,103.49,190.328,104.043,190.912L104.043,190.912z"/>
							</g>
						</g>
					</g>
					<path style="fill:none;stroke:#1E0041;stroke-miterlimit:10;" d="M124.23,168.825c0,0-6.66-2.455-20.531-16.746
						c-13.87-14.291-17.362-19.887-26.167-15.919s-7.053,15.453,2.236,32.907c9.288,17.454,23.196,27.529,32.247,33.85
						c0.471,0.329,1.308,0.718,1.746,0.802"/>
				</g>
			</g>
		</g>
	</g>
</g>
</svg>
