<svg width="96" height="80" viewBox="0 0 96 80" fill="none" xmlns="http://www.w3.org/2000/svg">
<path d="M87.442 1.41801C74.909 6.60801 21.172 28.867 6.32399 34.934C-3.63401 38.82 2.19499 42.463 2.19499 42.463C2.19499 42.463 10.695 45.377 17.981 47.563C25.267 49.749 29.153 47.32 29.153 47.32L63.397 24.247C75.54 15.99 72.626 22.79 69.712 25.704C63.397 32.019 52.954 41.976 44.211 49.991C40.325 53.391 42.268 56.306 43.968 57.763C50.283 63.106 67.526 74.035 68.498 74.764C73.629 78.396 83.721 83.625 85.256 72.578L91.328 34.448C93.271 21.576 95.214 9.67501 95.457 6.27501C96.185 -1.98199 87.442 1.41801 87.442 1.41801Z" fill="#7B82F6"/>
</svg>
