<svg width="96" height="96" viewBox="0 0 96 96" fill="none" xmlns="http://www.w3.org/2000/svg">
<path fill-rule="evenodd" clip-rule="evenodd" d="M95.471 62.602V33.515C95.471 6.94699 89.198 0.624997 62.622 0.624997C-2.36799 0.207997 0.192002 -2.435 0.629002 62.552C0.629002 89.12 6.902 95.441 33.478 95.441H55.537C83.773 95.929 96.181 93.988 95.471 62.602ZM77.195 68.282H70.279C67.661 68.282 66.871 66.158 62.178 61.467C58.078 57.516 56.349 57.022 55.312 57.022C53.879 57.022 53.484 57.417 53.484 59.392V65.614C53.484 67.293 52.941 68.281 48.544 68.281C41.233 68.281 33.182 63.836 27.451 55.639C18.856 43.639 16.534 34.552 16.534 32.725C16.534 31.688 16.929 30.75 18.905 30.75H25.821C27.599 30.75 28.241 31.54 28.933 33.367C31.768 42.661 41.48 58.126 41.628 49.219V39.046C41.332 34.404 38.862 34.009 38.862 32.33C38.862 31.589 39.554 30.75 40.64 30.75H51.507C52.989 30.75 53.483 31.491 53.483 33.268V46.997C53.671 50.289 55.719 48.993 57.781 46.849C62.77 41.318 66.277 32.725 66.277 32.725C66.722 31.688 67.512 30.75 69.29 30.75H76.206C78.281 30.75 78.725 31.787 78.281 33.269C77.441 37.318 68.994 49.17 68.994 49.22C68.253 50.356 67.957 50.949 68.994 52.282C70.985 54.762 85.493 67.864 77.195 68.282Z" fill="#7B82F6"/>
</svg>
