<svg width="96" height="68" viewBox="0 0 96 68" fill="none" xmlns="http://www.w3.org/2000/svg">
<path d="M93.515 10.989C92.422 6.87599 89.203 3.63599 85.116 2.53699C77.707 0.537995 48 0.537994 48 0.537994C48 0.537994 18.293 0.537994 10.885 2.53599C6.797 3.63499 3.578 6.875 2.486 10.988C0.5 18.445 0.5 34 0.5 34C0.5 34 0.5 49.556 2.485 57.012C3.577 61.125 6.796 64.364 10.884 65.464C18.293 67.462 48 67.462 48 67.462C48 67.462 77.708 67.462 85.116 65.464C89.204 64.364 92.422 61.125 93.515 57.012C95.5 49.555 95.5 34 95.5 34C95.5 34 95.5 18.445 93.515 10.989ZM38.284 48.123V19.877L63.114 34.001L38.284 48.123Z" fill="#7B82F6"/>
</svg>
